<svg xmlns="http://www.w3.org/2000/svg" width="810" viewBox="0 0 810 810" height="810" version="1.0"><path fill="#ED95B2" d="M 156.296875 85.257812 L 85.257812 156.296875 C 80.597656 162.269531 76.121094 168.386719 71.796875 174.628906 L 174.628906 71.796875 C 168.386719 76.121094 162.269531 80.597656 156.296875 85.257812"/><path fill="#ED95B2" d="M 277.84375 20.308594 L 20.308594 277.84375 C 19.511719 280.238281 18.726562 282.628906 17.976562 285.042969 L 285.042969 17.976562 C 282.628906 18.726562 280.238281 19.511719 277.84375 20.308594"/><path fill="#ED95B2" d="M 351.277344 3.472656 L 3.472656 351.277344 C 3.222656 353.128906 3 354.988281 2.78125 356.847656 L 356.847656 2.78125 C 354.988281 3 353.128906 3.222656 351.277344 3.472656"/><path fill="#ED95B2" d="M 411.355469 0 L 0 411.355469 C 0.0273438 412.949219 0.0390625 414.558594 0.078125 416.152344 L 416.152344 0.078125 C 414.558594 0.0390625 412.949219 0.0273438 411.355469 0"/><path fill="#ED95B2" d="M 463.773438 4.179688 L 4.179688 463.773438 C 4.382812 465.195312 4.582031 466.613281 4.804688 468.023438 L 468.023438 4.8125 C 466.613281 4.582031 465.195312 4.382812 463.773438 4.179688"/><path fill="#ED95B2" d="M 510.679688 13.875 L 13.875 510.679688 C 14.21875 511.953125 14.554688 513.238281 14.910156 514.515625 L 514.515625 14.910156 C 513.238281 14.554688 511.953125 14.21875 510.679688 13.875"/><path fill="#ED95B2" d="M 553.25 27.910156 L 27.910156 553.25 C 28.363281 554.410156 28.851562 555.5625 29.320312 556.710938 L 556.710938 29.320312 C 555.5625 28.851562 554.410156 28.371094 553.25 27.910156"/><path fill="#ED95B2" d="M 592.101562 45.660156 L 45.660156 592.101562 C 46.214844 593.164062 46.769531 594.238281 47.335938 595.292969 L 595.292969 47.335938 C 594.238281 46.769531 593.164062 46.214844 592.101562 45.660156"/><path fill="#ED95B2" d="M 627.730469 66.628906 L 66.628906 627.730469 C 67.28125 628.707031 67.914062 629.695312 68.5625 630.664062 L 630.664062 68.5625 C 629.695312 67.914062 628.707031 67.28125 627.730469 66.628906"/><path fill="#ED95B2" d="M 660.386719 90.578125 L 90.578125 660.378906 C 91.308594 661.28125 92.027344 662.179688 92.765625 663.074219 L 663.074219 92.765625 C 662.179688 92.027344 661.28125 91.308594 660.386719 90.578125"/><path fill="#ED95B2" d="M 690.195312 117.359375 L 117.359375 690.195312 C 118.171875 691.011719 118.976562 691.828125 119.792969 692.640625 L 692.640625 119.804688 C 691.828125 118.976562 691.011719 118.171875 690.195312 117.359375"/><path fill="#ED95B2" d="M 717.234375 146.925781 L 146.925781 717.234375 C 147.820312 717.972656 148.71875 718.691406 149.621094 719.421875 L 719.421875 149.613281 C 718.691406 148.71875 717.972656 147.820312 717.234375 146.925781"/><path fill="#ED95B2" d="M 741.4375 179.335938 L 179.324219 741.4375 C 180.304688 742.085938 181.292969 742.71875 182.269531 743.371094 L 743.371094 182.269531 C 742.730469 181.292969 742.085938 180.304688 741.4375 179.335938"/><path fill="#ED95B2" d="M 762.664062 214.707031 L 214.707031 762.664062 C 215.769531 763.230469 216.835938 763.785156 217.898438 764.339844 L 764.339844 217.898438 C 763.785156 216.835938 763.230469 215.769531 762.664062 214.707031"/><path fill="#ED95B2" d="M 780.679688 253.289062 L 253.289062 780.679688 C 254.4375 781.148438 255.589844 781.628906 256.75 782.089844 L 782.089844 256.75 C 781.628906 255.589844 781.148438 254.4375 780.679688 253.289062"/><path fill="#ED95B2" d="M 795.089844 295.484375 L 295.484375 795.089844 C 296.761719 795.445312 298.046875 795.78125 299.320312 796.125 L 796.125 299.320312 C 795.78125 298.046875 795.445312 296.761719 795.089844 295.484375"/><path fill="#ED95B2" d="M 805.1875 341.976562 L 341.976562 805.195312 C 343.386719 805.417969 344.804688 805.617188 346.226562 805.820312 L 805.820312 346.226562 C 805.617188 344.804688 805.417969 343.386719 805.1875 341.976562"/><path fill="#ED95B2" d="M 809.921875 393.847656 L 393.847656 809.921875 C 395.441406 809.960938 397.050781 809.972656 398.644531 810 L 810 398.644531 C 809.972656 397.050781 809.960938 395.441406 809.921875 393.847656"/><path fill="#ED95B2" d="M 807.21875 453.152344 L 453.152344 807.21875 C 455.011719 807 456.871094 806.777344 458.722656 806.527344 L 806.527344 458.722656 C 806.777344 456.871094 807 455.011719 807.21875 453.152344"/><path fill="#ED95B2" d="M 792.023438 524.957031 L 524.957031 792.023438 C 527.371094 791.273438 529.761719 790.488281 532.15625 789.691406 L 789.691406 532.15625 C 790.488281 529.761719 791.273438 527.371094 792.023438 524.957031"/><path fill="#ED95B2" d="M 724.742188 653.703125 C 729.394531 647.730469 733.878906 641.613281 738.203125 635.371094 L 635.371094 738.203125 C 641.613281 733.878906 647.730469 729.402344 653.703125 724.742188 L 724.742188 653.703125"/></svg>