<svg xmlns="http://www.w3.org/2000/svg" width="140.25" viewBox="0 0 140.25 225" height="225" version="1.0"><defs><clipPath id="a"><path d="M 100 0.597656 L 106.203125 0.597656 L 106.203125 7 L 100 7 Z M 100 0.597656"/></clipPath><clipPath id="b"><path d="M 100 17 L 106.203125 17 L 106.203125 24 L 100 24 Z M 100 17"/></clipPath><clipPath id="c"><path d="M 100 34 L 106.203125 34 L 106.203125 41 L 100 41 Z M 100 34"/></clipPath><clipPath id="d"><path d="M 100 50 L 106.203125 50 L 106.203125 57 L 100 57 Z M 100 50"/></clipPath><clipPath id="e"><path d="M 100 67 L 106.203125 67 L 106.203125 74 L 100 74 Z M 100 67"/></clipPath><clipPath id="f"><path d="M 100 84 L 106.203125 84 L 106.203125 91 L 100 91 Z M 100 84"/></clipPath><clipPath id="g"><path d="M 100 101 L 106.203125 101 L 106.203125 108 L 100 108 Z M 100 101"/></clipPath><clipPath id="h"><path d="M 83 0.597656 L 90 0.597656 L 90 7 L 83 7 Z M 83 0.597656"/></clipPath><clipPath id="i"><path d="M 67 0.597656 L 73 0.597656 L 73 7 L 67 7 Z M 67 0.597656"/></clipPath><clipPath id="j"><path d="M 50 0.597656 L 57 0.597656 L 57 7 L 50 7 Z M 50 0.597656"/></clipPath><clipPath id="k"><path d="M 33 0.597656 L 40 0.597656 L 40 7 L 33 7 Z M 33 0.597656"/></clipPath><clipPath id="l"><path d="M 17 0.597656 L 23 0.597656 L 23 7 L 17 7 Z M 17 0.597656"/></clipPath><clipPath id="m"><path d="M 0.269531 0.597656 L 7 0.597656 L 7 7 L 0.269531 7 Z M 0.269531 0.597656"/></clipPath><clipPath id="n"><path d="M 0.269531 17 L 7 17 L 7 24 L 0.269531 24 Z M 0.269531 17"/></clipPath><clipPath id="o"><path d="M 0.269531 34 L 7 34 L 7 41 L 0.269531 41 Z M 0.269531 34"/></clipPath><clipPath id="p"><path d="M 0.269531 50 L 7 50 L 7 57 L 0.269531 57 Z M 0.269531 50"/></clipPath><clipPath id="q"><path d="M 0.269531 67 L 7 67 L 7 74 L 0.269531 74 Z M 0.269531 67"/></clipPath><clipPath id="r"><path d="M 0.269531 84 L 7 84 L 7 91 L 0.269531 91 Z M 0.269531 84"/></clipPath><clipPath id="s"><path d="M 0.269531 101 L 7 101 L 7 108 L 0.269531 108 Z M 0.269531 101"/></clipPath><clipPath id="t"><path d="M 100 117 L 106.203125 117 L 106.203125 124 L 100 124 Z M 100 117"/></clipPath><clipPath id="u"><path d="M 100 134 L 106.203125 134 L 106.203125 141 L 100 141 Z M 100 134"/></clipPath><clipPath id="v"><path d="M 100 151 L 106.203125 151 L 106.203125 158 L 100 158 Z M 100 151"/></clipPath><clipPath id="w"><path d="M 100 168 L 106.203125 168 L 106.203125 175 L 100 175 Z M 100 168"/></clipPath><clipPath id="x"><path d="M 100 184 L 106.203125 184 L 106.203125 191 L 100 191 Z M 100 184"/></clipPath><clipPath id="y"><path d="M 100 201 L 106.203125 201 L 106.203125 208 L 100 208 Z M 100 201"/></clipPath><clipPath id="z"><path d="M 100 218 L 106.203125 218 L 106.203125 224.398438 L 100 224.398438 Z M 100 218"/></clipPath><clipPath id="A"><path d="M 83 218 L 90 218 L 90 224.398438 L 83 224.398438 Z M 83 218"/></clipPath><clipPath id="B"><path d="M 67 218 L 73 218 L 73 224.398438 L 67 224.398438 Z M 67 218"/></clipPath><clipPath id="C"><path d="M 50 218 L 57 218 L 57 224.398438 L 50 224.398438 Z M 50 218"/></clipPath><clipPath id="D"><path d="M 33 218 L 40 218 L 40 224.398438 L 33 224.398438 Z M 33 218"/></clipPath><clipPath id="E"><path d="M 17 218 L 23 218 L 23 224.398438 L 17 224.398438 Z M 17 218"/></clipPath><clipPath id="F"><path d="M 0.269531 117 L 7 117 L 7 124 L 0.269531 124 Z M 0.269531 117"/></clipPath><clipPath id="G"><path d="M 0.269531 134 L 7 134 L 7 141 L 0.269531 141 Z M 0.269531 134"/></clipPath><clipPath id="H"><path d="M 0.269531 151 L 7 151 L 7 158 L 0.269531 158 Z M 0.269531 151"/></clipPath><clipPath id="I"><path d="M 0.269531 168 L 7 168 L 7 175 L 0.269531 175 Z M 0.269531 168"/></clipPath><clipPath id="J"><path d="M 0.269531 184 L 7 184 L 7 191 L 0.269531 191 Z M 0.269531 184"/></clipPath><clipPath id="K"><path d="M 0.269531 201 L 7 201 L 7 208 L 0.269531 208 Z M 0.269531 201"/></clipPath><clipPath id="L"><path d="M 0.269531 218 L 7 218 L 7 224.398438 L 0.269531 224.398438 Z M 0.269531 218"/></clipPath><clipPath id="M"><path d="M 133 0.597656 L 139.503906 0.597656 L 139.503906 7 L 133 7 Z M 133 0.597656"/></clipPath><clipPath id="N"><path d="M 133 17 L 139.503906 17 L 139.503906 24 L 133 24 Z M 133 17"/></clipPath><clipPath id="O"><path d="M 133 34 L 139.503906 34 L 139.503906 41 L 133 41 Z M 133 34"/></clipPath><clipPath id="P"><path d="M 133 50 L 139.503906 50 L 139.503906 57 L 133 57 Z M 133 50"/></clipPath><clipPath id="Q"><path d="M 133 67 L 139.503906 67 L 139.503906 74 L 133 74 Z M 133 67"/></clipPath><clipPath id="R"><path d="M 133 84 L 139.503906 84 L 139.503906 91 L 133 91 Z M 133 84"/></clipPath><clipPath id="S"><path d="M 133 101 L 139.503906 101 L 139.503906 108 L 133 108 Z M 133 101"/></clipPath><clipPath id="T"><path d="M 116 0.597656 L 123 0.597656 L 123 7 L 116 7 Z M 116 0.597656"/></clipPath><clipPath id="U"><path d="M 100 0.597656 L 107 0.597656 L 107 7 L 100 7 Z M 100 0.597656"/></clipPath><clipPath id="V"><path d="M 83 0.597656 L 90 0.597656 L 90 7 L 83 7 Z M 83 0.597656"/></clipPath><clipPath id="W"><path d="M 66 0.597656 L 73 0.597656 L 73 7 L 66 7 Z M 66 0.597656"/></clipPath><clipPath id="X"><path d="M 50 0.597656 L 57 0.597656 L 57 7 L 50 7 Z M 50 0.597656"/></clipPath><clipPath id="Y"><path d="M 33.570312 0.597656 L 40 0.597656 L 40 7 L 33.570312 7 Z M 33.570312 0.597656"/></clipPath><clipPath id="Z"><path d="M 33.570312 17 L 40 17 L 40 24 L 33.570312 24 Z M 33.570312 17"/></clipPath><clipPath id="aa"><path d="M 33.570312 34 L 40 34 L 40 41 L 33.570312 41 Z M 33.570312 34"/></clipPath><clipPath id="ab"><path d="M 33.570312 50 L 40 50 L 40 57 L 33.570312 57 Z M 33.570312 50"/></clipPath><clipPath id="ac"><path d="M 33.570312 67 L 40 67 L 40 74 L 33.570312 74 Z M 33.570312 67"/></clipPath><clipPath id="ad"><path d="M 33.570312 84 L 40 84 L 40 91 L 33.570312 91 Z M 33.570312 84"/></clipPath><clipPath id="ae"><path d="M 33.570312 101 L 40 101 L 40 108 L 33.570312 108 Z M 33.570312 101"/></clipPath><clipPath id="af"><path d="M 133 117 L 139.503906 117 L 139.503906 124 L 133 124 Z M 133 117"/></clipPath><clipPath id="ag"><path d="M 133 134 L 139.503906 134 L 139.503906 141 L 133 141 Z M 133 134"/></clipPath><clipPath id="ah"><path d="M 133 151 L 139.503906 151 L 139.503906 158 L 133 158 Z M 133 151"/></clipPath><clipPath id="ai"><path d="M 133 168 L 139.503906 168 L 139.503906 175 L 133 175 Z M 133 168"/></clipPath><clipPath id="aj"><path d="M 133 184 L 139.503906 184 L 139.503906 191 L 133 191 Z M 133 184"/></clipPath><clipPath id="ak"><path d="M 133 201 L 139.503906 201 L 139.503906 208 L 133 208 Z M 133 201"/></clipPath><clipPath id="al"><path d="M 133 218 L 139.503906 218 L 139.503906 224.398438 L 133 224.398438 Z M 133 218"/></clipPath><clipPath id="am"><path d="M 116 218 L 123 218 L 123 224.398438 L 116 224.398438 Z M 116 218"/></clipPath><clipPath id="an"><path d="M 100 218 L 107 218 L 107 224.398438 L 100 224.398438 Z M 100 218"/></clipPath><clipPath id="ao"><path d="M 83 218 L 90 218 L 90 224.398438 L 83 224.398438 Z M 83 218"/></clipPath><clipPath id="ap"><path d="M 66 218 L 73 218 L 73 224.398438 L 66 224.398438 Z M 66 218"/></clipPath><clipPath id="aq"><path d="M 50 218 L 57 218 L 57 224.398438 L 50 224.398438 Z M 50 218"/></clipPath><clipPath id="ar"><path d="M 33.570312 117 L 40 117 L 40 124 L 33.570312 124 Z M 33.570312 117"/></clipPath><clipPath id="as"><path d="M 33.570312 134 L 40 134 L 40 141 L 33.570312 141 Z M 33.570312 134"/></clipPath><clipPath id="at"><path d="M 33.570312 151 L 40 151 L 40 158 L 33.570312 158 Z M 33.570312 151"/></clipPath><clipPath id="au"><path d="M 33.570312 168 L 40 168 L 40 175 L 33.570312 175 Z M 33.570312 168"/></clipPath><clipPath id="av"><path d="M 33.570312 184 L 40 184 L 40 191 L 33.570312 191 Z M 33.570312 184"/></clipPath><clipPath id="aw"><path d="M 33.570312 201 L 40 201 L 40 208 L 33.570312 208 Z M 33.570312 201"/></clipPath><clipPath id="ax"><path d="M 33.570312 218 L 40 218 L 40 224.398438 L 33.570312 224.398438 Z M 33.570312 218"/></clipPath></defs><g clip-path="url(#a)"><path fill="#C9D8FD" d="M 106.203125 3.703125 C 106.203125 2.082031 104.886719 0.765625 103.269531 0.765625 C 101.652344 0.765625 100.339844 2.082031 100.339844 3.703125 C 100.339844 5.324219 101.652344 6.644531 103.269531 6.644531 C 104.886719 6.644531 106.203125 5.324219 106.203125 3.703125"/></g><g clip-path="url(#b)"><path fill="#C9D8FD" d="M 106.203125 20.445312 C 106.203125 18.824219 104.886719 17.503906 103.269531 17.503906 C 101.652344 17.503906 100.339844 18.824219 100.339844 20.445312 C 100.339844 22.066406 101.652344 23.382812 103.269531 23.382812 C 104.886719 23.382812 106.203125 22.066406 106.203125 20.445312"/></g><g clip-path="url(#c)"><path fill="#C9D8FD" d="M 106.203125 37.183594 C 106.203125 35.5625 104.886719 34.242188 103.269531 34.242188 C 101.652344 34.242188 100.339844 35.5625 100.339844 37.183594 C 100.339844 38.804688 101.652344 40.125 103.269531 40.125 C 104.886719 40.125 106.203125 38.804688 106.203125 37.183594"/></g><g clip-path="url(#d)"><path fill="#C9D8FD" d="M 106.203125 53.925781 C 106.203125 52.304688 104.886719 50.984375 103.269531 50.984375 C 101.652344 50.984375 100.339844 52.304688 100.339844 53.925781 C 100.339844 55.546875 101.652344 56.863281 103.269531 56.863281 C 104.886719 56.863281 106.203125 55.546875 106.203125 53.925781"/></g><g clip-path="url(#e)"><path fill="#C9D8FD" d="M 106.203125 70.664062 C 106.203125 69.042969 104.886719 67.726562 103.269531 67.726562 C 101.652344 67.726562 100.339844 69.042969 100.339844 70.664062 C 100.339844 72.285156 101.652344 73.605469 103.269531 73.605469 C 104.886719 73.605469 106.203125 72.285156 106.203125 70.664062"/></g><g clip-path="url(#f)"><path fill="#C9D8FD" d="M 106.203125 87.40625 C 106.203125 85.785156 104.886719 84.464844 103.269531 84.464844 C 101.652344 84.464844 100.339844 85.785156 100.339844 87.40625 C 100.339844 89.027344 101.652344 90.34375 103.269531 90.34375 C 104.886719 90.34375 106.203125 89.027344 106.203125 87.40625"/></g><g clip-path="url(#g)"><path fill="#C9D8FD" d="M 106.203125 104.144531 C 106.203125 102.523438 104.886719 101.203125 103.269531 101.203125 C 101.652344 101.203125 100.339844 102.523438 100.339844 104.144531 C 100.339844 105.765625 101.652344 107.085938 103.269531 107.085938 C 104.886719 107.085938 106.203125 105.765625 106.203125 104.144531"/></g><g clip-path="url(#h)"><path fill="#C9D8FD" d="M 89.507812 3.703125 C 89.507812 2.082031 88.191406 0.765625 86.574219 0.765625 C 84.960938 0.765625 83.644531 2.082031 83.644531 3.703125 C 83.644531 5.324219 84.960938 6.644531 86.574219 6.644531 C 88.191406 6.644531 89.507812 5.324219 89.507812 3.703125"/></g><path fill="#C9D8FD" d="M 89.507812 20.445312 C 89.507812 18.824219 88.191406 17.503906 86.574219 17.503906 C 84.960938 17.503906 83.644531 18.824219 83.644531 20.445312 C 83.644531 22.066406 84.960938 23.382812 86.574219 23.382812 C 88.191406 23.382812 89.507812 22.066406 89.507812 20.445312"/><path fill="#C9D8FD" d="M 89.507812 37.183594 C 89.507812 35.5625 88.191406 34.242188 86.574219 34.242188 C 84.960938 34.242188 83.644531 35.5625 83.644531 37.183594 C 83.644531 38.804688 84.960938 40.125 86.574219 40.125 C 88.191406 40.125 89.507812 38.804688 89.507812 37.183594"/><path fill="#C9D8FD" d="M 89.507812 53.925781 C 89.507812 52.304688 88.191406 50.984375 86.574219 50.984375 C 84.960938 50.984375 83.644531 52.304688 83.644531 53.925781 C 83.644531 55.546875 84.960938 56.863281 86.574219 56.863281 C 88.191406 56.863281 89.507812 55.546875 89.507812 53.925781"/><path fill="#C9D8FD" d="M 89.507812 70.664062 C 89.507812 69.042969 88.191406 67.726562 86.574219 67.726562 C 84.960938 67.726562 83.644531 69.042969 83.644531 70.664062 C 83.644531 72.285156 84.960938 73.605469 86.574219 73.605469 C 88.191406 73.605469 89.507812 72.285156 89.507812 70.664062"/><path fill="#C9D8FD" d="M 89.507812 87.40625 C 89.507812 85.785156 88.191406 84.464844 86.574219 84.464844 C 84.960938 84.464844 83.644531 85.785156 83.644531 87.40625 C 83.644531 89.027344 84.960938 90.34375 86.574219 90.34375 C 88.191406 90.34375 89.507812 89.027344 89.507812 87.40625"/><path fill="#C9D8FD" d="M 89.507812 104.144531 C 89.507812 102.523438 88.191406 101.203125 86.574219 101.203125 C 84.960938 101.203125 83.644531 102.523438 83.644531 104.144531 C 83.644531 105.765625 84.960938 107.085938 86.574219 107.085938 C 88.191406 107.085938 89.507812 105.765625 89.507812 104.144531"/><g clip-path="url(#i)"><path fill="#C9D8FD" d="M 72.917969 3.703125 C 72.917969 2.082031 71.605469 0.765625 69.988281 0.765625 C 68.367188 0.765625 67.054688 2.082031 67.054688 3.703125 C 67.054688 5.324219 68.367188 6.644531 69.988281 6.644531 C 71.605469 6.644531 72.917969 5.324219 72.917969 3.703125"/></g><path fill="#C9D8FD" d="M 72.917969 20.445312 C 72.917969 18.824219 71.605469 17.503906 69.988281 17.503906 C 68.367188 17.503906 67.054688 18.824219 67.054688 20.445312 C 67.054688 22.066406 68.367188 23.382812 69.988281 23.382812 C 71.605469 23.382812 72.917969 22.066406 72.917969 20.445312"/><path fill="#C9D8FD" d="M 72.917969 37.183594 C 72.917969 35.5625 71.605469 34.242188 69.988281 34.242188 C 68.367188 34.242188 67.054688 35.5625 67.054688 37.183594 C 67.054688 38.804688 68.367188 40.125 69.988281 40.125 C 71.605469 40.125 72.917969 38.804688 72.917969 37.183594"/><path fill="#C9D8FD" d="M 72.917969 53.925781 C 72.917969 52.304688 71.605469 50.984375 69.988281 50.984375 C 68.367188 50.984375 67.054688 52.304688 67.054688 53.925781 C 67.054688 55.546875 68.367188 56.863281 69.988281 56.863281 C 71.605469 56.863281 72.917969 55.546875 72.917969 53.925781"/><path fill="#C9D8FD" d="M 72.917969 70.664062 C 72.917969 69.042969 71.605469 67.726562 69.988281 67.726562 C 68.367188 67.726562 67.054688 69.042969 67.054688 70.664062 C 67.054688 72.285156 68.367188 73.605469 69.988281 73.605469 C 71.605469 73.605469 72.917969 72.285156 72.917969 70.664062"/><path fill="#C9D8FD" d="M 72.917969 87.40625 C 72.917969 85.785156 71.605469 84.464844 69.988281 84.464844 C 68.367188 84.464844 67.054688 85.785156 67.054688 87.40625 C 67.054688 89.027344 68.367188 90.34375 69.988281 90.34375 C 71.605469 90.34375 72.917969 89.027344 72.917969 87.40625"/><path fill="#C9D8FD" d="M 72.917969 104.144531 C 72.917969 102.523438 71.605469 101.203125 69.988281 101.203125 C 68.367188 101.203125 67.054688 102.523438 67.054688 104.144531 C 67.054688 105.765625 68.367188 107.085938 69.988281 107.085938 C 71.605469 107.085938 72.917969 105.765625 72.917969 104.144531"/><g clip-path="url(#j)"><path fill="#C9D8FD" d="M 56.222656 3.703125 C 56.222656 2.082031 54.90625 0.765625 53.289062 0.765625 C 51.671875 0.765625 50.355469 2.082031 50.355469 3.703125 C 50.355469 5.324219 51.671875 6.644531 53.289062 6.644531 C 54.90625 6.644531 56.222656 5.324219 56.222656 3.703125"/></g><path fill="#C9D8FD" d="M 56.222656 20.445312 C 56.222656 18.824219 54.90625 17.503906 53.289062 17.503906 C 51.671875 17.503906 50.355469 18.824219 50.355469 20.445312 C 50.355469 22.066406 51.671875 23.382812 53.289062 23.382812 C 54.90625 23.382812 56.222656 22.066406 56.222656 20.445312"/><path fill="#C9D8FD" d="M 56.222656 37.183594 C 56.222656 35.5625 54.90625 34.242188 53.289062 34.242188 C 51.671875 34.242188 50.355469 35.5625 50.355469 37.183594 C 50.355469 38.804688 51.671875 40.125 53.289062 40.125 C 54.90625 40.125 56.222656 38.804688 56.222656 37.183594"/><path fill="#C9D8FD" d="M 56.222656 53.925781 C 56.222656 52.304688 54.90625 50.984375 53.289062 50.984375 C 51.671875 50.984375 50.355469 52.304688 50.355469 53.925781 C 50.355469 55.546875 51.671875 56.863281 53.289062 56.863281 C 54.90625 56.863281 56.222656 55.546875 56.222656 53.925781"/><path fill="#C9D8FD" d="M 56.222656 70.664062 C 56.222656 69.042969 54.90625 67.726562 53.289062 67.726562 C 51.671875 67.726562 50.355469 69.042969 50.355469 70.664062 C 50.355469 72.285156 51.671875 73.605469 53.289062 73.605469 C 54.90625 73.605469 56.222656 72.285156 56.222656 70.664062"/><path fill="#C9D8FD" d="M 56.222656 87.40625 C 56.222656 85.785156 54.90625 84.464844 53.289062 84.464844 C 51.671875 84.464844 50.355469 85.785156 50.355469 87.40625 C 50.355469 89.027344 51.671875 90.34375 53.289062 90.34375 C 54.90625 90.34375 56.222656 89.027344 56.222656 87.40625"/><path fill="#C9D8FD" d="M 56.222656 104.144531 C 56.222656 102.523438 54.90625 101.203125 53.289062 101.203125 C 51.671875 101.203125 50.355469 102.523438 50.355469 104.144531 C 50.355469 105.765625 51.671875 107.085938 53.289062 107.085938 C 54.90625 107.085938 56.222656 105.765625 56.222656 104.144531"/><g clip-path="url(#k)"><path fill="#C9D8FD" d="M 39.527344 3.703125 C 39.527344 2.082031 38.210938 0.765625 36.59375 0.765625 C 34.976562 0.765625 33.660156 2.082031 33.660156 3.703125 C 33.660156 5.324219 34.976562 6.644531 36.59375 6.644531 C 38.210938 6.644531 39.527344 5.324219 39.527344 3.703125"/></g><path fill="#C9D8FD" d="M 39.527344 20.445312 C 39.527344 18.824219 38.210938 17.503906 36.59375 17.503906 C 34.976562 17.503906 33.660156 18.824219 33.660156 20.445312 C 33.660156 22.066406 34.976562 23.382812 36.59375 23.382812 C 38.210938 23.382812 39.527344 22.066406 39.527344 20.445312"/><path fill="#C9D8FD" d="M 39.527344 37.183594 C 39.527344 35.5625 38.210938 34.242188 36.59375 34.242188 C 34.976562 34.242188 33.660156 35.5625 33.660156 37.183594 C 33.660156 38.804688 34.976562 40.125 36.59375 40.125 C 38.210938 40.125 39.527344 38.804688 39.527344 37.183594"/><path fill="#C9D8FD" d="M 39.527344 53.925781 C 39.527344 52.304688 38.210938 50.984375 36.59375 50.984375 C 34.976562 50.984375 33.660156 52.304688 33.660156 53.925781 C 33.660156 55.546875 34.976562 56.863281 36.59375 56.863281 C 38.210938 56.863281 39.527344 55.546875 39.527344 53.925781"/><path fill="#C9D8FD" d="M 39.527344 70.664062 C 39.527344 69.042969 38.210938 67.726562 36.59375 67.726562 C 34.976562 67.726562 33.660156 69.042969 33.660156 70.664062 C 33.660156 72.285156 34.976562 73.605469 36.59375 73.605469 C 38.210938 73.605469 39.527344 72.285156 39.527344 70.664062"/><path fill="#C9D8FD" d="M 39.527344 87.40625 C 39.527344 85.785156 38.210938 84.464844 36.59375 84.464844 C 34.976562 84.464844 33.660156 85.785156 33.660156 87.40625 C 33.660156 89.027344 34.976562 90.34375 36.59375 90.34375 C 38.210938 90.34375 39.527344 89.027344 39.527344 87.40625"/><path fill="#C9D8FD" d="M 39.527344 104.144531 C 39.527344 102.523438 38.210938 101.203125 36.59375 101.203125 C 34.976562 101.203125 33.660156 102.523438 33.660156 104.144531 C 33.660156 105.765625 34.976562 107.085938 36.59375 107.085938 C 38.210938 107.085938 39.527344 105.765625 39.527344 104.144531"/><g clip-path="url(#l)"><path fill="#C9D8FD" d="M 22.9375 3.703125 C 22.9375 2.082031 21.621094 0.765625 20.003906 0.765625 C 18.386719 0.765625 17.070312 2.082031 17.070312 3.703125 C 17.070312 5.324219 18.386719 6.644531 20.003906 6.644531 C 21.621094 6.644531 22.9375 5.324219 22.9375 3.703125"/></g><path fill="#C9D8FD" d="M 22.9375 20.445312 C 22.9375 18.824219 21.621094 17.503906 20.003906 17.503906 C 18.386719 17.503906 17.070312 18.824219 17.070312 20.445312 C 17.070312 22.066406 18.386719 23.382812 20.003906 23.382812 C 21.621094 23.382812 22.9375 22.066406 22.9375 20.445312"/><path fill="#C9D8FD" d="M 22.9375 37.183594 C 22.9375 35.5625 21.621094 34.242188 20.003906 34.242188 C 18.386719 34.242188 17.070312 35.5625 17.070312 37.183594 C 17.070312 38.804688 18.386719 40.125 20.003906 40.125 C 21.621094 40.125 22.9375 38.804688 22.9375 37.183594"/><path fill="#C9D8FD" d="M 22.9375 53.925781 C 22.9375 52.304688 21.621094 50.984375 20.003906 50.984375 C 18.386719 50.984375 17.070312 52.304688 17.070312 53.925781 C 17.070312 55.546875 18.386719 56.863281 20.003906 56.863281 C 21.621094 56.863281 22.9375 55.546875 22.9375 53.925781"/><path fill="#C9D8FD" d="M 22.9375 70.664062 C 22.9375 69.042969 21.621094 67.726562 20.003906 67.726562 C 18.386719 67.726562 17.070312 69.042969 17.070312 70.664062 C 17.070312 72.285156 18.386719 73.605469 20.003906 73.605469 C 21.621094 73.605469 22.9375 72.285156 22.9375 70.664062"/><path fill="#C9D8FD" d="M 22.9375 87.40625 C 22.9375 85.785156 21.621094 84.464844 20.003906 84.464844 C 18.386719 84.464844 17.070312 85.785156 17.070312 87.40625 C 17.070312 89.027344 18.386719 90.34375 20.003906 90.34375 C 21.621094 90.34375 22.9375 89.027344 22.9375 87.40625"/><path fill="#C9D8FD" d="M 22.9375 104.144531 C 22.9375 102.523438 21.621094 101.203125 20.003906 101.203125 C 18.386719 101.203125 17.070312 102.523438 17.070312 104.144531 C 17.070312 105.765625 18.386719 107.085938 20.003906 107.085938 C 21.621094 107.085938 22.9375 105.765625 22.9375 104.144531"/><g clip-path="url(#m)"><path fill="#C9D8FD" d="M 6.136719 3.703125 C 6.136719 2.082031 4.820312 0.765625 3.203125 0.765625 C 1.585938 0.765625 0.269531 2.082031 0.269531 3.703125 C 0.269531 5.324219 1.585938 6.644531 3.203125 6.644531 C 4.820312 6.644531 6.136719 5.324219 6.136719 3.703125"/></g><g clip-path="url(#n)"><path fill="#C9D8FD" d="M 6.136719 20.445312 C 6.136719 18.824219 4.820312 17.503906 3.203125 17.503906 C 1.585938 17.503906 0.269531 18.824219 0.269531 20.445312 C 0.269531 22.066406 1.585938 23.382812 3.203125 23.382812 C 4.820312 23.382812 6.136719 22.066406 6.136719 20.445312"/></g><g clip-path="url(#o)"><path fill="#C9D8FD" d="M 6.136719 37.183594 C 6.136719 35.5625 4.820312 34.242188 3.203125 34.242188 C 1.585938 34.242188 0.269531 35.5625 0.269531 37.183594 C 0.269531 38.804688 1.585938 40.125 3.203125 40.125 C 4.820312 40.125 6.136719 38.804688 6.136719 37.183594"/></g><g clip-path="url(#p)"><path fill="#C9D8FD" d="M 6.136719 53.925781 C 6.136719 52.304688 4.820312 50.984375 3.203125 50.984375 C 1.585938 50.984375 0.269531 52.304688 0.269531 53.925781 C 0.269531 55.546875 1.585938 56.863281 3.203125 56.863281 C 4.820312 56.863281 6.136719 55.546875 6.136719 53.925781"/></g><g clip-path="url(#q)"><path fill="#C9D8FD" d="M 6.136719 70.664062 C 6.136719 69.042969 4.820312 67.726562 3.203125 67.726562 C 1.585938 67.726562 0.269531 69.042969 0.269531 70.664062 C 0.269531 72.285156 1.585938 73.605469 3.203125 73.605469 C 4.820312 73.605469 6.136719 72.285156 6.136719 70.664062"/></g><g clip-path="url(#r)"><path fill="#C9D8FD" d="M 6.136719 87.40625 C 6.136719 85.785156 4.820312 84.464844 3.203125 84.464844 C 1.585938 84.464844 0.269531 85.785156 0.269531 87.40625 C 0.269531 89.027344 1.585938 90.34375 3.203125 90.34375 C 4.820312 90.34375 6.136719 89.027344 6.136719 87.40625"/></g><g clip-path="url(#s)"><path fill="#C9D8FD" d="M 6.136719 104.144531 C 6.136719 102.523438 4.820312 101.203125 3.203125 101.203125 C 1.585938 101.203125 0.269531 102.523438 0.269531 104.144531 C 0.269531 105.765625 1.585938 107.085938 3.203125 107.085938 C 4.820312 107.085938 6.136719 105.765625 6.136719 104.144531"/></g><g clip-path="url(#t)"><path fill="#C9D8FD" d="M 106.203125 120.878906 C 106.203125 119.257812 104.886719 117.9375 103.269531 117.9375 C 101.652344 117.9375 100.339844 119.257812 100.339844 120.878906 C 100.339844 122.5 101.652344 123.820312 103.269531 123.820312 C 104.886719 123.820312 106.203125 122.5 106.203125 120.878906"/></g><g clip-path="url(#u)"><path fill="#C9D8FD" d="M 106.203125 137.621094 C 106.203125 135.996094 104.886719 134.679688 103.269531 134.679688 C 101.652344 134.679688 100.339844 135.996094 100.339844 137.621094 C 100.339844 139.242188 101.652344 140.558594 103.269531 140.558594 C 104.886719 140.558594 106.203125 139.242188 106.203125 137.621094"/></g><g clip-path="url(#v)"><path fill="#C9D8FD" d="M 106.203125 154.359375 C 106.203125 152.738281 104.886719 151.417969 103.269531 151.417969 C 101.652344 151.417969 100.339844 152.738281 100.339844 154.359375 C 100.339844 155.980469 101.652344 157.300781 103.269531 157.300781 C 104.886719 157.300781 106.203125 155.980469 106.203125 154.359375"/></g><g clip-path="url(#w)"><path fill="#C9D8FD" d="M 106.203125 171.101562 C 106.203125 169.480469 104.886719 168.160156 103.269531 168.160156 C 101.652344 168.160156 100.339844 169.480469 100.339844 171.101562 C 100.339844 172.722656 101.652344 174.039062 103.269531 174.039062 C 104.886719 174.039062 106.203125 172.722656 106.203125 171.101562"/></g><g clip-path="url(#x)"><path fill="#C9D8FD" d="M 106.203125 187.839844 C 106.203125 186.21875 104.886719 184.898438 103.269531 184.898438 C 101.652344 184.898438 100.339844 186.21875 100.339844 187.839844 C 100.339844 189.460938 101.652344 190.78125 103.269531 190.78125 C 104.886719 190.78125 106.203125 189.460938 106.203125 187.839844"/></g><g clip-path="url(#y)"><path fill="#C9D8FD" d="M 106.203125 204.582031 C 106.203125 202.957031 104.886719 201.640625 103.269531 201.640625 C 101.652344 201.640625 100.339844 202.957031 100.339844 204.582031 C 100.339844 206.203125 101.652344 207.523438 103.269531 207.523438 C 104.886719 207.523438 106.203125 206.203125 106.203125 204.582031"/></g><g clip-path="url(#z)"><path fill="#C9D8FD" d="M 100.339844 221.320312 C 100.339844 222.941406 101.652344 224.261719 103.269531 224.261719 C 104.886719 224.261719 106.203125 222.941406 106.203125 221.320312 C 106.203125 219.699219 104.886719 218.378906 103.269531 218.378906 C 101.652344 218.378906 100.339844 219.699219 100.339844 221.320312"/></g><path fill="#C9D8FD" d="M 89.507812 120.878906 C 89.507812 119.257812 88.191406 117.9375 86.574219 117.9375 C 84.960938 117.9375 83.644531 119.257812 83.644531 120.878906 C 83.644531 122.5 84.960938 123.820312 86.574219 123.820312 C 88.191406 123.820312 89.507812 122.5 89.507812 120.878906"/><path fill="#C9D8FD" d="M 89.507812 137.621094 C 89.507812 135.996094 88.191406 134.679688 86.574219 134.679688 C 84.960938 134.679688 83.644531 135.996094 83.644531 137.621094 C 83.644531 139.242188 84.960938 140.558594 86.574219 140.558594 C 88.191406 140.558594 89.507812 139.242188 89.507812 137.621094"/><path fill="#C9D8FD" d="M 89.507812 154.359375 C 89.507812 152.738281 88.191406 151.417969 86.574219 151.417969 C 84.960938 151.417969 83.644531 152.738281 83.644531 154.359375 C 83.644531 155.980469 84.960938 157.300781 86.574219 157.300781 C 88.191406 157.300781 89.507812 155.980469 89.507812 154.359375"/><path fill="#C9D8FD" d="M 89.507812 171.101562 C 89.507812 169.480469 88.191406 168.160156 86.574219 168.160156 C 84.960938 168.160156 83.644531 169.480469 83.644531 171.101562 C 83.644531 172.722656 84.960938 174.039062 86.574219 174.039062 C 88.191406 174.039062 89.507812 172.722656 89.507812 171.101562"/><path fill="#C9D8FD" d="M 89.507812 187.839844 C 89.507812 186.21875 88.191406 184.898438 86.574219 184.898438 C 84.960938 184.898438 83.644531 186.21875 83.644531 187.839844 C 83.644531 189.460938 84.960938 190.78125 86.574219 190.78125 C 88.191406 190.78125 89.507812 189.460938 89.507812 187.839844"/><path fill="#C9D8FD" d="M 89.507812 204.582031 C 89.507812 202.957031 88.191406 201.640625 86.574219 201.640625 C 84.960938 201.640625 83.644531 202.957031 83.644531 204.582031 C 83.644531 206.203125 84.960938 207.523438 86.574219 207.523438 C 88.191406 207.523438 89.507812 206.203125 89.507812 204.582031"/><g clip-path="url(#A)"><path fill="#C9D8FD" d="M 89.507812 221.320312 C 89.507812 219.699219 88.191406 218.378906 86.574219 218.378906 C 84.960938 218.378906 83.644531 219.699219 83.644531 221.320312 C 83.644531 222.941406 84.960938 224.261719 86.574219 224.261719 C 88.191406 224.261719 89.507812 222.941406 89.507812 221.320312"/></g><path fill="#C9D8FD" d="M 72.917969 120.878906 C 72.917969 119.257812 71.605469 117.9375 69.988281 117.9375 C 68.367188 117.9375 67.054688 119.257812 67.054688 120.878906 C 67.054688 122.5 68.367188 123.820312 69.988281 123.820312 C 71.605469 123.820312 72.917969 122.5 72.917969 120.878906"/><path fill="#C9D8FD" d="M 72.917969 137.621094 C 72.917969 135.996094 71.605469 134.679688 69.988281 134.679688 C 68.367188 134.679688 67.054688 135.996094 67.054688 137.621094 C 67.054688 139.242188 68.367188 140.558594 69.988281 140.558594 C 71.605469 140.558594 72.917969 139.242188 72.917969 137.621094"/><path fill="#C9D8FD" d="M 72.917969 154.359375 C 72.917969 152.738281 71.605469 151.417969 69.988281 151.417969 C 68.367188 151.417969 67.054688 152.738281 67.054688 154.359375 C 67.054688 155.980469 68.367188 157.300781 69.988281 157.300781 C 71.605469 157.300781 72.917969 155.980469 72.917969 154.359375"/><path fill="#C9D8FD" d="M 72.917969 171.101562 C 72.917969 169.480469 71.605469 168.160156 69.988281 168.160156 C 68.367188 168.160156 67.054688 169.480469 67.054688 171.101562 C 67.054688 172.722656 68.367188 174.039062 69.988281 174.039062 C 71.605469 174.039062 72.917969 172.722656 72.917969 171.101562"/><path fill="#C9D8FD" d="M 72.917969 187.839844 C 72.917969 186.21875 71.605469 184.898438 69.988281 184.898438 C 68.367188 184.898438 67.054688 186.21875 67.054688 187.839844 C 67.054688 189.460938 68.367188 190.78125 69.988281 190.78125 C 71.605469 190.78125 72.917969 189.460938 72.917969 187.839844"/><path fill="#C9D8FD" d="M 72.917969 204.582031 C 72.917969 202.957031 71.605469 201.640625 69.988281 201.640625 C 68.367188 201.640625 67.054688 202.957031 67.054688 204.582031 C 67.054688 206.203125 68.367188 207.523438 69.988281 207.523438 C 71.605469 207.523438 72.917969 206.203125 72.917969 204.582031"/><g clip-path="url(#B)"><path fill="#C9D8FD" d="M 72.917969 221.320312 C 72.917969 219.699219 71.605469 218.378906 69.988281 218.378906 C 68.367188 218.378906 67.054688 219.699219 67.054688 221.320312 C 67.054688 222.941406 68.367188 224.261719 69.988281 224.261719 C 71.605469 224.261719 72.917969 222.941406 72.917969 221.320312"/></g><path fill="#C9D8FD" d="M 56.222656 120.878906 C 56.222656 119.257812 54.90625 117.9375 53.289062 117.9375 C 51.671875 117.9375 50.355469 119.257812 50.355469 120.878906 C 50.355469 122.5 51.671875 123.820312 53.289062 123.820312 C 54.90625 123.820312 56.222656 122.5 56.222656 120.878906"/><path fill="#C9D8FD" d="M 56.222656 137.621094 C 56.222656 135.996094 54.90625 134.679688 53.289062 134.679688 C 51.671875 134.679688 50.355469 135.996094 50.355469 137.621094 C 50.355469 139.242188 51.671875 140.558594 53.289062 140.558594 C 54.90625 140.558594 56.222656 139.242188 56.222656 137.621094"/><path fill="#C9D8FD" d="M 56.222656 154.359375 C 56.222656 152.738281 54.90625 151.417969 53.289062 151.417969 C 51.671875 151.417969 50.355469 152.738281 50.355469 154.359375 C 50.355469 155.980469 51.671875 157.300781 53.289062 157.300781 C 54.90625 157.300781 56.222656 155.980469 56.222656 154.359375"/><path fill="#C9D8FD" d="M 56.222656 171.101562 C 56.222656 169.480469 54.90625 168.160156 53.289062 168.160156 C 51.671875 168.160156 50.355469 169.480469 50.355469 171.101562 C 50.355469 172.722656 51.671875 174.039062 53.289062 174.039062 C 54.90625 174.039062 56.222656 172.722656 56.222656 171.101562"/><path fill="#C9D8FD" d="M 56.222656 187.839844 C 56.222656 186.21875 54.90625 184.898438 53.289062 184.898438 C 51.671875 184.898438 50.355469 186.21875 50.355469 187.839844 C 50.355469 189.460938 51.671875 190.78125 53.289062 190.78125 C 54.90625 190.78125 56.222656 189.460938 56.222656 187.839844"/><path fill="#C9D8FD" d="M 56.222656 204.582031 C 56.222656 202.957031 54.90625 201.640625 53.289062 201.640625 C 51.671875 201.640625 50.355469 202.957031 50.355469 204.582031 C 50.355469 206.203125 51.671875 207.523438 53.289062 207.523438 C 54.90625 207.523438 56.222656 206.203125 56.222656 204.582031"/><g clip-path="url(#C)"><path fill="#C9D8FD" d="M 56.222656 221.320312 C 56.222656 219.699219 54.90625 218.378906 53.289062 218.378906 C 51.671875 218.378906 50.355469 219.699219 50.355469 221.320312 C 50.355469 222.941406 51.671875 224.261719 53.289062 224.261719 C 54.90625 224.261719 56.222656 222.941406 56.222656 221.320312"/></g><path fill="#C9D8FD" d="M 39.527344 120.878906 C 39.527344 119.257812 38.210938 117.9375 36.59375 117.9375 C 34.976562 117.9375 33.660156 119.257812 33.660156 120.878906 C 33.660156 122.5 34.976562 123.820312 36.59375 123.820312 C 38.210938 123.820312 39.527344 122.5 39.527344 120.878906"/><path fill="#C9D8FD" d="M 39.527344 137.621094 C 39.527344 135.996094 38.210938 134.679688 36.59375 134.679688 C 34.976562 134.679688 33.660156 135.996094 33.660156 137.621094 C 33.660156 139.242188 34.976562 140.558594 36.59375 140.558594 C 38.210938 140.558594 39.527344 139.242188 39.527344 137.621094"/><path fill="#C9D8FD" d="M 39.527344 154.359375 C 39.527344 152.738281 38.210938 151.417969 36.59375 151.417969 C 34.976562 151.417969 33.660156 152.738281 33.660156 154.359375 C 33.660156 155.980469 34.976562 157.300781 36.59375 157.300781 C 38.210938 157.300781 39.527344 155.980469 39.527344 154.359375"/><path fill="#C9D8FD" d="M 39.527344 171.101562 C 39.527344 169.480469 38.210938 168.160156 36.59375 168.160156 C 34.976562 168.160156 33.660156 169.480469 33.660156 171.101562 C 33.660156 172.722656 34.976562 174.039062 36.59375 174.039062 C 38.210938 174.039062 39.527344 172.722656 39.527344 171.101562"/><path fill="#C9D8FD" d="M 39.527344 187.839844 C 39.527344 186.21875 38.210938 184.898438 36.59375 184.898438 C 34.976562 184.898438 33.660156 186.21875 33.660156 187.839844 C 33.660156 189.460938 34.976562 190.78125 36.59375 190.78125 C 38.210938 190.78125 39.527344 189.460938 39.527344 187.839844"/><path fill="#C9D8FD" d="M 39.527344 204.582031 C 39.527344 202.957031 38.210938 201.640625 36.59375 201.640625 C 34.976562 201.640625 33.660156 202.957031 33.660156 204.582031 C 33.660156 206.203125 34.976562 207.523438 36.59375 207.523438 C 38.210938 207.523438 39.527344 206.203125 39.527344 204.582031"/><g clip-path="url(#D)"><path fill="#C9D8FD" d="M 39.527344 221.320312 C 39.527344 219.699219 38.210938 218.378906 36.59375 218.378906 C 34.976562 218.378906 33.660156 219.699219 33.660156 221.320312 C 33.660156 222.941406 34.976562 224.261719 36.59375 224.261719 C 38.210938 224.261719 39.527344 222.941406 39.527344 221.320312"/></g><path fill="#C9D8FD" d="M 22.9375 120.878906 C 22.9375 119.257812 21.621094 117.9375 20.003906 117.9375 C 18.386719 117.9375 17.070312 119.257812 17.070312 120.878906 C 17.070312 122.5 18.386719 123.820312 20.003906 123.820312 C 21.621094 123.820312 22.9375 122.5 22.9375 120.878906"/><path fill="#C9D8FD" d="M 22.9375 137.621094 C 22.9375 135.996094 21.621094 134.679688 20.003906 134.679688 C 18.386719 134.679688 17.070312 135.996094 17.070312 137.621094 C 17.070312 139.242188 18.386719 140.558594 20.003906 140.558594 C 21.621094 140.558594 22.9375 139.242188 22.9375 137.621094"/><path fill="#C9D8FD" d="M 22.9375 154.359375 C 22.9375 152.738281 21.621094 151.417969 20.003906 151.417969 C 18.386719 151.417969 17.070312 152.738281 17.070312 154.359375 C 17.070312 155.980469 18.386719 157.300781 20.003906 157.300781 C 21.621094 157.300781 22.9375 155.980469 22.9375 154.359375"/><path fill="#C9D8FD" d="M 22.9375 171.101562 C 22.9375 169.480469 21.621094 168.160156 20.003906 168.160156 C 18.386719 168.160156 17.070312 169.480469 17.070312 171.101562 C 17.070312 172.722656 18.386719 174.039062 20.003906 174.039062 C 21.621094 174.039062 22.9375 172.722656 22.9375 171.101562"/><path fill="#C9D8FD" d="M 22.9375 187.839844 C 22.9375 186.21875 21.621094 184.898438 20.003906 184.898438 C 18.386719 184.898438 17.070312 186.21875 17.070312 187.839844 C 17.070312 189.460938 18.386719 190.78125 20.003906 190.78125 C 21.621094 190.78125 22.9375 189.460938 22.9375 187.839844"/><path fill="#C9D8FD" d="M 22.9375 204.582031 C 22.9375 202.957031 21.621094 201.640625 20.003906 201.640625 C 18.386719 201.640625 17.070312 202.957031 17.070312 204.582031 C 17.070312 206.203125 18.386719 207.523438 20.003906 207.523438 C 21.621094 207.523438 22.9375 206.203125 22.9375 204.582031"/><g clip-path="url(#E)"><path fill="#C9D8FD" d="M 22.9375 221.320312 C 22.9375 219.699219 21.621094 218.378906 20.003906 218.378906 C 18.386719 218.378906 17.070312 219.699219 17.070312 221.320312 C 17.070312 222.941406 18.386719 224.261719 20.003906 224.261719 C 21.621094 224.261719 22.9375 222.941406 22.9375 221.320312"/></g><g clip-path="url(#F)"><path fill="#C9D8FD" d="M 6.136719 120.878906 C 6.136719 119.257812 4.820312 117.9375 3.203125 117.9375 C 1.585938 117.9375 0.269531 119.257812 0.269531 120.878906 C 0.269531 122.5 1.585938 123.820312 3.203125 123.820312 C 4.820312 123.820312 6.136719 122.5 6.136719 120.878906"/></g><g clip-path="url(#G)"><path fill="#C9D8FD" d="M 6.136719 137.621094 C 6.136719 135.996094 4.820312 134.679688 3.203125 134.679688 C 1.585938 134.679688 0.269531 135.996094 0.269531 137.621094 C 0.269531 139.242188 1.585938 140.558594 3.203125 140.558594 C 4.820312 140.558594 6.136719 139.242188 6.136719 137.621094"/></g><g clip-path="url(#H)"><path fill="#C9D8FD" d="M 6.136719 154.359375 C 6.136719 152.738281 4.820312 151.417969 3.203125 151.417969 C 1.585938 151.417969 0.269531 152.738281 0.269531 154.359375 C 0.269531 155.980469 1.585938 157.300781 3.203125 157.300781 C 4.820312 157.300781 6.136719 155.980469 6.136719 154.359375"/></g><g clip-path="url(#I)"><path fill="#C9D8FD" d="M 6.136719 171.101562 C 6.136719 169.480469 4.820312 168.160156 3.203125 168.160156 C 1.585938 168.160156 0.269531 169.480469 0.269531 171.101562 C 0.269531 172.722656 1.585938 174.039062 3.203125 174.039062 C 4.820312 174.039062 6.136719 172.722656 6.136719 171.101562"/></g><g clip-path="url(#J)"><path fill="#C9D8FD" d="M 6.136719 187.839844 C 6.136719 186.21875 4.820312 184.898438 3.203125 184.898438 C 1.585938 184.898438 0.269531 186.21875 0.269531 187.839844 C 0.269531 189.460938 1.585938 190.78125 3.203125 190.78125 C 4.820312 190.78125 6.136719 189.460938 6.136719 187.839844"/></g><g clip-path="url(#K)"><path fill="#C9D8FD" d="M 6.136719 204.582031 C 6.136719 202.957031 4.820312 201.640625 3.203125 201.640625 C 1.585938 201.640625 0.269531 202.957031 0.269531 204.582031 C 0.269531 206.203125 1.585938 207.523438 3.203125 207.523438 C 4.820312 207.523438 6.136719 206.203125 6.136719 204.582031"/></g><g clip-path="url(#L)"><path fill="#C9D8FD" d="M 6.136719 221.320312 C 6.136719 219.699219 4.820312 218.378906 3.203125 218.378906 C 1.585938 218.378906 0.269531 219.699219 0.269531 221.320312 C 0.269531 222.941406 1.585938 224.261719 3.203125 224.261719 C 4.820312 224.261719 6.136719 222.941406 6.136719 221.320312"/></g><g clip-path="url(#M)"><path fill="#C9D8FD" d="M 139.503906 3.703125 C 139.503906 2.082031 138.1875 0.765625 136.570312 0.765625 C 134.953125 0.765625 133.636719 2.082031 133.636719 3.703125 C 133.636719 5.324219 134.953125 6.644531 136.570312 6.644531 C 138.1875 6.644531 139.503906 5.324219 139.503906 3.703125"/></g><g clip-path="url(#N)"><path fill="#C9D8FD" d="M 139.503906 20.445312 C 139.503906 18.824219 138.1875 17.503906 136.570312 17.503906 C 134.953125 17.503906 133.636719 18.824219 133.636719 20.445312 C 133.636719 22.066406 134.953125 23.382812 136.570312 23.382812 C 138.1875 23.382812 139.503906 22.066406 139.503906 20.445312"/></g><g clip-path="url(#O)"><path fill="#C9D8FD" d="M 139.503906 37.183594 C 139.503906 35.5625 138.1875 34.242188 136.570312 34.242188 C 134.953125 34.242188 133.636719 35.5625 133.636719 37.183594 C 133.636719 38.804688 134.953125 40.125 136.570312 40.125 C 138.1875 40.125 139.503906 38.804688 139.503906 37.183594"/></g><g clip-path="url(#P)"><path fill="#C9D8FD" d="M 139.503906 53.925781 C 139.503906 52.304688 138.1875 50.984375 136.570312 50.984375 C 134.953125 50.984375 133.636719 52.304688 133.636719 53.925781 C 133.636719 55.546875 134.953125 56.863281 136.570312 56.863281 C 138.1875 56.863281 139.503906 55.546875 139.503906 53.925781"/></g><g clip-path="url(#Q)"><path fill="#C9D8FD" d="M 139.503906 70.664062 C 139.503906 69.042969 138.1875 67.726562 136.570312 67.726562 C 134.953125 67.726562 133.636719 69.042969 133.636719 70.664062 C 133.636719 72.285156 134.953125 73.605469 136.570312 73.605469 C 138.1875 73.605469 139.503906 72.285156 139.503906 70.664062"/></g><g clip-path="url(#R)"><path fill="#C9D8FD" d="M 139.503906 87.40625 C 139.503906 85.785156 138.1875 84.464844 136.570312 84.464844 C 134.953125 84.464844 133.636719 85.785156 133.636719 87.40625 C 133.636719 89.027344 134.953125 90.34375 136.570312 90.34375 C 138.1875 90.34375 139.503906 89.027344 139.503906 87.40625"/></g><g clip-path="url(#S)"><path fill="#C9D8FD" d="M 139.503906 104.144531 C 139.503906 102.523438 138.1875 101.203125 136.570312 101.203125 C 134.953125 101.203125 133.636719 102.523438 133.636719 104.144531 C 133.636719 105.765625 134.953125 107.085938 136.570312 107.085938 C 138.1875 107.085938 139.503906 105.765625 139.503906 104.144531"/></g><g clip-path="url(#T)"><path fill="#C9D8FD" d="M 122.808594 3.703125 C 122.808594 2.082031 121.492188 0.765625 119.875 0.765625 C 118.257812 0.765625 116.941406 2.082031 116.941406 3.703125 C 116.941406 5.324219 118.257812 6.644531 119.875 6.644531 C 121.492188 6.644531 122.808594 5.324219 122.808594 3.703125"/></g><path fill="#C9D8FD" d="M 122.808594 20.445312 C 122.808594 18.824219 121.492188 17.503906 119.875 17.503906 C 118.257812 17.503906 116.941406 18.824219 116.941406 20.445312 C 116.941406 22.066406 118.257812 23.382812 119.875 23.382812 C 121.492188 23.382812 122.808594 22.066406 122.808594 20.445312"/><path fill="#C9D8FD" d="M 122.808594 37.183594 C 122.808594 35.5625 121.492188 34.242188 119.875 34.242188 C 118.257812 34.242188 116.941406 35.5625 116.941406 37.183594 C 116.941406 38.804688 118.257812 40.125 119.875 40.125 C 121.492188 40.125 122.808594 38.804688 122.808594 37.183594"/><path fill="#C9D8FD" d="M 122.808594 53.925781 C 122.808594 52.304688 121.492188 50.984375 119.875 50.984375 C 118.257812 50.984375 116.941406 52.304688 116.941406 53.925781 C 116.941406 55.546875 118.257812 56.863281 119.875 56.863281 C 121.492188 56.863281 122.808594 55.546875 122.808594 53.925781"/><path fill="#C9D8FD" d="M 122.808594 70.664062 C 122.808594 69.042969 121.492188 67.726562 119.875 67.726562 C 118.257812 67.726562 116.941406 69.042969 116.941406 70.664062 C 116.941406 72.285156 118.257812 73.605469 119.875 73.605469 C 121.492188 73.605469 122.808594 72.285156 122.808594 70.664062"/><path fill="#C9D8FD" d="M 122.808594 87.40625 C 122.808594 85.785156 121.492188 84.464844 119.875 84.464844 C 118.257812 84.464844 116.941406 85.785156 116.941406 87.40625 C 116.941406 89.027344 118.257812 90.34375 119.875 90.34375 C 121.492188 90.34375 122.808594 89.027344 122.808594 87.40625"/><path fill="#C9D8FD" d="M 122.808594 104.144531 C 122.808594 102.523438 121.492188 101.203125 119.875 101.203125 C 118.257812 101.203125 116.941406 102.523438 116.941406 104.144531 C 116.941406 105.765625 118.257812 107.085938 119.875 107.085938 C 121.492188 107.085938 122.808594 105.765625 122.808594 104.144531"/><g clip-path="url(#U)"><path fill="#C9D8FD" d="M 106.21875 3.703125 C 106.21875 2.082031 104.902344 0.765625 103.285156 0.765625 C 101.667969 0.765625 100.351562 2.082031 100.351562 3.703125 C 100.351562 5.324219 101.667969 6.644531 103.285156 6.644531 C 104.902344 6.644531 106.21875 5.324219 106.21875 3.703125"/></g><path fill="#C9D8FD" d="M 106.21875 20.445312 C 106.21875 18.824219 104.902344 17.503906 103.285156 17.503906 C 101.667969 17.503906 100.351562 18.824219 100.351562 20.445312 C 100.351562 22.066406 101.667969 23.382812 103.285156 23.382812 C 104.902344 23.382812 106.21875 22.066406 106.21875 20.445312"/><path fill="#C9D8FD" d="M 106.21875 37.183594 C 106.21875 35.5625 104.902344 34.242188 103.285156 34.242188 C 101.667969 34.242188 100.351562 35.5625 100.351562 37.183594 C 100.351562 38.804688 101.667969 40.125 103.285156 40.125 C 104.902344 40.125 106.21875 38.804688 106.21875 37.183594"/><path fill="#C9D8FD" d="M 106.21875 53.925781 C 106.21875 52.304688 104.902344 50.984375 103.285156 50.984375 C 101.667969 50.984375 100.351562 52.304688 100.351562 53.925781 C 100.351562 55.546875 101.667969 56.863281 103.285156 56.863281 C 104.902344 56.863281 106.21875 55.546875 106.21875 53.925781"/><path fill="#C9D8FD" d="M 106.21875 70.664062 C 106.21875 69.042969 104.902344 67.726562 103.285156 67.726562 C 101.667969 67.726562 100.351562 69.042969 100.351562 70.664062 C 100.351562 72.285156 101.667969 73.605469 103.285156 73.605469 C 104.902344 73.605469 106.21875 72.285156 106.21875 70.664062"/><path fill="#C9D8FD" d="M 106.21875 87.40625 C 106.21875 85.785156 104.902344 84.464844 103.285156 84.464844 C 101.667969 84.464844 100.351562 85.785156 100.351562 87.40625 C 100.351562 89.027344 101.667969 90.34375 103.285156 90.34375 C 104.902344 90.34375 106.21875 89.027344 106.21875 87.40625"/><path fill="#C9D8FD" d="M 106.21875 104.144531 C 106.21875 102.523438 104.902344 101.203125 103.285156 101.203125 C 101.667969 101.203125 100.351562 102.523438 100.351562 104.144531 C 100.351562 105.765625 101.667969 107.085938 103.285156 107.085938 C 104.902344 107.085938 106.21875 105.765625 106.21875 104.144531"/><g clip-path="url(#V)"><path fill="#C9D8FD" d="M 89.519531 3.703125 C 89.519531 2.082031 88.203125 0.765625 86.585938 0.765625 C 84.96875 0.765625 83.65625 2.082031 83.65625 3.703125 C 83.65625 5.324219 84.96875 6.644531 86.585938 6.644531 C 88.203125 6.644531 89.519531 5.324219 89.519531 3.703125"/></g><path fill="#C9D8FD" d="M 89.519531 20.445312 C 89.519531 18.824219 88.203125 17.503906 86.585938 17.503906 C 84.96875 17.503906 83.65625 18.824219 83.65625 20.445312 C 83.65625 22.066406 84.96875 23.382812 86.585938 23.382812 C 88.203125 23.382812 89.519531 22.066406 89.519531 20.445312"/><path fill="#C9D8FD" d="M 89.519531 37.183594 C 89.519531 35.5625 88.203125 34.242188 86.585938 34.242188 C 84.96875 34.242188 83.65625 35.5625 83.65625 37.183594 C 83.65625 38.804688 84.96875 40.125 86.585938 40.125 C 88.203125 40.125 89.519531 38.804688 89.519531 37.183594"/><path fill="#C9D8FD" d="M 89.519531 53.925781 C 89.519531 52.304688 88.203125 50.984375 86.585938 50.984375 C 84.96875 50.984375 83.65625 52.304688 83.65625 53.925781 C 83.65625 55.546875 84.96875 56.863281 86.585938 56.863281 C 88.203125 56.863281 89.519531 55.546875 89.519531 53.925781"/><path fill="#C9D8FD" d="M 89.519531 70.664062 C 89.519531 69.042969 88.203125 67.726562 86.585938 67.726562 C 84.96875 67.726562 83.65625 69.042969 83.65625 70.664062 C 83.65625 72.285156 84.96875 73.605469 86.585938 73.605469 C 88.203125 73.605469 89.519531 72.285156 89.519531 70.664062"/><path fill="#C9D8FD" d="M 89.519531 87.40625 C 89.519531 85.785156 88.203125 84.464844 86.585938 84.464844 C 84.96875 84.464844 83.65625 85.785156 83.65625 87.40625 C 83.65625 89.027344 84.96875 90.34375 86.585938 90.34375 C 88.203125 90.34375 89.519531 89.027344 89.519531 87.40625"/><path fill="#C9D8FD" d="M 89.519531 104.144531 C 89.519531 102.523438 88.203125 101.203125 86.585938 101.203125 C 84.96875 101.203125 83.65625 102.523438 83.65625 104.144531 C 83.65625 105.765625 84.96875 107.085938 86.585938 107.085938 C 88.203125 107.085938 89.519531 105.765625 89.519531 104.144531"/><g clip-path="url(#W)"><path fill="#C9D8FD" d="M 72.828125 3.703125 C 72.828125 2.082031 71.511719 0.765625 69.894531 0.765625 C 68.277344 0.765625 66.960938 2.082031 66.960938 3.703125 C 66.960938 5.324219 68.277344 6.644531 69.894531 6.644531 C 71.511719 6.644531 72.828125 5.324219 72.828125 3.703125"/></g><path fill="#C9D8FD" d="M 72.828125 20.445312 C 72.828125 18.824219 71.511719 17.503906 69.894531 17.503906 C 68.277344 17.503906 66.960938 18.824219 66.960938 20.445312 C 66.960938 22.066406 68.277344 23.382812 69.894531 23.382812 C 71.511719 23.382812 72.828125 22.066406 72.828125 20.445312"/><path fill="#C9D8FD" d="M 72.828125 37.183594 C 72.828125 35.5625 71.511719 34.242188 69.894531 34.242188 C 68.277344 34.242188 66.960938 35.5625 66.960938 37.183594 C 66.960938 38.804688 68.277344 40.125 69.894531 40.125 C 71.511719 40.125 72.828125 38.804688 72.828125 37.183594"/><path fill="#C9D8FD" d="M 72.828125 53.925781 C 72.828125 52.304688 71.511719 50.984375 69.894531 50.984375 C 68.277344 50.984375 66.960938 52.304688 66.960938 53.925781 C 66.960938 55.546875 68.277344 56.863281 69.894531 56.863281 C 71.511719 56.863281 72.828125 55.546875 72.828125 53.925781"/><path fill="#C9D8FD" d="M 72.828125 70.664062 C 72.828125 69.042969 71.511719 67.726562 69.894531 67.726562 C 68.277344 67.726562 66.960938 69.042969 66.960938 70.664062 C 66.960938 72.285156 68.277344 73.605469 69.894531 73.605469 C 71.511719 73.605469 72.828125 72.285156 72.828125 70.664062"/><path fill="#C9D8FD" d="M 72.828125 87.40625 C 72.828125 85.785156 71.511719 84.464844 69.894531 84.464844 C 68.277344 84.464844 66.960938 85.785156 66.960938 87.40625 C 66.960938 89.027344 68.277344 90.34375 69.894531 90.34375 C 71.511719 90.34375 72.828125 89.027344 72.828125 87.40625"/><path fill="#C9D8FD" d="M 72.828125 104.144531 C 72.828125 102.523438 71.511719 101.203125 69.894531 101.203125 C 68.277344 101.203125 66.960938 102.523438 66.960938 104.144531 C 66.960938 105.765625 68.277344 107.085938 69.894531 107.085938 C 71.511719 107.085938 72.828125 105.765625 72.828125 104.144531"/><g clip-path="url(#X)"><path fill="#C9D8FD" d="M 56.238281 3.703125 C 56.238281 2.082031 54.921875 0.765625 53.304688 0.765625 C 51.6875 0.765625 50.371094 2.082031 50.371094 3.703125 C 50.371094 5.324219 51.6875 6.644531 53.304688 6.644531 C 54.921875 6.644531 56.238281 5.324219 56.238281 3.703125"/></g><path fill="#C9D8FD" d="M 56.238281 20.445312 C 56.238281 18.824219 54.921875 17.503906 53.304688 17.503906 C 51.6875 17.503906 50.371094 18.824219 50.371094 20.445312 C 50.371094 22.066406 51.6875 23.382812 53.304688 23.382812 C 54.921875 23.382812 56.238281 22.066406 56.238281 20.445312"/><path fill="#C9D8FD" d="M 56.238281 37.183594 C 56.238281 35.5625 54.921875 34.242188 53.304688 34.242188 C 51.6875 34.242188 50.371094 35.5625 50.371094 37.183594 C 50.371094 38.804688 51.6875 40.125 53.304688 40.125 C 54.921875 40.125 56.238281 38.804688 56.238281 37.183594"/><path fill="#C9D8FD" d="M 56.238281 53.925781 C 56.238281 52.304688 54.921875 50.984375 53.304688 50.984375 C 51.6875 50.984375 50.371094 52.304688 50.371094 53.925781 C 50.371094 55.546875 51.6875 56.863281 53.304688 56.863281 C 54.921875 56.863281 56.238281 55.546875 56.238281 53.925781"/><path fill="#C9D8FD" d="M 56.238281 70.664062 C 56.238281 69.042969 54.921875 67.726562 53.304688 67.726562 C 51.6875 67.726562 50.371094 69.042969 50.371094 70.664062 C 50.371094 72.285156 51.6875 73.605469 53.304688 73.605469 C 54.921875 73.605469 56.238281 72.285156 56.238281 70.664062"/><path fill="#C9D8FD" d="M 56.238281 87.40625 C 56.238281 85.785156 54.921875 84.464844 53.304688 84.464844 C 51.6875 84.464844 50.371094 85.785156 50.371094 87.40625 C 50.371094 89.027344 51.6875 90.34375 53.304688 90.34375 C 54.921875 90.34375 56.238281 89.027344 56.238281 87.40625"/><path fill="#C9D8FD" d="M 56.238281 104.144531 C 56.238281 102.523438 54.921875 101.203125 53.304688 101.203125 C 51.6875 101.203125 50.371094 102.523438 50.371094 104.144531 C 50.371094 105.765625 51.6875 107.085938 53.304688 107.085938 C 54.921875 107.085938 56.238281 105.765625 56.238281 104.144531"/><g clip-path="url(#Y)"><path fill="#C9D8FD" d="M 39.433594 3.703125 C 39.433594 2.082031 38.117188 0.765625 36.5 0.765625 C 34.882812 0.765625 33.570312 2.082031 33.570312 3.703125 C 33.570312 5.324219 34.882812 6.644531 36.5 6.644531 C 38.117188 6.644531 39.433594 5.324219 39.433594 3.703125"/></g><g clip-path="url(#Z)"><path fill="#C9D8FD" d="M 39.433594 20.445312 C 39.433594 18.824219 38.117188 17.503906 36.5 17.503906 C 34.882812 17.503906 33.570312 18.824219 33.570312 20.445312 C 33.570312 22.066406 34.882812 23.382812 36.5 23.382812 C 38.117188 23.382812 39.433594 22.066406 39.433594 20.445312"/></g><g clip-path="url(#aa)"><path fill="#C9D8FD" d="M 39.433594 37.183594 C 39.433594 35.5625 38.117188 34.242188 36.5 34.242188 C 34.882812 34.242188 33.570312 35.5625 33.570312 37.183594 C 33.570312 38.804688 34.882812 40.125 36.5 40.125 C 38.117188 40.125 39.433594 38.804688 39.433594 37.183594"/></g><g clip-path="url(#ab)"><path fill="#C9D8FD" d="M 39.433594 53.925781 C 39.433594 52.304688 38.117188 50.984375 36.5 50.984375 C 34.882812 50.984375 33.570312 52.304688 33.570312 53.925781 C 33.570312 55.546875 34.882812 56.863281 36.5 56.863281 C 38.117188 56.863281 39.433594 55.546875 39.433594 53.925781"/></g><g clip-path="url(#ac)"><path fill="#C9D8FD" d="M 39.433594 70.664062 C 39.433594 69.042969 38.117188 67.726562 36.5 67.726562 C 34.882812 67.726562 33.570312 69.042969 33.570312 70.664062 C 33.570312 72.285156 34.882812 73.605469 36.5 73.605469 C 38.117188 73.605469 39.433594 72.285156 39.433594 70.664062"/></g><g clip-path="url(#ad)"><path fill="#C9D8FD" d="M 39.433594 87.40625 C 39.433594 85.785156 38.117188 84.464844 36.5 84.464844 C 34.882812 84.464844 33.570312 85.785156 33.570312 87.40625 C 33.570312 89.027344 34.882812 90.34375 36.5 90.34375 C 38.117188 90.34375 39.433594 89.027344 39.433594 87.40625"/></g><g clip-path="url(#ae)"><path fill="#C9D8FD" d="M 39.433594 104.144531 C 39.433594 102.523438 38.117188 101.203125 36.5 101.203125 C 34.882812 101.203125 33.570312 102.523438 33.570312 104.144531 C 33.570312 105.765625 34.882812 107.085938 36.5 107.085938 C 38.117188 107.085938 39.433594 105.765625 39.433594 104.144531"/></g><g clip-path="url(#af)"><path fill="#C9D8FD" d="M 139.503906 120.878906 C 139.503906 119.257812 138.1875 117.9375 136.570312 117.9375 C 134.953125 117.9375 133.636719 119.257812 133.636719 120.878906 C 133.636719 122.5 134.953125 123.820312 136.570312 123.820312 C 138.1875 123.820312 139.503906 122.5 139.503906 120.878906"/></g><g clip-path="url(#ag)"><path fill="#C9D8FD" d="M 139.503906 137.621094 C 139.503906 135.996094 138.1875 134.679688 136.570312 134.679688 C 134.953125 134.679688 133.636719 135.996094 133.636719 137.621094 C 133.636719 139.242188 134.953125 140.558594 136.570312 140.558594 C 138.1875 140.558594 139.503906 139.242188 139.503906 137.621094"/></g><g clip-path="url(#ah)"><path fill="#C9D8FD" d="M 139.503906 154.359375 C 139.503906 152.738281 138.1875 151.417969 136.570312 151.417969 C 134.953125 151.417969 133.636719 152.738281 133.636719 154.359375 C 133.636719 155.980469 134.953125 157.300781 136.570312 157.300781 C 138.1875 157.300781 139.503906 155.980469 139.503906 154.359375"/></g><g clip-path="url(#ai)"><path fill="#C9D8FD" d="M 139.503906 171.101562 C 139.503906 169.480469 138.1875 168.160156 136.570312 168.160156 C 134.953125 168.160156 133.636719 169.480469 133.636719 171.101562 C 133.636719 172.722656 134.953125 174.039062 136.570312 174.039062 C 138.1875 174.039062 139.503906 172.722656 139.503906 171.101562"/></g><g clip-path="url(#aj)"><path fill="#C9D8FD" d="M 139.503906 187.839844 C 139.503906 186.21875 138.1875 184.898438 136.570312 184.898438 C 134.953125 184.898438 133.636719 186.21875 133.636719 187.839844 C 133.636719 189.460938 134.953125 190.78125 136.570312 190.78125 C 138.1875 190.78125 139.503906 189.460938 139.503906 187.839844"/></g><g clip-path="url(#ak)"><path fill="#C9D8FD" d="M 139.503906 204.582031 C 139.503906 202.957031 138.1875 201.640625 136.570312 201.640625 C 134.953125 201.640625 133.636719 202.957031 133.636719 204.582031 C 133.636719 206.203125 134.953125 207.523438 136.570312 207.523438 C 138.1875 207.523438 139.503906 206.203125 139.503906 204.582031"/></g><g clip-path="url(#al)"><path fill="#C9D8FD" d="M 133.636719 221.320312 C 133.636719 222.941406 134.953125 224.261719 136.570312 224.261719 C 138.1875 224.261719 139.503906 222.941406 139.503906 221.320312 C 139.503906 219.699219 138.1875 218.378906 136.570312 218.378906 C 134.953125 218.378906 133.636719 219.699219 133.636719 221.320312"/></g><path fill="#C9D8FD" d="M 122.808594 120.878906 C 122.808594 119.257812 121.492188 117.9375 119.875 117.9375 C 118.257812 117.9375 116.941406 119.257812 116.941406 120.878906 C 116.941406 122.5 118.257812 123.820312 119.875 123.820312 C 121.492188 123.820312 122.808594 122.5 122.808594 120.878906"/><path fill="#C9D8FD" d="M 122.808594 137.621094 C 122.808594 135.996094 121.492188 134.679688 119.875 134.679688 C 118.257812 134.679688 116.941406 135.996094 116.941406 137.621094 C 116.941406 139.242188 118.257812 140.558594 119.875 140.558594 C 121.492188 140.558594 122.808594 139.242188 122.808594 137.621094"/><path fill="#C9D8FD" d="M 122.808594 154.359375 C 122.808594 152.738281 121.492188 151.417969 119.875 151.417969 C 118.257812 151.417969 116.941406 152.738281 116.941406 154.359375 C 116.941406 155.980469 118.257812 157.300781 119.875 157.300781 C 121.492188 157.300781 122.808594 155.980469 122.808594 154.359375"/><path fill="#C9D8FD" d="M 122.808594 171.101562 C 122.808594 169.480469 121.492188 168.160156 119.875 168.160156 C 118.257812 168.160156 116.941406 169.480469 116.941406 171.101562 C 116.941406 172.722656 118.257812 174.039062 119.875 174.039062 C 121.492188 174.039062 122.808594 172.722656 122.808594 171.101562"/><path fill="#C9D8FD" d="M 122.808594 187.839844 C 122.808594 186.21875 121.492188 184.898438 119.875 184.898438 C 118.257812 184.898438 116.941406 186.21875 116.941406 187.839844 C 116.941406 189.460938 118.257812 190.78125 119.875 190.78125 C 121.492188 190.78125 122.808594 189.460938 122.808594 187.839844"/><path fill="#C9D8FD" d="M 122.808594 204.582031 C 122.808594 202.957031 121.492188 201.640625 119.875 201.640625 C 118.257812 201.640625 116.941406 202.957031 116.941406 204.582031 C 116.941406 206.203125 118.257812 207.523438 119.875 207.523438 C 121.492188 207.523438 122.808594 206.203125 122.808594 204.582031"/><g clip-path="url(#am)"><path fill="#C9D8FD" d="M 122.808594 221.320312 C 122.808594 219.699219 121.492188 218.378906 119.875 218.378906 C 118.257812 218.378906 116.941406 219.699219 116.941406 221.320312 C 116.941406 222.941406 118.257812 224.261719 119.875 224.261719 C 121.492188 224.261719 122.808594 222.941406 122.808594 221.320312"/></g><path fill="#C9D8FD" d="M 106.21875 120.878906 C 106.21875 119.257812 104.902344 117.9375 103.285156 117.9375 C 101.667969 117.9375 100.351562 119.257812 100.351562 120.878906 C 100.351562 122.5 101.667969 123.820312 103.285156 123.820312 C 104.902344 123.820312 106.21875 122.5 106.21875 120.878906"/><path fill="#C9D8FD" d="M 106.21875 137.621094 C 106.21875 135.996094 104.902344 134.679688 103.285156 134.679688 C 101.667969 134.679688 100.351562 135.996094 100.351562 137.621094 C 100.351562 139.242188 101.667969 140.558594 103.285156 140.558594 C 104.902344 140.558594 106.21875 139.242188 106.21875 137.621094"/><path fill="#C9D8FD" d="M 106.21875 154.359375 C 106.21875 152.738281 104.902344 151.417969 103.285156 151.417969 C 101.667969 151.417969 100.351562 152.738281 100.351562 154.359375 C 100.351562 155.980469 101.667969 157.300781 103.285156 157.300781 C 104.902344 157.300781 106.21875 155.980469 106.21875 154.359375"/><path fill="#C9D8FD" d="M 106.21875 171.101562 C 106.21875 169.480469 104.902344 168.160156 103.285156 168.160156 C 101.667969 168.160156 100.351562 169.480469 100.351562 171.101562 C 100.351562 172.722656 101.667969 174.039062 103.285156 174.039062 C 104.902344 174.039062 106.21875 172.722656 106.21875 171.101562"/><path fill="#C9D8FD" d="M 106.21875 187.839844 C 106.21875 186.21875 104.902344 184.898438 103.285156 184.898438 C 101.667969 184.898438 100.351562 186.21875 100.351562 187.839844 C 100.351562 189.460938 101.667969 190.78125 103.285156 190.78125 C 104.902344 190.78125 106.21875 189.460938 106.21875 187.839844"/><path fill="#C9D8FD" d="M 106.21875 204.582031 C 106.21875 202.957031 104.902344 201.640625 103.285156 201.640625 C 101.667969 201.640625 100.351562 202.957031 100.351562 204.582031 C 100.351562 206.203125 101.667969 207.523438 103.285156 207.523438 C 104.902344 207.523438 106.21875 206.203125 106.21875 204.582031"/><g clip-path="url(#an)"><path fill="#C9D8FD" d="M 106.21875 221.320312 C 106.21875 219.699219 104.902344 218.378906 103.285156 218.378906 C 101.667969 218.378906 100.351562 219.699219 100.351562 221.320312 C 100.351562 222.941406 101.667969 224.261719 103.285156 224.261719 C 104.902344 224.261719 106.21875 222.941406 106.21875 221.320312"/></g><path fill="#C9D8FD" d="M 89.519531 120.878906 C 89.519531 119.257812 88.203125 117.9375 86.585938 117.9375 C 84.96875 117.9375 83.65625 119.257812 83.65625 120.878906 C 83.65625 122.5 84.96875 123.820312 86.585938 123.820312 C 88.203125 123.820312 89.519531 122.5 89.519531 120.878906"/><path fill="#C9D8FD" d="M 89.519531 137.621094 C 89.519531 135.996094 88.203125 134.679688 86.585938 134.679688 C 84.96875 134.679688 83.65625 135.996094 83.65625 137.621094 C 83.65625 139.242188 84.96875 140.558594 86.585938 140.558594 C 88.203125 140.558594 89.519531 139.242188 89.519531 137.621094"/><path fill="#C9D8FD" d="M 89.519531 154.359375 C 89.519531 152.738281 88.203125 151.417969 86.585938 151.417969 C 84.96875 151.417969 83.65625 152.738281 83.65625 154.359375 C 83.65625 155.980469 84.96875 157.300781 86.585938 157.300781 C 88.203125 157.300781 89.519531 155.980469 89.519531 154.359375"/><path fill="#C9D8FD" d="M 89.519531 171.101562 C 89.519531 169.480469 88.203125 168.160156 86.585938 168.160156 C 84.96875 168.160156 83.65625 169.480469 83.65625 171.101562 C 83.65625 172.722656 84.96875 174.039062 86.585938 174.039062 C 88.203125 174.039062 89.519531 172.722656 89.519531 171.101562"/><path fill="#C9D8FD" d="M 89.519531 187.839844 C 89.519531 186.21875 88.203125 184.898438 86.585938 184.898438 C 84.96875 184.898438 83.65625 186.21875 83.65625 187.839844 C 83.65625 189.460938 84.96875 190.78125 86.585938 190.78125 C 88.203125 190.78125 89.519531 189.460938 89.519531 187.839844"/><path fill="#C9D8FD" d="M 89.519531 204.582031 C 89.519531 202.957031 88.203125 201.640625 86.585938 201.640625 C 84.96875 201.640625 83.65625 202.957031 83.65625 204.582031 C 83.65625 206.203125 84.96875 207.523438 86.585938 207.523438 C 88.203125 207.523438 89.519531 206.203125 89.519531 204.582031"/><g clip-path="url(#ao)"><path fill="#C9D8FD" d="M 89.519531 221.320312 C 89.519531 219.699219 88.203125 218.378906 86.585938 218.378906 C 84.96875 218.378906 83.65625 219.699219 83.65625 221.320312 C 83.65625 222.941406 84.96875 224.261719 86.585938 224.261719 C 88.203125 224.261719 89.519531 222.941406 89.519531 221.320312"/></g><path fill="#C9D8FD" d="M 72.828125 120.878906 C 72.828125 119.257812 71.511719 117.9375 69.894531 117.9375 C 68.277344 117.9375 66.960938 119.257812 66.960938 120.878906 C 66.960938 122.5 68.277344 123.820312 69.894531 123.820312 C 71.511719 123.820312 72.828125 122.5 72.828125 120.878906"/><path fill="#C9D8FD" d="M 72.828125 137.621094 C 72.828125 135.996094 71.511719 134.679688 69.894531 134.679688 C 68.277344 134.679688 66.960938 135.996094 66.960938 137.621094 C 66.960938 139.242188 68.277344 140.558594 69.894531 140.558594 C 71.511719 140.558594 72.828125 139.242188 72.828125 137.621094"/><path fill="#C9D8FD" d="M 72.828125 154.359375 C 72.828125 152.738281 71.511719 151.417969 69.894531 151.417969 C 68.277344 151.417969 66.960938 152.738281 66.960938 154.359375 C 66.960938 155.980469 68.277344 157.300781 69.894531 157.300781 C 71.511719 157.300781 72.828125 155.980469 72.828125 154.359375"/><path fill="#C9D8FD" d="M 72.828125 171.101562 C 72.828125 169.480469 71.511719 168.160156 69.894531 168.160156 C 68.277344 168.160156 66.960938 169.480469 66.960938 171.101562 C 66.960938 172.722656 68.277344 174.039062 69.894531 174.039062 C 71.511719 174.039062 72.828125 172.722656 72.828125 171.101562"/><path fill="#C9D8FD" d="M 72.828125 187.839844 C 72.828125 186.21875 71.511719 184.898438 69.894531 184.898438 C 68.277344 184.898438 66.960938 186.21875 66.960938 187.839844 C 66.960938 189.460938 68.277344 190.78125 69.894531 190.78125 C 71.511719 190.78125 72.828125 189.460938 72.828125 187.839844"/><path fill="#C9D8FD" d="M 72.828125 204.582031 C 72.828125 202.957031 71.511719 201.640625 69.894531 201.640625 C 68.277344 201.640625 66.960938 202.957031 66.960938 204.582031 C 66.960938 206.203125 68.277344 207.523438 69.894531 207.523438 C 71.511719 207.523438 72.828125 206.203125 72.828125 204.582031"/><g clip-path="url(#ap)"><path fill="#C9D8FD" d="M 72.828125 221.320312 C 72.828125 219.699219 71.511719 218.378906 69.894531 218.378906 C 68.277344 218.378906 66.960938 219.699219 66.960938 221.320312 C 66.960938 222.941406 68.277344 224.261719 69.894531 224.261719 C 71.511719 224.261719 72.828125 222.941406 72.828125 221.320312"/></g><path fill="#C9D8FD" d="M 56.238281 120.878906 C 56.238281 119.257812 54.921875 117.9375 53.304688 117.9375 C 51.6875 117.9375 50.371094 119.257812 50.371094 120.878906 C 50.371094 122.5 51.6875 123.820312 53.304688 123.820312 C 54.921875 123.820312 56.238281 122.5 56.238281 120.878906"/><path fill="#C9D8FD" d="M 56.238281 137.621094 C 56.238281 135.996094 54.921875 134.679688 53.304688 134.679688 C 51.6875 134.679688 50.371094 135.996094 50.371094 137.621094 C 50.371094 139.242188 51.6875 140.558594 53.304688 140.558594 C 54.921875 140.558594 56.238281 139.242188 56.238281 137.621094"/><path fill="#C9D8FD" d="M 56.238281 154.359375 C 56.238281 152.738281 54.921875 151.417969 53.304688 151.417969 C 51.6875 151.417969 50.371094 152.738281 50.371094 154.359375 C 50.371094 155.980469 51.6875 157.300781 53.304688 157.300781 C 54.921875 157.300781 56.238281 155.980469 56.238281 154.359375"/><path fill="#C9D8FD" d="M 56.238281 171.101562 C 56.238281 169.480469 54.921875 168.160156 53.304688 168.160156 C 51.6875 168.160156 50.371094 169.480469 50.371094 171.101562 C 50.371094 172.722656 51.6875 174.039062 53.304688 174.039062 C 54.921875 174.039062 56.238281 172.722656 56.238281 171.101562"/><path fill="#C9D8FD" d="M 56.238281 187.839844 C 56.238281 186.21875 54.921875 184.898438 53.304688 184.898438 C 51.6875 184.898438 50.371094 186.21875 50.371094 187.839844 C 50.371094 189.460938 51.6875 190.78125 53.304688 190.78125 C 54.921875 190.78125 56.238281 189.460938 56.238281 187.839844"/><path fill="#C9D8FD" d="M 56.238281 204.582031 C 56.238281 202.957031 54.921875 201.640625 53.304688 201.640625 C 51.6875 201.640625 50.371094 202.957031 50.371094 204.582031 C 50.371094 206.203125 51.6875 207.523438 53.304688 207.523438 C 54.921875 207.523438 56.238281 206.203125 56.238281 204.582031"/><g clip-path="url(#aq)"><path fill="#C9D8FD" d="M 56.238281 221.320312 C 56.238281 219.699219 54.921875 218.378906 53.304688 218.378906 C 51.6875 218.378906 50.371094 219.699219 50.371094 221.320312 C 50.371094 222.941406 51.6875 224.261719 53.304688 224.261719 C 54.921875 224.261719 56.238281 222.941406 56.238281 221.320312"/></g><g clip-path="url(#ar)"><path fill="#C9D8FD" d="M 39.433594 120.878906 C 39.433594 119.257812 38.117188 117.9375 36.5 117.9375 C 34.882812 117.9375 33.570312 119.257812 33.570312 120.878906 C 33.570312 122.5 34.882812 123.820312 36.5 123.820312 C 38.117188 123.820312 39.433594 122.5 39.433594 120.878906"/></g><g clip-path="url(#as)"><path fill="#C9D8FD" d="M 39.433594 137.621094 C 39.433594 135.996094 38.117188 134.679688 36.5 134.679688 C 34.882812 134.679688 33.570312 135.996094 33.570312 137.621094 C 33.570312 139.242188 34.882812 140.558594 36.5 140.558594 C 38.117188 140.558594 39.433594 139.242188 39.433594 137.621094"/></g><g clip-path="url(#at)"><path fill="#C9D8FD" d="M 39.433594 154.359375 C 39.433594 152.738281 38.117188 151.417969 36.5 151.417969 C 34.882812 151.417969 33.570312 152.738281 33.570312 154.359375 C 33.570312 155.980469 34.882812 157.300781 36.5 157.300781 C 38.117188 157.300781 39.433594 155.980469 39.433594 154.359375"/></g><g clip-path="url(#au)"><path fill="#C9D8FD" d="M 39.433594 171.101562 C 39.433594 169.480469 38.117188 168.160156 36.5 168.160156 C 34.882812 168.160156 33.570312 169.480469 33.570312 171.101562 C 33.570312 172.722656 34.882812 174.039062 36.5 174.039062 C 38.117188 174.039062 39.433594 172.722656 39.433594 171.101562"/></g><g clip-path="url(#av)"><path fill="#C9D8FD" d="M 39.433594 187.839844 C 39.433594 186.21875 38.117188 184.898438 36.5 184.898438 C 34.882812 184.898438 33.570312 186.21875 33.570312 187.839844 C 33.570312 189.460938 34.882812 190.78125 36.5 190.78125 C 38.117188 190.78125 39.433594 189.460938 39.433594 187.839844"/></g><g clip-path="url(#aw)"><path fill="#C9D8FD" d="M 39.433594 204.582031 C 39.433594 202.957031 38.117188 201.640625 36.5 201.640625 C 34.882812 201.640625 33.570312 202.957031 33.570312 204.582031 C 33.570312 206.203125 34.882812 207.523438 36.5 207.523438 C 38.117188 207.523438 39.433594 206.203125 39.433594 204.582031"/></g><g clip-path="url(#ax)"><path fill="#C9D8FD" d="M 39.433594 221.320312 C 39.433594 219.699219 38.117188 218.378906 36.5 218.378906 C 34.882812 218.378906 33.570312 219.699219 33.570312 221.320312 C 33.570312 222.941406 34.882812 224.261719 36.5 224.261719 C 38.117188 224.261719 39.433594 222.941406 39.433594 221.320312"/></g></svg>