<svg xmlns="http://www.w3.org/2000/svg" width="247.5" viewBox="0 0 247.5 210" height="210" version="1.0"><defs><clipPath id="a"><path d="M 0 0.210938 L 7 0.210938 L 7 7 L 0 7 Z M 0 0.210938"/></clipPath><clipPath id="b"><path d="M 18 0.210938 L 26 0.210938 L 26 7 L 18 7 Z M 18 0.210938"/></clipPath><clipPath id="c"><path d="M 37 0.210938 L 44 0.210938 L 44 7 L 37 7 Z M 37 0.210938"/></clipPath><clipPath id="d"><path d="M 55 0.210938 L 63 0.210938 L 63 7 L 55 7 Z M 55 0.210938"/></clipPath><clipPath id="e"><path d="M 74 0.210938 L 81 0.210938 L 81 7 L 74 7 Z M 74 0.210938"/></clipPath><clipPath id="f"><path d="M 92 0.210938 L 100 0.210938 L 100 7 L 92 7 Z M 92 0.210938"/></clipPath><clipPath id="g"><path d="M 111 0.210938 L 118 0.210938 L 118 7 L 111 7 Z M 111 0.210938"/></clipPath><clipPath id="h"><path d="M 0 111 L 7 111 L 7 117.960938 L 0 117.960938 Z M 0 111"/></clipPath><clipPath id="i"><path d="M 18 111 L 26 111 L 26 117.960938 L 18 117.960938 Z M 18 111"/></clipPath><clipPath id="j"><path d="M 37 111 L 44 111 L 44 117.960938 L 37 117.960938 Z M 37 111"/></clipPath><clipPath id="k"><path d="M 55 111 L 63 111 L 63 117.960938 L 55 117.960938 Z M 55 111"/></clipPath><clipPath id="l"><path d="M 74 111 L 81 111 L 81 117.960938 L 74 117.960938 Z M 74 111"/></clipPath><clipPath id="m"><path d="M 92 111 L 100 111 L 100 117.960938 L 92 117.960938 Z M 92 111"/></clipPath><clipPath id="n"><path d="M 111 111 L 118 111 L 118 117.960938 L 111 117.960938 Z M 111 111"/></clipPath><clipPath id="o"><path d="M 129 0.210938 L 137 0.210938 L 137 7 L 129 7 Z M 129 0.210938"/></clipPath><clipPath id="p"><path d="M 148 0.210938 L 155 0.210938 L 155 7 L 148 7 Z M 148 0.210938"/></clipPath><clipPath id="q"><path d="M 166 0.210938 L 174 0.210938 L 174 7 L 166 7 Z M 166 0.210938"/></clipPath><clipPath id="r"><path d="M 185 0.210938 L 192 0.210938 L 192 7 L 185 7 Z M 185 0.210938"/></clipPath><clipPath id="s"><path d="M 203 0.210938 L 211 0.210938 L 211 7 L 203 7 Z M 203 0.210938"/></clipPath><clipPath id="t"><path d="M 222 0.210938 L 229 0.210938 L 229 7 L 222 7 Z M 222 0.210938"/></clipPath><clipPath id="u"><path d="M 240 0.210938 L 247 0.210938 L 247 7 L 240 7 Z M 240 0.210938"/></clipPath><clipPath id="v"><path d="M 240 18 L 247 18 L 247 26 L 240 26 Z M 240 18"/></clipPath><clipPath id="w"><path d="M 240 37 L 247 37 L 247 44 L 240 44 Z M 240 37"/></clipPath><clipPath id="x"><path d="M 240 55 L 247 55 L 247 63 L 240 63 Z M 240 55"/></clipPath><clipPath id="y"><path d="M 240 74 L 247 74 L 247 81 L 240 81 Z M 240 74"/></clipPath><clipPath id="z"><path d="M 240 92 L 247 92 L 247 100 L 240 100 Z M 240 92"/></clipPath><clipPath id="A"><path d="M 129 111 L 137 111 L 137 117.960938 L 129 117.960938 Z M 129 111"/></clipPath><clipPath id="B"><path d="M 148 111 L 155 111 L 155 117.960938 L 148 117.960938 Z M 148 111"/></clipPath><clipPath id="C"><path d="M 166 111 L 174 111 L 174 117.960938 L 166 117.960938 Z M 166 111"/></clipPath><clipPath id="D"><path d="M 185 111 L 192 111 L 192 117.960938 L 185 117.960938 Z M 185 111"/></clipPath><clipPath id="E"><path d="M 203 111 L 211 111 L 211 117.960938 L 203 117.960938 Z M 203 111"/></clipPath><clipPath id="F"><path d="M 222 111 L 229 111 L 229 117.960938 L 222 117.960938 Z M 222 111"/></clipPath><clipPath id="G"><path d="M 240 111 L 247 111 L 247 117.960938 L 240 117.960938 Z M 240 111"/></clipPath><clipPath id="H"><path d="M 0 128.988281 L 7 128.988281 L 7 136 L 0 136 Z M 0 128.988281"/></clipPath><clipPath id="I"><path d="M 18 128.988281 L 26 128.988281 L 26 136 L 18 136 Z M 18 128.988281"/></clipPath><clipPath id="J"><path d="M 37 128.988281 L 44 128.988281 L 44 136 L 37 136 Z M 37 128.988281"/></clipPath><clipPath id="K"><path d="M 55 128.988281 L 63 128.988281 L 63 136 L 55 136 Z M 55 128.988281"/></clipPath><clipPath id="L"><path d="M 74 128.988281 L 81 128.988281 L 81 136 L 74 136 Z M 74 128.988281"/></clipPath><clipPath id="M"><path d="M 92 128.988281 L 100 128.988281 L 100 136 L 92 136 Z M 92 128.988281"/></clipPath><clipPath id="N"><path d="M 111 128.988281 L 118 128.988281 L 118 136 L 111 136 Z M 111 128.988281"/></clipPath><clipPath id="O"><path d="M 0 203 L 7 203 L 7 209.789062 L 0 209.789062 Z M 0 203"/></clipPath><clipPath id="P"><path d="M 18 203 L 26 203 L 26 209.789062 L 18 209.789062 Z M 18 203"/></clipPath><clipPath id="Q"><path d="M 37 203 L 44 203 L 44 209.789062 L 37 209.789062 Z M 37 203"/></clipPath><clipPath id="R"><path d="M 55 203 L 63 203 L 63 209.789062 L 55 209.789062 Z M 55 203"/></clipPath><clipPath id="S"><path d="M 74 203 L 81 203 L 81 209.789062 L 74 209.789062 Z M 74 203"/></clipPath><clipPath id="T"><path d="M 92 203 L 100 203 L 100 209.789062 L 92 209.789062 Z M 92 203"/></clipPath><clipPath id="U"><path d="M 111 203 L 118 203 L 118 209.789062 L 111 209.789062 Z M 111 203"/></clipPath><clipPath id="V"><path d="M 129 128.988281 L 137 128.988281 L 137 136 L 129 136 Z M 129 128.988281"/></clipPath><clipPath id="W"><path d="M 148 128.988281 L 155 128.988281 L 155 136 L 148 136 Z M 148 128.988281"/></clipPath><clipPath id="X"><path d="M 166 128.988281 L 174 128.988281 L 174 136 L 166 136 Z M 166 128.988281"/></clipPath><clipPath id="Y"><path d="M 185 128.988281 L 192 128.988281 L 192 136 L 185 136 Z M 185 128.988281"/></clipPath><clipPath id="Z"><path d="M 203 128.988281 L 211 128.988281 L 211 136 L 203 136 Z M 203 128.988281"/></clipPath><clipPath id="aa"><path d="M 222 128.988281 L 229 128.988281 L 229 136 L 222 136 Z M 222 128.988281"/></clipPath><clipPath id="ab"><path d="M 240 128.988281 L 247 128.988281 L 247 136 L 240 136 Z M 240 128.988281"/></clipPath><clipPath id="ac"><path d="M 240 147 L 247 147 L 247 155 L 240 155 Z M 240 147"/></clipPath><clipPath id="ad"><path d="M 240 165 L 247 165 L 247 173 L 240 173 Z M 240 165"/></clipPath><clipPath id="ae"><path d="M 240 184 L 247 184 L 247 192 L 240 192 Z M 240 184"/></clipPath><clipPath id="af"><path d="M 129 203 L 137 203 L 137 209.789062 L 129 209.789062 Z M 129 203"/></clipPath><clipPath id="ag"><path d="M 148 203 L 155 203 L 155 209.789062 L 148 209.789062 Z M 148 203"/></clipPath><clipPath id="ah"><path d="M 166 203 L 174 203 L 174 209.789062 L 166 209.789062 Z M 166 203"/></clipPath><clipPath id="ai"><path d="M 185 203 L 192 203 L 192 209.789062 L 185 209.789062 Z M 185 203"/></clipPath><clipPath id="aj"><path d="M 203 203 L 211 203 L 211 209.789062 L 203 209.789062 Z M 203 203"/></clipPath><clipPath id="ak"><path d="M 222 203 L 229 203 L 229 209.789062 L 222 209.789062 Z M 222 203"/></clipPath><clipPath id="al"><path d="M 240 203 L 247 203 L 247 209.789062 L 240 209.789062 Z M 240 203"/></clipPath></defs><g clip-path="url(#a)"><path d="M 3.4375 0.210938 C 1.644531 0.210938 0.1875 1.671875 0.1875 3.472656 C 0.1875 5.269531 1.644531 6.730469 3.4375 6.730469 C 5.230469 6.730469 6.6875 5.269531 6.6875 3.472656 C 6.6875 1.671875 5.230469 0.210938 3.4375 0.210938"/></g><g clip-path="url(#b)"><path d="M 21.949219 0.210938 C 20.15625 0.210938 18.699219 1.671875 18.699219 3.472656 C 18.699219 5.269531 20.15625 6.730469 21.949219 6.730469 C 23.742188 6.730469 25.203125 5.269531 25.203125 3.472656 C 25.203125 1.671875 23.742188 0.210938 21.949219 0.210938"/></g><g clip-path="url(#c)"><path d="M 40.460938 0.210938 C 38.667969 0.210938 37.210938 1.671875 37.210938 3.472656 C 37.210938 5.269531 38.667969 6.730469 40.460938 6.730469 C 42.253906 6.730469 43.714844 5.269531 43.714844 3.472656 C 43.714844 1.671875 42.253906 0.210938 40.460938 0.210938"/></g><g clip-path="url(#d)"><path d="M 58.976562 0.210938 C 57.183594 0.210938 55.722656 1.671875 55.722656 3.472656 C 55.722656 5.269531 57.183594 6.730469 58.976562 6.730469 C 60.769531 6.730469 62.226562 5.269531 62.226562 3.472656 C 62.226562 1.671875 60.769531 0.210938 58.976562 0.210938"/></g><g clip-path="url(#e)"><path d="M 77.488281 0.210938 C 75.695312 0.210938 74.238281 1.671875 74.238281 3.472656 C 74.238281 5.269531 75.695312 6.730469 77.488281 6.730469 C 79.28125 6.730469 80.738281 5.269531 80.738281 3.472656 C 80.738281 1.671875 79.28125 0.210938 77.488281 0.210938"/></g><g clip-path="url(#f)"><path d="M 96 0.210938 C 94.207031 0.210938 92.746094 1.671875 92.746094 3.472656 C 92.746094 5.269531 94.207031 6.730469 96 6.730469 C 97.792969 6.730469 99.25 5.269531 99.25 3.472656 C 99.25 1.671875 97.792969 0.210938 96 0.210938"/></g><g clip-path="url(#g)"><path d="M 114.511719 0.210938 C 112.71875 0.210938 111.261719 1.671875 111.261719 3.472656 C 111.261719 5.269531 112.71875 6.730469 114.511719 6.730469 C 116.304688 6.730469 117.765625 5.269531 117.765625 3.472656 C 117.765625 1.671875 116.304688 0.210938 114.511719 0.210938"/></g><path d="M 3.4375 18.765625 C 1.644531 18.765625 0.1875 20.230469 0.1875 22.027344 C 0.1875 23.824219 1.644531 25.289062 3.4375 25.289062 C 5.230469 25.289062 6.6875 23.824219 6.6875 22.027344 C 6.6875 20.230469 5.230469 18.765625 3.4375 18.765625"/><path d="M 21.949219 18.765625 C 20.15625 18.765625 18.699219 20.230469 18.699219 22.027344 C 18.699219 23.824219 20.15625 25.289062 21.949219 25.289062 C 23.742188 25.289062 25.203125 23.824219 25.203125 22.027344 C 25.203125 20.230469 23.742188 18.765625 21.949219 18.765625"/><path d="M 40.460938 18.765625 C 38.667969 18.765625 37.210938 20.230469 37.210938 22.027344 C 37.210938 23.824219 38.667969 25.289062 40.460938 25.289062 C 42.253906 25.289062 43.714844 23.824219 43.714844 22.027344 C 43.714844 20.230469 42.253906 18.765625 40.460938 18.765625"/><path d="M 58.976562 18.765625 C 57.183594 18.765625 55.722656 20.230469 55.722656 22.027344 C 55.722656 23.824219 57.183594 25.289062 58.976562 25.289062 C 60.769531 25.289062 62.226562 23.824219 62.226562 22.027344 C 62.226562 20.230469 60.769531 18.765625 58.976562 18.765625"/><path d="M 77.488281 18.765625 C 75.695312 18.765625 74.238281 20.230469 74.238281 22.027344 C 74.238281 23.824219 75.695312 25.289062 77.488281 25.289062 C 79.28125 25.289062 80.738281 23.824219 80.738281 22.027344 C 80.738281 20.230469 79.28125 18.765625 77.488281 18.765625"/><path d="M 96 18.765625 C 94.207031 18.765625 92.746094 20.230469 92.746094 22.027344 C 92.746094 23.824219 94.207031 25.289062 96 25.289062 C 97.792969 25.289062 99.25 23.824219 99.25 22.027344 C 99.25 20.230469 97.792969 18.765625 96 18.765625"/><path d="M 114.511719 18.765625 C 112.71875 18.765625 111.261719 20.230469 111.261719 22.027344 C 111.261719 23.824219 112.71875 25.289062 114.511719 25.289062 C 116.304688 25.289062 117.765625 23.824219 117.765625 22.027344 C 117.765625 20.230469 116.304688 18.765625 114.511719 18.765625"/><path d="M 3.4375 37.207031 C 1.644531 37.207031 0.1875 38.671875 0.1875 40.46875 C 0.1875 42.265625 1.644531 43.726562 3.4375 43.726562 C 5.230469 43.726562 6.6875 42.265625 6.6875 40.46875 C 6.6875 38.671875 5.230469 37.207031 3.4375 37.207031"/><path d="M 21.949219 37.207031 C 20.15625 37.207031 18.699219 38.671875 18.699219 40.46875 C 18.699219 42.265625 20.15625 43.726562 21.949219 43.726562 C 23.742188 43.726562 25.203125 42.265625 25.203125 40.46875 C 25.203125 38.671875 23.742188 37.207031 21.949219 37.207031"/><path d="M 40.460938 37.207031 C 38.667969 37.207031 37.210938 38.671875 37.210938 40.46875 C 37.210938 42.265625 38.667969 43.726562 40.460938 43.726562 C 42.253906 43.726562 43.714844 42.265625 43.714844 40.46875 C 43.714844 38.671875 42.253906 37.207031 40.460938 37.207031"/><path d="M 58.976562 37.207031 C 57.183594 37.207031 55.722656 38.671875 55.722656 40.46875 C 55.722656 42.265625 57.183594 43.726562 58.976562 43.726562 C 60.769531 43.726562 62.226562 42.265625 62.226562 40.46875 C 62.226562 38.671875 60.769531 37.207031 58.976562 37.207031"/><path d="M 77.488281 37.207031 C 75.695312 37.207031 74.238281 38.671875 74.238281 40.46875 C 74.238281 42.265625 75.695312 43.726562 77.488281 43.726562 C 79.28125 43.726562 80.738281 42.265625 80.738281 40.46875 C 80.738281 38.671875 79.28125 37.207031 77.488281 37.207031"/><path d="M 96 37.207031 C 94.207031 37.207031 92.746094 38.671875 92.746094 40.46875 C 92.746094 42.265625 94.207031 43.726562 96 43.726562 C 97.792969 43.726562 99.25 42.265625 99.25 40.46875 C 99.25 38.671875 97.792969 37.207031 96 37.207031"/><path d="M 114.511719 37.207031 C 112.71875 37.207031 111.261719 38.671875 111.261719 40.46875 C 111.261719 42.265625 112.71875 43.726562 114.511719 43.726562 C 116.304688 43.726562 117.765625 42.265625 117.765625 40.46875 C 117.765625 38.671875 116.304688 37.207031 114.511719 37.207031"/><path d="M 3.4375 55.769531 C 1.644531 55.769531 0.1875 57.230469 0.1875 59.027344 C 0.1875 60.828125 1.644531 62.289062 3.4375 62.289062 C 5.230469 62.289062 6.6875 60.828125 6.6875 59.027344 C 6.6875 57.230469 5.230469 55.769531 3.4375 55.769531"/><path d="M 21.949219 55.769531 C 20.15625 55.769531 18.699219 57.230469 18.699219 59.027344 C 18.699219 60.828125 20.15625 62.289062 21.949219 62.289062 C 23.742188 62.289062 25.203125 60.828125 25.203125 59.027344 C 25.203125 57.230469 23.742188 55.769531 21.949219 55.769531"/><path d="M 40.460938 55.769531 C 38.667969 55.769531 37.210938 57.230469 37.210938 59.027344 C 37.210938 60.828125 38.667969 62.289062 40.460938 62.289062 C 42.253906 62.289062 43.714844 60.828125 43.714844 59.027344 C 43.714844 57.230469 42.253906 55.769531 40.460938 55.769531"/><path d="M 58.976562 55.769531 C 57.183594 55.769531 55.722656 57.230469 55.722656 59.027344 C 55.722656 60.828125 57.183594 62.289062 58.976562 62.289062 C 60.769531 62.289062 62.226562 60.828125 62.226562 59.027344 C 62.226562 57.230469 60.769531 55.769531 58.976562 55.769531"/><path d="M 77.488281 55.769531 C 75.695312 55.769531 74.238281 57.230469 74.238281 59.027344 C 74.238281 60.828125 75.695312 62.289062 77.488281 62.289062 C 79.28125 62.289062 80.738281 60.828125 80.738281 59.027344 C 80.738281 57.230469 79.28125 55.769531 77.488281 55.769531"/><path d="M 96 55.769531 C 94.207031 55.769531 92.746094 57.230469 92.746094 59.027344 C 92.746094 60.828125 94.207031 62.289062 96 62.289062 C 97.792969 62.289062 99.25 60.828125 99.25 59.027344 C 99.25 57.230469 97.792969 55.769531 96 55.769531"/><path d="M 114.511719 55.769531 C 112.71875 55.769531 111.261719 57.230469 111.261719 59.027344 C 111.261719 60.828125 112.71875 62.289062 114.511719 62.289062 C 116.304688 62.289062 117.765625 60.828125 117.765625 59.027344 C 117.765625 57.230469 116.304688 55.769531 114.511719 55.769531"/><path d="M 3.4375 74.324219 C 1.644531 74.324219 0.1875 75.789062 0.1875 77.585938 C 0.1875 79.382812 1.644531 80.84375 3.4375 80.84375 C 5.230469 80.84375 6.6875 79.382812 6.6875 77.585938 C 6.6875 75.789062 5.230469 74.324219 3.4375 74.324219"/><path d="M 21.949219 74.324219 C 20.15625 74.324219 18.699219 75.789062 18.699219 77.585938 C 18.699219 79.382812 20.15625 80.84375 21.949219 80.84375 C 23.742188 80.84375 25.203125 79.382812 25.203125 77.585938 C 25.203125 75.789062 23.742188 74.324219 21.949219 74.324219"/><path d="M 40.460938 74.324219 C 38.667969 74.324219 37.210938 75.789062 37.210938 77.585938 C 37.210938 79.382812 38.667969 80.84375 40.460938 80.84375 C 42.253906 80.84375 43.714844 79.382812 43.714844 77.585938 C 43.714844 75.789062 42.253906 74.324219 40.460938 74.324219"/><path d="M 58.976562 74.324219 C 57.183594 74.324219 55.722656 75.789062 55.722656 77.585938 C 55.722656 79.382812 57.183594 80.84375 58.976562 80.84375 C 60.769531 80.84375 62.226562 79.382812 62.226562 77.585938 C 62.226562 75.789062 60.769531 74.324219 58.976562 74.324219"/><path d="M 77.488281 74.324219 C 75.695312 74.324219 74.238281 75.789062 74.238281 77.585938 C 74.238281 79.382812 75.695312 80.84375 77.488281 80.84375 C 79.28125 80.84375 80.738281 79.382812 80.738281 77.585938 C 80.738281 75.789062 79.28125 74.324219 77.488281 74.324219"/><path d="M 96 74.324219 C 94.207031 74.324219 92.746094 75.789062 92.746094 77.585938 C 92.746094 79.382812 94.207031 80.84375 96 80.84375 C 97.792969 80.84375 99.25 79.382812 99.25 77.585938 C 99.25 75.789062 97.792969 74.324219 96 74.324219"/><path d="M 114.511719 74.324219 C 112.71875 74.324219 111.261719 75.789062 111.261719 77.585938 C 111.261719 79.382812 112.71875 80.84375 114.511719 80.84375 C 116.304688 80.84375 117.765625 79.382812 117.765625 77.585938 C 117.765625 75.789062 116.304688 74.324219 114.511719 74.324219"/><path d="M 3.4375 92.765625 C 1.644531 92.765625 0.1875 94.226562 0.1875 96.023438 C 0.1875 97.824219 1.644531 99.285156 3.4375 99.285156 C 5.230469 99.285156 6.6875 97.824219 6.6875 96.023438 C 6.6875 94.226562 5.230469 92.765625 3.4375 92.765625"/><path d="M 21.949219 92.765625 C 20.15625 92.765625 18.699219 94.226562 18.699219 96.023438 C 18.699219 97.824219 20.15625 99.285156 21.949219 99.285156 C 23.742188 99.285156 25.203125 97.824219 25.203125 96.023438 C 25.203125 94.226562 23.742188 92.765625 21.949219 92.765625"/><path d="M 40.460938 92.765625 C 38.667969 92.765625 37.210938 94.226562 37.210938 96.023438 C 37.210938 97.824219 38.667969 99.285156 40.460938 99.285156 C 42.253906 99.285156 43.714844 97.824219 43.714844 96.023438 C 43.714844 94.226562 42.253906 92.765625 40.460938 92.765625"/><path d="M 58.976562 92.765625 C 57.183594 92.765625 55.722656 94.226562 55.722656 96.023438 C 55.722656 97.824219 57.183594 99.285156 58.976562 99.285156 C 60.769531 99.285156 62.226562 97.824219 62.226562 96.023438 C 62.226562 94.226562 60.769531 92.765625 58.976562 92.765625"/><path d="M 77.488281 92.765625 C 75.695312 92.765625 74.238281 94.226562 74.238281 96.023438 C 74.238281 97.824219 75.695312 99.285156 77.488281 99.285156 C 79.28125 99.285156 80.738281 97.824219 80.738281 96.023438 C 80.738281 94.226562 79.28125 92.765625 77.488281 92.765625"/><path d="M 96 92.765625 C 94.207031 92.765625 92.746094 94.226562 92.746094 96.023438 C 92.746094 97.824219 94.207031 99.285156 96 99.285156 C 97.792969 99.285156 99.25 97.824219 99.25 96.023438 C 99.25 94.226562 97.792969 92.765625 96 92.765625"/><path d="M 114.511719 92.765625 C 112.71875 92.765625 111.261719 94.226562 111.261719 96.023438 C 111.261719 97.824219 112.71875 99.285156 114.511719 99.285156 C 116.304688 99.285156 117.765625 97.824219 117.765625 96.023438 C 117.765625 94.226562 116.304688 92.765625 114.511719 92.765625"/><g clip-path="url(#h)"><path d="M 3.4375 111.441406 C 1.644531 111.441406 0.1875 112.90625 0.1875 114.703125 C 0.1875 116.5 1.644531 117.960938 3.4375 117.960938 C 5.230469 117.960938 6.6875 116.5 6.6875 114.703125 C 6.6875 112.90625 5.230469 111.441406 3.4375 111.441406"/></g><g clip-path="url(#i)"><path d="M 21.949219 111.441406 C 20.15625 111.441406 18.699219 112.90625 18.699219 114.703125 C 18.699219 116.5 20.15625 117.960938 21.949219 117.960938 C 23.742188 117.960938 25.203125 116.5 25.203125 114.703125 C 25.203125 112.90625 23.742188 111.441406 21.949219 111.441406"/></g><g clip-path="url(#j)"><path d="M 40.460938 111.441406 C 38.667969 111.441406 37.210938 112.90625 37.210938 114.703125 C 37.210938 116.5 38.667969 117.960938 40.460938 117.960938 C 42.253906 117.960938 43.714844 116.5 43.714844 114.703125 C 43.714844 112.90625 42.253906 111.441406 40.460938 111.441406"/></g><g clip-path="url(#k)"><path d="M 58.976562 111.441406 C 57.183594 111.441406 55.722656 112.90625 55.722656 114.703125 C 55.722656 116.5 57.183594 117.960938 58.976562 117.960938 C 60.769531 117.960938 62.226562 116.5 62.226562 114.703125 C 62.226562 112.90625 60.769531 111.441406 58.976562 111.441406"/></g><g clip-path="url(#l)"><path d="M 77.488281 111.441406 C 75.695312 111.441406 74.238281 112.90625 74.238281 114.703125 C 74.238281 116.5 75.695312 117.960938 77.488281 117.960938 C 79.28125 117.960938 80.738281 116.5 80.738281 114.703125 C 80.738281 112.90625 79.28125 111.441406 77.488281 111.441406"/></g><g clip-path="url(#m)"><path d="M 96 111.441406 C 94.207031 111.441406 92.746094 112.90625 92.746094 114.703125 C 92.746094 116.5 94.207031 117.960938 96 117.960938 C 97.792969 117.960938 99.25 116.5 99.25 114.703125 C 99.25 112.90625 97.792969 111.441406 96 111.441406"/></g><g clip-path="url(#n)"><path d="M 114.511719 111.441406 C 112.71875 111.441406 111.261719 112.90625 111.261719 114.703125 C 111.261719 116.5 112.71875 117.960938 114.511719 117.960938 C 116.304688 117.960938 117.765625 116.5 117.765625 114.703125 C 117.765625 112.90625 116.304688 111.441406 114.511719 111.441406"/></g><g clip-path="url(#o)"><path d="M 133.019531 0.210938 C 131.222656 0.210938 129.765625 1.671875 129.765625 3.472656 C 129.765625 5.269531 131.222656 6.730469 133.019531 6.730469 C 134.8125 6.730469 136.269531 5.269531 136.269531 3.472656 C 136.269531 1.671875 134.8125 0.210938 133.019531 0.210938"/></g><g clip-path="url(#p)"><path d="M 151.53125 0.210938 C 149.738281 0.210938 148.277344 1.671875 148.277344 3.472656 C 148.277344 5.269531 149.738281 6.730469 151.53125 6.730469 C 153.324219 6.730469 154.78125 5.269531 154.78125 3.472656 C 154.78125 1.671875 153.324219 0.210938 151.53125 0.210938"/></g><g clip-path="url(#q)"><path d="M 170.042969 0.210938 C 168.25 0.210938 166.792969 1.671875 166.792969 3.472656 C 166.792969 5.269531 168.25 6.730469 170.042969 6.730469 C 171.835938 6.730469 173.292969 5.269531 173.292969 3.472656 C 173.292969 1.671875 171.835938 0.210938 170.042969 0.210938"/></g><g clip-path="url(#r)"><path d="M 188.554688 0.210938 C 186.761719 0.210938 185.304688 1.671875 185.304688 3.472656 C 185.304688 5.269531 186.761719 6.730469 188.554688 6.730469 C 190.347656 6.730469 191.808594 5.269531 191.808594 3.472656 C 191.808594 1.671875 190.347656 0.210938 188.554688 0.210938"/></g><g clip-path="url(#s)"><path d="M 207.066406 0.210938 C 205.277344 0.210938 203.816406 1.671875 203.816406 3.472656 C 203.816406 5.269531 205.277344 6.730469 207.066406 6.730469 C 208.859375 6.730469 210.320312 5.269531 210.320312 3.472656 C 210.320312 1.671875 208.859375 0.210938 207.066406 0.210938"/></g><g clip-path="url(#t)"><path d="M 225.582031 0.210938 C 223.789062 0.210938 222.328125 1.671875 222.328125 3.472656 C 222.328125 5.269531 223.789062 6.730469 225.582031 6.730469 C 227.375 6.730469 228.832031 5.269531 228.832031 3.472656 C 228.832031 1.671875 227.375 0.210938 225.582031 0.210938"/></g><g clip-path="url(#u)"><path d="M 244.09375 6.730469 C 245.886719 6.730469 247.34375 5.269531 247.34375 3.472656 C 247.34375 1.671875 245.886719 0.210938 244.09375 0.210938 C 242.300781 0.210938 240.84375 1.671875 240.84375 3.472656 C 240.84375 5.269531 242.300781 6.730469 244.09375 6.730469"/></g><path d="M 133.019531 18.765625 C 131.222656 18.765625 129.765625 20.230469 129.765625 22.027344 C 129.765625 23.824219 131.222656 25.289062 133.019531 25.289062 C 134.8125 25.289062 136.269531 23.824219 136.269531 22.027344 C 136.269531 20.230469 134.8125 18.765625 133.019531 18.765625"/><path d="M 151.53125 18.765625 C 149.738281 18.765625 148.277344 20.230469 148.277344 22.027344 C 148.277344 23.824219 149.738281 25.289062 151.53125 25.289062 C 153.324219 25.289062 154.78125 23.824219 154.78125 22.027344 C 154.78125 20.230469 153.324219 18.765625 151.53125 18.765625"/><path d="M 170.042969 18.765625 C 168.25 18.765625 166.792969 20.230469 166.792969 22.027344 C 166.792969 23.824219 168.25 25.289062 170.042969 25.289062 C 171.835938 25.289062 173.292969 23.824219 173.292969 22.027344 C 173.292969 20.230469 171.835938 18.765625 170.042969 18.765625"/><path d="M 188.554688 18.765625 C 186.761719 18.765625 185.304688 20.230469 185.304688 22.027344 C 185.304688 23.824219 186.761719 25.289062 188.554688 25.289062 C 190.347656 25.289062 191.808594 23.824219 191.808594 22.027344 C 191.808594 20.230469 190.347656 18.765625 188.554688 18.765625"/><path d="M 207.066406 18.765625 C 205.277344 18.765625 203.816406 20.230469 203.816406 22.027344 C 203.816406 23.824219 205.277344 25.289062 207.066406 25.289062 C 208.859375 25.289062 210.320312 23.824219 210.320312 22.027344 C 210.320312 20.230469 208.859375 18.765625 207.066406 18.765625"/><path d="M 225.582031 18.765625 C 223.789062 18.765625 222.328125 20.230469 222.328125 22.027344 C 222.328125 23.824219 223.789062 25.289062 225.582031 25.289062 C 227.375 25.289062 228.832031 23.824219 228.832031 22.027344 C 228.832031 20.230469 227.375 18.765625 225.582031 18.765625"/><g clip-path="url(#v)"><path d="M 244.09375 18.765625 C 242.300781 18.765625 240.84375 20.230469 240.84375 22.027344 C 240.84375 23.824219 242.300781 25.289062 244.09375 25.289062 C 245.886719 25.289062 247.34375 23.824219 247.34375 22.027344 C 247.34375 20.230469 245.886719 18.765625 244.09375 18.765625"/></g><path d="M 133.019531 37.207031 C 131.222656 37.207031 129.765625 38.671875 129.765625 40.46875 C 129.765625 42.265625 131.222656 43.726562 133.019531 43.726562 C 134.8125 43.726562 136.269531 42.265625 136.269531 40.46875 C 136.269531 38.671875 134.8125 37.207031 133.019531 37.207031"/><path d="M 151.53125 37.207031 C 149.738281 37.207031 148.277344 38.671875 148.277344 40.46875 C 148.277344 42.265625 149.738281 43.726562 151.53125 43.726562 C 153.324219 43.726562 154.78125 42.265625 154.78125 40.46875 C 154.78125 38.671875 153.324219 37.207031 151.53125 37.207031"/><path d="M 170.042969 37.207031 C 168.25 37.207031 166.792969 38.671875 166.792969 40.46875 C 166.792969 42.265625 168.25 43.726562 170.042969 43.726562 C 171.835938 43.726562 173.292969 42.265625 173.292969 40.46875 C 173.292969 38.671875 171.835938 37.207031 170.042969 37.207031"/><path d="M 188.554688 37.207031 C 186.761719 37.207031 185.304688 38.671875 185.304688 40.46875 C 185.304688 42.265625 186.761719 43.726562 188.554688 43.726562 C 190.347656 43.726562 191.808594 42.265625 191.808594 40.46875 C 191.808594 38.671875 190.347656 37.207031 188.554688 37.207031"/><path d="M 207.066406 37.207031 C 205.277344 37.207031 203.816406 38.671875 203.816406 40.46875 C 203.816406 42.265625 205.277344 43.726562 207.066406 43.726562 C 208.859375 43.726562 210.320312 42.265625 210.320312 40.46875 C 210.320312 38.671875 208.859375 37.207031 207.066406 37.207031"/><path d="M 225.582031 37.207031 C 223.789062 37.207031 222.328125 38.671875 222.328125 40.46875 C 222.328125 42.265625 223.789062 43.726562 225.582031 43.726562 C 227.375 43.726562 228.832031 42.265625 228.832031 40.46875 C 228.832031 38.671875 227.375 37.207031 225.582031 37.207031"/><g clip-path="url(#w)"><path d="M 244.09375 37.207031 C 242.300781 37.207031 240.84375 38.671875 240.84375 40.46875 C 240.84375 42.265625 242.300781 43.726562 244.09375 43.726562 C 245.886719 43.726562 247.34375 42.265625 247.34375 40.46875 C 247.34375 38.671875 245.886719 37.207031 244.09375 37.207031"/></g><path d="M 133.019531 55.769531 C 131.222656 55.769531 129.765625 57.230469 129.765625 59.027344 C 129.765625 60.828125 131.222656 62.289062 133.019531 62.289062 C 134.8125 62.289062 136.269531 60.828125 136.269531 59.027344 C 136.269531 57.230469 134.8125 55.769531 133.019531 55.769531"/><path d="M 151.53125 55.769531 C 149.738281 55.769531 148.277344 57.230469 148.277344 59.027344 C 148.277344 60.828125 149.738281 62.289062 151.53125 62.289062 C 153.324219 62.289062 154.78125 60.828125 154.78125 59.027344 C 154.78125 57.230469 153.324219 55.769531 151.53125 55.769531"/><path d="M 170.042969 55.769531 C 168.25 55.769531 166.792969 57.230469 166.792969 59.027344 C 166.792969 60.828125 168.25 62.289062 170.042969 62.289062 C 171.835938 62.289062 173.292969 60.828125 173.292969 59.027344 C 173.292969 57.230469 171.835938 55.769531 170.042969 55.769531"/><path d="M 188.554688 55.769531 C 186.761719 55.769531 185.304688 57.230469 185.304688 59.027344 C 185.304688 60.828125 186.761719 62.289062 188.554688 62.289062 C 190.347656 62.289062 191.808594 60.828125 191.808594 59.027344 C 191.808594 57.230469 190.347656 55.769531 188.554688 55.769531"/><path d="M 207.066406 55.769531 C 205.277344 55.769531 203.816406 57.230469 203.816406 59.027344 C 203.816406 60.828125 205.277344 62.289062 207.066406 62.289062 C 208.859375 62.289062 210.320312 60.828125 210.320312 59.027344 C 210.320312 57.230469 208.859375 55.769531 207.066406 55.769531"/><path d="M 225.582031 55.769531 C 223.789062 55.769531 222.328125 57.230469 222.328125 59.027344 C 222.328125 60.828125 223.789062 62.289062 225.582031 62.289062 C 227.375 62.289062 228.832031 60.828125 228.832031 59.027344 C 228.832031 57.230469 227.375 55.769531 225.582031 55.769531"/><g clip-path="url(#x)"><path d="M 244.09375 55.769531 C 242.300781 55.769531 240.84375 57.230469 240.84375 59.027344 C 240.84375 60.828125 242.300781 62.289062 244.09375 62.289062 C 245.886719 62.289062 247.34375 60.828125 247.34375 59.027344 C 247.34375 57.230469 245.886719 55.769531 244.09375 55.769531"/></g><path d="M 133.019531 74.324219 C 131.222656 74.324219 129.765625 75.789062 129.765625 77.585938 C 129.765625 79.382812 131.222656 80.84375 133.019531 80.84375 C 134.8125 80.84375 136.269531 79.382812 136.269531 77.585938 C 136.269531 75.789062 134.8125 74.324219 133.019531 74.324219"/><path d="M 151.53125 74.324219 C 149.738281 74.324219 148.277344 75.789062 148.277344 77.585938 C 148.277344 79.382812 149.738281 80.84375 151.53125 80.84375 C 153.324219 80.84375 154.78125 79.382812 154.78125 77.585938 C 154.78125 75.789062 153.324219 74.324219 151.53125 74.324219"/><path d="M 170.042969 74.324219 C 168.25 74.324219 166.792969 75.789062 166.792969 77.585938 C 166.792969 79.382812 168.25 80.84375 170.042969 80.84375 C 171.835938 80.84375 173.292969 79.382812 173.292969 77.585938 C 173.292969 75.789062 171.835938 74.324219 170.042969 74.324219"/><path d="M 188.554688 74.324219 C 186.761719 74.324219 185.304688 75.789062 185.304688 77.585938 C 185.304688 79.382812 186.761719 80.84375 188.554688 80.84375 C 190.347656 80.84375 191.808594 79.382812 191.808594 77.585938 C 191.808594 75.789062 190.347656 74.324219 188.554688 74.324219"/><path d="M 207.066406 74.324219 C 205.277344 74.324219 203.816406 75.789062 203.816406 77.585938 C 203.816406 79.382812 205.277344 80.84375 207.066406 80.84375 C 208.859375 80.84375 210.320312 79.382812 210.320312 77.585938 C 210.320312 75.789062 208.859375 74.324219 207.066406 74.324219"/><path d="M 225.582031 74.324219 C 223.789062 74.324219 222.328125 75.789062 222.328125 77.585938 C 222.328125 79.382812 223.789062 80.84375 225.582031 80.84375 C 227.375 80.84375 228.832031 79.382812 228.832031 77.585938 C 228.832031 75.789062 227.375 74.324219 225.582031 74.324219"/><g clip-path="url(#y)"><path d="M 244.09375 74.324219 C 242.300781 74.324219 240.84375 75.789062 240.84375 77.585938 C 240.84375 79.382812 242.300781 80.84375 244.09375 80.84375 C 245.886719 80.84375 247.34375 79.382812 247.34375 77.585938 C 247.34375 75.789062 245.886719 74.324219 244.09375 74.324219"/></g><path d="M 133.019531 92.765625 C 131.222656 92.765625 129.765625 94.226562 129.765625 96.023438 C 129.765625 97.824219 131.222656 99.285156 133.019531 99.285156 C 134.8125 99.285156 136.269531 97.824219 136.269531 96.023438 C 136.269531 94.226562 134.8125 92.765625 133.019531 92.765625"/><path d="M 151.53125 92.765625 C 149.738281 92.765625 148.277344 94.226562 148.277344 96.023438 C 148.277344 97.824219 149.738281 99.285156 151.53125 99.285156 C 153.324219 99.285156 154.78125 97.824219 154.78125 96.023438 C 154.78125 94.226562 153.324219 92.765625 151.53125 92.765625"/><path d="M 170.042969 92.765625 C 168.25 92.765625 166.792969 94.226562 166.792969 96.023438 C 166.792969 97.824219 168.25 99.285156 170.042969 99.285156 C 171.835938 99.285156 173.292969 97.824219 173.292969 96.023438 C 173.292969 94.226562 171.835938 92.765625 170.042969 92.765625"/><path d="M 188.554688 92.765625 C 186.761719 92.765625 185.304688 94.226562 185.304688 96.023438 C 185.304688 97.824219 186.761719 99.285156 188.554688 99.285156 C 190.347656 99.285156 191.808594 97.824219 191.808594 96.023438 C 191.808594 94.226562 190.347656 92.765625 188.554688 92.765625"/><path d="M 207.066406 92.765625 C 205.277344 92.765625 203.816406 94.226562 203.816406 96.023438 C 203.816406 97.824219 205.277344 99.285156 207.066406 99.285156 C 208.859375 99.285156 210.320312 97.824219 210.320312 96.023438 C 210.320312 94.226562 208.859375 92.765625 207.066406 92.765625"/><path d="M 225.582031 92.765625 C 223.789062 92.765625 222.328125 94.226562 222.328125 96.023438 C 222.328125 97.824219 223.789062 99.285156 225.582031 99.285156 C 227.375 99.285156 228.832031 97.824219 228.832031 96.023438 C 228.832031 94.226562 227.375 92.765625 225.582031 92.765625"/><g clip-path="url(#z)"><path d="M 244.09375 92.765625 C 242.300781 92.765625 240.84375 94.226562 240.84375 96.023438 C 240.84375 97.824219 242.300781 99.285156 244.09375 99.285156 C 245.886719 99.285156 247.34375 97.824219 247.34375 96.023438 C 247.34375 94.226562 245.886719 92.765625 244.09375 92.765625"/></g><g clip-path="url(#A)"><path d="M 133.019531 111.441406 C 131.222656 111.441406 129.765625 112.90625 129.765625 114.703125 C 129.765625 116.5 131.222656 117.960938 133.019531 117.960938 C 134.8125 117.960938 136.269531 116.5 136.269531 114.703125 C 136.269531 112.90625 134.8125 111.441406 133.019531 111.441406"/></g><g clip-path="url(#B)"><path d="M 151.53125 111.441406 C 149.738281 111.441406 148.277344 112.90625 148.277344 114.703125 C 148.277344 116.5 149.738281 117.960938 151.53125 117.960938 C 153.324219 117.960938 154.78125 116.5 154.78125 114.703125 C 154.78125 112.90625 153.324219 111.441406 151.53125 111.441406"/></g><g clip-path="url(#C)"><path d="M 170.042969 111.441406 C 168.25 111.441406 166.792969 112.90625 166.792969 114.703125 C 166.792969 116.5 168.25 117.960938 170.042969 117.960938 C 171.835938 117.960938 173.292969 116.5 173.292969 114.703125 C 173.292969 112.90625 171.835938 111.441406 170.042969 111.441406"/></g><g clip-path="url(#D)"><path d="M 188.554688 111.441406 C 186.761719 111.441406 185.304688 112.90625 185.304688 114.703125 C 185.304688 116.5 186.761719 117.960938 188.554688 117.960938 C 190.347656 117.960938 191.808594 116.5 191.808594 114.703125 C 191.808594 112.90625 190.347656 111.441406 188.554688 111.441406"/></g><g clip-path="url(#E)"><path d="M 207.066406 111.441406 C 205.277344 111.441406 203.816406 112.90625 203.816406 114.703125 C 203.816406 116.5 205.277344 117.960938 207.066406 117.960938 C 208.859375 117.960938 210.320312 116.5 210.320312 114.703125 C 210.320312 112.90625 208.859375 111.441406 207.066406 111.441406"/></g><g clip-path="url(#F)"><path d="M 225.582031 111.441406 C 223.789062 111.441406 222.328125 112.90625 222.328125 114.703125 C 222.328125 116.5 223.789062 117.960938 225.582031 117.960938 C 227.375 117.960938 228.832031 116.5 228.832031 114.703125 C 228.832031 112.90625 227.375 111.441406 225.582031 111.441406"/></g><g clip-path="url(#G)"><path d="M 244.09375 111.441406 C 242.300781 111.441406 240.84375 112.90625 240.84375 114.703125 C 240.84375 116.5 242.300781 117.960938 244.09375 117.960938 C 245.886719 117.960938 247.34375 116.5 247.34375 114.703125 C 247.34375 112.90625 245.886719 111.441406 244.09375 111.441406"/></g><g clip-path="url(#H)"><path d="M 3.4375 128.988281 C 1.644531 128.988281 0.1875 130.449219 0.1875 132.246094 C 0.1875 134.042969 1.644531 135.507812 3.4375 135.507812 C 5.230469 135.507812 6.6875 134.042969 6.6875 132.246094 C 6.6875 130.449219 5.230469 128.988281 3.4375 128.988281"/></g><g clip-path="url(#I)"><path d="M 21.949219 128.988281 C 20.15625 128.988281 18.699219 130.449219 18.699219 132.246094 C 18.699219 134.042969 20.15625 135.507812 21.949219 135.507812 C 23.742188 135.507812 25.203125 134.042969 25.203125 132.246094 C 25.203125 130.449219 23.742188 128.988281 21.949219 128.988281"/></g><g clip-path="url(#J)"><path d="M 40.460938 128.988281 C 38.667969 128.988281 37.210938 130.449219 37.210938 132.246094 C 37.210938 134.042969 38.667969 135.507812 40.460938 135.507812 C 42.253906 135.507812 43.714844 134.042969 43.714844 132.246094 C 43.714844 130.449219 42.253906 128.988281 40.460938 128.988281"/></g><g clip-path="url(#K)"><path d="M 58.976562 128.988281 C 57.183594 128.988281 55.722656 130.449219 55.722656 132.246094 C 55.722656 134.042969 57.183594 135.507812 58.976562 135.507812 C 60.769531 135.507812 62.226562 134.042969 62.226562 132.246094 C 62.226562 130.449219 60.769531 128.988281 58.976562 128.988281"/></g><g clip-path="url(#L)"><path d="M 77.488281 128.988281 C 75.695312 128.988281 74.238281 130.449219 74.238281 132.246094 C 74.238281 134.042969 75.695312 135.507812 77.488281 135.507812 C 79.28125 135.507812 80.738281 134.042969 80.738281 132.246094 C 80.738281 130.449219 79.28125 128.988281 77.488281 128.988281"/></g><g clip-path="url(#M)"><path d="M 96 128.988281 C 94.207031 128.988281 92.746094 130.449219 92.746094 132.246094 C 92.746094 134.042969 94.207031 135.507812 96 135.507812 C 97.792969 135.507812 99.25 134.042969 99.25 132.246094 C 99.25 130.449219 97.792969 128.988281 96 128.988281"/></g><g clip-path="url(#N)"><path d="M 114.511719 128.988281 C 112.71875 128.988281 111.261719 130.449219 111.261719 132.246094 C 111.261719 134.042969 112.71875 135.507812 114.511719 135.507812 C 116.304688 135.507812 117.765625 134.042969 117.765625 132.246094 C 117.765625 130.449219 116.304688 128.988281 114.511719 128.988281"/></g><path d="M 3.4375 147.542969 C 1.644531 147.542969 0.1875 149.003906 0.1875 150.804688 C 0.1875 152.601562 1.644531 154.0625 3.4375 154.0625 C 5.230469 154.0625 6.6875 152.601562 6.6875 150.804688 C 6.6875 149.003906 5.230469 147.542969 3.4375 147.542969"/><path d="M 21.949219 147.542969 C 20.15625 147.542969 18.699219 149.003906 18.699219 150.804688 C 18.699219 152.601562 20.15625 154.0625 21.949219 154.0625 C 23.742188 154.0625 25.203125 152.601562 25.203125 150.804688 C 25.203125 149.003906 23.742188 147.542969 21.949219 147.542969"/><path d="M 40.460938 147.542969 C 38.667969 147.542969 37.210938 149.003906 37.210938 150.804688 C 37.210938 152.601562 38.667969 154.0625 40.460938 154.0625 C 42.253906 154.0625 43.714844 152.601562 43.714844 150.804688 C 43.714844 149.003906 42.253906 147.542969 40.460938 147.542969"/><path d="M 58.976562 147.542969 C 57.183594 147.542969 55.722656 149.003906 55.722656 150.804688 C 55.722656 152.601562 57.183594 154.0625 58.976562 154.0625 C 60.769531 154.0625 62.226562 152.601562 62.226562 150.804688 C 62.226562 149.003906 60.769531 147.542969 58.976562 147.542969"/><path d="M 77.488281 147.542969 C 75.695312 147.542969 74.238281 149.003906 74.238281 150.804688 C 74.238281 152.601562 75.695312 154.0625 77.488281 154.0625 C 79.28125 154.0625 80.738281 152.601562 80.738281 150.804688 C 80.738281 149.003906 79.28125 147.542969 77.488281 147.542969"/><path d="M 96 147.542969 C 94.207031 147.542969 92.746094 149.003906 92.746094 150.804688 C 92.746094 152.601562 94.207031 154.0625 96 154.0625 C 97.792969 154.0625 99.25 152.601562 99.25 150.804688 C 99.25 149.003906 97.792969 147.542969 96 147.542969"/><path d="M 114.511719 147.542969 C 112.71875 147.542969 111.261719 149.003906 111.261719 150.804688 C 111.261719 152.601562 112.71875 154.0625 114.511719 154.0625 C 116.304688 154.0625 117.765625 152.601562 117.765625 150.804688 C 117.765625 149.003906 116.304688 147.542969 114.511719 147.542969"/><path d="M 3.4375 165.984375 C 1.644531 165.984375 0.1875 167.445312 0.1875 169.242188 C 0.1875 171.042969 1.644531 172.503906 3.4375 172.503906 C 5.230469 172.503906 6.6875 171.042969 6.6875 169.242188 C 6.6875 167.445312 5.230469 165.984375 3.4375 165.984375"/><path d="M 21.949219 165.984375 C 20.15625 165.984375 18.699219 167.445312 18.699219 169.242188 C 18.699219 171.042969 20.15625 172.503906 21.949219 172.503906 C 23.742188 172.503906 25.203125 171.042969 25.203125 169.242188 C 25.203125 167.445312 23.742188 165.984375 21.949219 165.984375"/><path d="M 40.460938 165.984375 C 38.667969 165.984375 37.210938 167.445312 37.210938 169.242188 C 37.210938 171.042969 38.667969 172.503906 40.460938 172.503906 C 42.253906 172.503906 43.714844 171.042969 43.714844 169.242188 C 43.714844 167.445312 42.253906 165.984375 40.460938 165.984375"/><path d="M 58.976562 165.984375 C 57.183594 165.984375 55.722656 167.445312 55.722656 169.242188 C 55.722656 171.042969 57.183594 172.503906 58.976562 172.503906 C 60.769531 172.503906 62.226562 171.042969 62.226562 169.242188 C 62.226562 167.445312 60.769531 165.984375 58.976562 165.984375"/><path d="M 77.488281 165.984375 C 75.695312 165.984375 74.238281 167.445312 74.238281 169.242188 C 74.238281 171.042969 75.695312 172.503906 77.488281 172.503906 C 79.28125 172.503906 80.738281 171.042969 80.738281 169.242188 C 80.738281 167.445312 79.28125 165.984375 77.488281 165.984375"/><path d="M 96 165.984375 C 94.207031 165.984375 92.746094 167.445312 92.746094 169.242188 C 92.746094 171.042969 94.207031 172.503906 96 172.503906 C 97.792969 172.503906 99.25 171.042969 99.25 169.242188 C 99.25 167.445312 97.792969 165.984375 96 165.984375"/><path d="M 114.511719 165.984375 C 112.71875 165.984375 111.261719 167.445312 111.261719 169.242188 C 111.261719 171.042969 112.71875 172.503906 114.511719 172.503906 C 116.304688 172.503906 117.765625 171.042969 117.765625 169.242188 C 117.765625 167.445312 116.304688 165.984375 114.511719 165.984375"/><path d="M 3.4375 184.542969 C 1.644531 184.542969 0.1875 186.007812 0.1875 187.804688 C 0.1875 189.601562 1.644531 191.0625 3.4375 191.0625 C 5.230469 191.0625 6.6875 189.601562 6.6875 187.804688 C 6.6875 186.007812 5.230469 184.542969 3.4375 184.542969"/><path d="M 21.949219 184.542969 C 20.15625 184.542969 18.699219 186.007812 18.699219 187.804688 C 18.699219 189.601562 20.15625 191.0625 21.949219 191.0625 C 23.742188 191.0625 25.203125 189.601562 25.203125 187.804688 C 25.203125 186.007812 23.742188 184.542969 21.949219 184.542969"/><path d="M 40.460938 184.542969 C 38.667969 184.542969 37.210938 186.007812 37.210938 187.804688 C 37.210938 189.601562 38.667969 191.0625 40.460938 191.0625 C 42.253906 191.0625 43.714844 189.601562 43.714844 187.804688 C 43.714844 186.007812 42.253906 184.542969 40.460938 184.542969"/><path d="M 58.976562 184.542969 C 57.183594 184.542969 55.722656 186.007812 55.722656 187.804688 C 55.722656 189.601562 57.183594 191.0625 58.976562 191.0625 C 60.769531 191.0625 62.226562 189.601562 62.226562 187.804688 C 62.226562 186.007812 60.769531 184.542969 58.976562 184.542969"/><path d="M 77.488281 184.542969 C 75.695312 184.542969 74.238281 186.007812 74.238281 187.804688 C 74.238281 189.601562 75.695312 191.0625 77.488281 191.0625 C 79.28125 191.0625 80.738281 189.601562 80.738281 187.804688 C 80.738281 186.007812 79.28125 184.542969 77.488281 184.542969"/><path d="M 96 184.542969 C 94.207031 184.542969 92.746094 186.007812 92.746094 187.804688 C 92.746094 189.601562 94.207031 191.0625 96 191.0625 C 97.792969 191.0625 99.25 189.601562 99.25 187.804688 C 99.25 186.007812 97.792969 184.542969 96 184.542969"/><path d="M 114.511719 184.542969 C 112.71875 184.542969 111.261719 186.007812 111.261719 187.804688 C 111.261719 189.601562 112.71875 191.0625 114.511719 191.0625 C 116.304688 191.0625 117.765625 189.601562 117.765625 187.804688 C 117.765625 186.007812 116.304688 184.542969 114.511719 184.542969"/><g clip-path="url(#O)"><path d="M 3.4375 203.097656 C 1.644531 203.097656 0.1875 204.5625 0.1875 206.359375 C 0.1875 208.15625 1.644531 209.621094 3.4375 209.621094 C 5.230469 209.621094 6.6875 208.15625 6.6875 206.359375 C 6.6875 204.5625 5.230469 203.097656 3.4375 203.097656"/></g><g clip-path="url(#P)"><path d="M 21.949219 203.097656 C 20.15625 203.097656 18.699219 204.5625 18.699219 206.359375 C 18.699219 208.15625 20.15625 209.621094 21.949219 209.621094 C 23.742188 209.621094 25.203125 208.15625 25.203125 206.359375 C 25.203125 204.5625 23.742188 203.097656 21.949219 203.097656"/></g><g clip-path="url(#Q)"><path d="M 40.460938 203.097656 C 38.667969 203.097656 37.210938 204.5625 37.210938 206.359375 C 37.210938 208.15625 38.667969 209.621094 40.460938 209.621094 C 42.253906 209.621094 43.714844 208.15625 43.714844 206.359375 C 43.714844 204.5625 42.253906 203.097656 40.460938 203.097656"/></g><g clip-path="url(#R)"><path d="M 58.976562 203.097656 C 57.183594 203.097656 55.722656 204.5625 55.722656 206.359375 C 55.722656 208.15625 57.183594 209.621094 58.976562 209.621094 C 60.769531 209.621094 62.226562 208.15625 62.226562 206.359375 C 62.226562 204.5625 60.769531 203.097656 58.976562 203.097656"/></g><g clip-path="url(#S)"><path d="M 77.488281 203.097656 C 75.695312 203.097656 74.238281 204.5625 74.238281 206.359375 C 74.238281 208.15625 75.695312 209.621094 77.488281 209.621094 C 79.28125 209.621094 80.738281 208.15625 80.738281 206.359375 C 80.738281 204.5625 79.28125 203.097656 77.488281 203.097656"/></g><g clip-path="url(#T)"><path d="M 96 203.097656 C 94.207031 203.097656 92.746094 204.5625 92.746094 206.359375 C 92.746094 208.15625 94.207031 209.621094 96 209.621094 C 97.792969 209.621094 99.25 208.15625 99.25 206.359375 C 99.25 204.5625 97.792969 203.097656 96 203.097656"/></g><g clip-path="url(#U)"><path d="M 114.511719 203.097656 C 112.71875 203.097656 111.261719 204.5625 111.261719 206.359375 C 111.261719 208.15625 112.71875 209.621094 114.511719 209.621094 C 116.304688 209.621094 117.765625 208.15625 117.765625 206.359375 C 117.765625 204.5625 116.304688 203.097656 114.511719 203.097656"/></g><g clip-path="url(#V)"><path d="M 133.019531 128.988281 C 131.222656 128.988281 129.765625 130.449219 129.765625 132.246094 C 129.765625 134.042969 131.222656 135.507812 133.019531 135.507812 C 134.8125 135.507812 136.269531 134.042969 136.269531 132.246094 C 136.269531 130.449219 134.8125 128.988281 133.019531 128.988281"/></g><g clip-path="url(#W)"><path d="M 151.53125 128.988281 C 149.738281 128.988281 148.277344 130.449219 148.277344 132.246094 C 148.277344 134.042969 149.738281 135.507812 151.53125 135.507812 C 153.324219 135.507812 154.78125 134.042969 154.78125 132.246094 C 154.78125 130.449219 153.324219 128.988281 151.53125 128.988281"/></g><g clip-path="url(#X)"><path d="M 170.042969 128.988281 C 168.25 128.988281 166.792969 130.449219 166.792969 132.246094 C 166.792969 134.042969 168.25 135.507812 170.042969 135.507812 C 171.835938 135.507812 173.292969 134.042969 173.292969 132.246094 C 173.292969 130.449219 171.835938 128.988281 170.042969 128.988281"/></g><g clip-path="url(#Y)"><path d="M 188.554688 128.988281 C 186.761719 128.988281 185.304688 130.449219 185.304688 132.246094 C 185.304688 134.042969 186.761719 135.507812 188.554688 135.507812 C 190.347656 135.507812 191.808594 134.042969 191.808594 132.246094 C 191.808594 130.449219 190.347656 128.988281 188.554688 128.988281"/></g><g clip-path="url(#Z)"><path d="M 207.066406 128.988281 C 205.277344 128.988281 203.816406 130.449219 203.816406 132.246094 C 203.816406 134.042969 205.277344 135.507812 207.066406 135.507812 C 208.859375 135.507812 210.320312 134.042969 210.320312 132.246094 C 210.320312 130.449219 208.859375 128.988281 207.066406 128.988281"/></g><g clip-path="url(#aa)"><path d="M 225.582031 128.988281 C 223.789062 128.988281 222.328125 130.449219 222.328125 132.246094 C 222.328125 134.042969 223.789062 135.507812 225.582031 135.507812 C 227.375 135.507812 228.832031 134.042969 228.832031 132.246094 C 228.832031 130.449219 227.375 128.988281 225.582031 128.988281"/></g><g clip-path="url(#ab)"><path d="M 244.09375 135.507812 C 245.886719 135.507812 247.34375 134.042969 247.34375 132.246094 C 247.34375 130.449219 245.886719 128.988281 244.09375 128.988281 C 242.300781 128.988281 240.84375 130.449219 240.84375 132.246094 C 240.84375 134.042969 242.300781 135.507812 244.09375 135.507812"/></g><path d="M 133.019531 147.542969 C 131.222656 147.542969 129.765625 149.003906 129.765625 150.804688 C 129.765625 152.601562 131.222656 154.0625 133.019531 154.0625 C 134.8125 154.0625 136.269531 152.601562 136.269531 150.804688 C 136.269531 149.003906 134.8125 147.542969 133.019531 147.542969"/><path d="M 151.53125 147.542969 C 149.738281 147.542969 148.277344 149.003906 148.277344 150.804688 C 148.277344 152.601562 149.738281 154.0625 151.53125 154.0625 C 153.324219 154.0625 154.78125 152.601562 154.78125 150.804688 C 154.78125 149.003906 153.324219 147.542969 151.53125 147.542969"/><path d="M 170.042969 147.542969 C 168.25 147.542969 166.792969 149.003906 166.792969 150.804688 C 166.792969 152.601562 168.25 154.0625 170.042969 154.0625 C 171.835938 154.0625 173.292969 152.601562 173.292969 150.804688 C 173.292969 149.003906 171.835938 147.542969 170.042969 147.542969"/><path d="M 188.554688 147.542969 C 186.761719 147.542969 185.304688 149.003906 185.304688 150.804688 C 185.304688 152.601562 186.761719 154.0625 188.554688 154.0625 C 190.347656 154.0625 191.808594 152.601562 191.808594 150.804688 C 191.808594 149.003906 190.347656 147.542969 188.554688 147.542969"/><path d="M 207.066406 147.542969 C 205.277344 147.542969 203.816406 149.003906 203.816406 150.804688 C 203.816406 152.601562 205.277344 154.0625 207.066406 154.0625 C 208.859375 154.0625 210.320312 152.601562 210.320312 150.804688 C 210.320312 149.003906 208.859375 147.542969 207.066406 147.542969"/><path d="M 225.582031 147.542969 C 223.789062 147.542969 222.328125 149.003906 222.328125 150.804688 C 222.328125 152.601562 223.789062 154.0625 225.582031 154.0625 C 227.375 154.0625 228.832031 152.601562 228.832031 150.804688 C 228.832031 149.003906 227.375 147.542969 225.582031 147.542969"/><g clip-path="url(#ac)"><path d="M 244.09375 147.542969 C 242.300781 147.542969 240.84375 149.003906 240.84375 150.804688 C 240.84375 152.601562 242.300781 154.0625 244.09375 154.0625 C 245.886719 154.0625 247.34375 152.601562 247.34375 150.804688 C 247.34375 149.003906 245.886719 147.542969 244.09375 147.542969"/></g><path d="M 133.019531 165.984375 C 131.222656 165.984375 129.765625 167.445312 129.765625 169.242188 C 129.765625 171.042969 131.222656 172.503906 133.019531 172.503906 C 134.8125 172.503906 136.269531 171.042969 136.269531 169.242188 C 136.269531 167.445312 134.8125 165.984375 133.019531 165.984375"/><path d="M 151.53125 165.984375 C 149.738281 165.984375 148.277344 167.445312 148.277344 169.242188 C 148.277344 171.042969 149.738281 172.503906 151.53125 172.503906 C 153.324219 172.503906 154.78125 171.042969 154.78125 169.242188 C 154.78125 167.445312 153.324219 165.984375 151.53125 165.984375"/><path d="M 170.042969 165.984375 C 168.25 165.984375 166.792969 167.445312 166.792969 169.242188 C 166.792969 171.042969 168.25 172.503906 170.042969 172.503906 C 171.835938 172.503906 173.292969 171.042969 173.292969 169.242188 C 173.292969 167.445312 171.835938 165.984375 170.042969 165.984375"/><path d="M 188.554688 165.984375 C 186.761719 165.984375 185.304688 167.445312 185.304688 169.242188 C 185.304688 171.042969 186.761719 172.503906 188.554688 172.503906 C 190.347656 172.503906 191.808594 171.042969 191.808594 169.242188 C 191.808594 167.445312 190.347656 165.984375 188.554688 165.984375"/><path d="M 207.066406 165.984375 C 205.277344 165.984375 203.816406 167.445312 203.816406 169.242188 C 203.816406 171.042969 205.277344 172.503906 207.066406 172.503906 C 208.859375 172.503906 210.320312 171.042969 210.320312 169.242188 C 210.320312 167.445312 208.859375 165.984375 207.066406 165.984375"/><path d="M 225.582031 165.984375 C 223.789062 165.984375 222.328125 167.445312 222.328125 169.242188 C 222.328125 171.042969 223.789062 172.503906 225.582031 172.503906 C 227.375 172.503906 228.832031 171.042969 228.832031 169.242188 C 228.832031 167.445312 227.375 165.984375 225.582031 165.984375"/><g clip-path="url(#ad)"><path d="M 244.09375 165.984375 C 242.300781 165.984375 240.84375 167.445312 240.84375 169.242188 C 240.84375 171.042969 242.300781 172.503906 244.09375 172.503906 C 245.886719 172.503906 247.34375 171.042969 247.34375 169.242188 C 247.34375 167.445312 245.886719 165.984375 244.09375 165.984375"/></g><path d="M 133.019531 184.542969 C 131.222656 184.542969 129.765625 186.007812 129.765625 187.804688 C 129.765625 189.601562 131.222656 191.0625 133.019531 191.0625 C 134.8125 191.0625 136.269531 189.601562 136.269531 187.804688 C 136.269531 186.007812 134.8125 184.542969 133.019531 184.542969"/><path d="M 151.53125 184.542969 C 149.738281 184.542969 148.277344 186.007812 148.277344 187.804688 C 148.277344 189.601562 149.738281 191.0625 151.53125 191.0625 C 153.324219 191.0625 154.78125 189.601562 154.78125 187.804688 C 154.78125 186.007812 153.324219 184.542969 151.53125 184.542969"/><path d="M 170.042969 184.542969 C 168.25 184.542969 166.792969 186.007812 166.792969 187.804688 C 166.792969 189.601562 168.25 191.0625 170.042969 191.0625 C 171.835938 191.0625 173.292969 189.601562 173.292969 187.804688 C 173.292969 186.007812 171.835938 184.542969 170.042969 184.542969"/><path d="M 188.554688 184.542969 C 186.761719 184.542969 185.304688 186.007812 185.304688 187.804688 C 185.304688 189.601562 186.761719 191.0625 188.554688 191.0625 C 190.347656 191.0625 191.808594 189.601562 191.808594 187.804688 C 191.808594 186.007812 190.347656 184.542969 188.554688 184.542969"/><path d="M 207.066406 184.542969 C 205.277344 184.542969 203.816406 186.007812 203.816406 187.804688 C 203.816406 189.601562 205.277344 191.0625 207.066406 191.0625 C 208.859375 191.0625 210.320312 189.601562 210.320312 187.804688 C 210.320312 186.007812 208.859375 184.542969 207.066406 184.542969"/><path d="M 225.582031 184.542969 C 223.789062 184.542969 222.328125 186.007812 222.328125 187.804688 C 222.328125 189.601562 223.789062 191.0625 225.582031 191.0625 C 227.375 191.0625 228.832031 189.601562 228.832031 187.804688 C 228.832031 186.007812 227.375 184.542969 225.582031 184.542969"/><g clip-path="url(#ae)"><path d="M 244.09375 184.542969 C 242.300781 184.542969 240.84375 186.007812 240.84375 187.804688 C 240.84375 189.601562 242.300781 191.0625 244.09375 191.0625 C 245.886719 191.0625 247.34375 189.601562 247.34375 187.804688 C 247.34375 186.007812 245.886719 184.542969 244.09375 184.542969"/></g><g clip-path="url(#af)"><path d="M 133.019531 203.097656 C 131.222656 203.097656 129.765625 204.5625 129.765625 206.359375 C 129.765625 208.15625 131.222656 209.621094 133.019531 209.621094 C 134.8125 209.621094 136.269531 208.15625 136.269531 206.359375 C 136.269531 204.5625 134.8125 203.097656 133.019531 203.097656"/></g><g clip-path="url(#ag)"><path d="M 151.53125 203.097656 C 149.738281 203.097656 148.277344 204.5625 148.277344 206.359375 C 148.277344 208.15625 149.738281 209.621094 151.53125 209.621094 C 153.324219 209.621094 154.78125 208.15625 154.78125 206.359375 C 154.78125 204.5625 153.324219 203.097656 151.53125 203.097656"/></g><g clip-path="url(#ah)"><path d="M 170.042969 203.097656 C 168.25 203.097656 166.792969 204.5625 166.792969 206.359375 C 166.792969 208.15625 168.25 209.621094 170.042969 209.621094 C 171.835938 209.621094 173.292969 208.15625 173.292969 206.359375 C 173.292969 204.5625 171.835938 203.097656 170.042969 203.097656"/></g><g clip-path="url(#ai)"><path d="M 188.554688 203.097656 C 186.761719 203.097656 185.304688 204.5625 185.304688 206.359375 C 185.304688 208.15625 186.761719 209.621094 188.554688 209.621094 C 190.347656 209.621094 191.808594 208.15625 191.808594 206.359375 C 191.808594 204.5625 190.347656 203.097656 188.554688 203.097656"/></g><g clip-path="url(#aj)"><path d="M 207.066406 203.097656 C 205.277344 203.097656 203.816406 204.5625 203.816406 206.359375 C 203.816406 208.15625 205.277344 209.621094 207.066406 209.621094 C 208.859375 209.621094 210.320312 208.15625 210.320312 206.359375 C 210.320312 204.5625 208.859375 203.097656 207.066406 203.097656"/></g><g clip-path="url(#ak)"><path d="M 225.582031 203.097656 C 223.789062 203.097656 222.328125 204.5625 222.328125 206.359375 C 222.328125 208.15625 223.789062 209.621094 225.582031 209.621094 C 227.375 209.621094 228.832031 208.15625 228.832031 206.359375 C 228.832031 204.5625 227.375 203.097656 225.582031 203.097656"/></g><g clip-path="url(#al)"><path d="M 244.09375 203.097656 C 242.300781 203.097656 240.84375 204.5625 240.84375 206.359375 C 240.84375 208.15625 242.300781 209.621094 244.09375 209.621094 C 245.886719 209.621094 247.34375 208.15625 247.34375 206.359375 C 247.34375 204.5625 245.886719 203.097656 244.09375 203.097656"/></g></svg>