<svg xmlns="http://www.w3.org/2000/svg" width="247.5" viewBox="0 0 247.5 210" height="210" version="1.0"><defs><clipPath id="a"><path d="M 18.601562 5 L 228.601562 5 L 228.601562 205.84375 L 18.601562 205.84375 Z M 18.601562 5"/></clipPath></defs><g clip-path="url(#a)"><path fill="#9FACCD" d="M 63.355469 200.421875 C 63.335938 201.054688 63.542969 201.652344 63.90625 202.121094 C 64.027344 202.355469 64.167969 202.582031 64.320312 202.796875 C 64.429688 203.074219 64.5625 203.34375 64.71875 203.597656 C 65.363281 204.628906 66.367188 205.308594 67.414062 205.5 C 68.550781 205.871094 69.445312 205.558594 70.074219 205.171875 C 70.542969 204.875 70.976562 204.367188 71.269531 203.71875 C 71.5625 203.382812 71.828125 202.972656 72.046875 202.46875 C 72.910156 200.433594 72.007812 198.378906 70.210938 197.234375 C 70.074219 197.074219 69.933594 196.925781 69.785156 196.785156 C 68.027344 195.160156 65.949219 195.117188 64.472656 196.800781 C 63.488281 197.925781 63.191406 199.210938 63.355469 200.421875 Z M 174.410156 200.421875 C 174.390625 201.054688 174.597656 201.652344 174.960938 202.121094 C 175.085938 202.355469 175.222656 202.582031 175.375 202.796875 C 175.484375 203.074219 175.617188 203.34375 175.773438 203.597656 C 176.417969 204.628906 177.425781 205.308594 178.46875 205.5 C 179.605469 205.871094 180.5 205.558594 181.128906 205.171875 C 181.597656 204.875 182.035156 204.367188 182.320312 203.71875 C 182.621094 203.382812 182.882812 202.972656 183.101562 202.46875 C 183.964844 200.433594 183.0625 198.378906 181.265625 197.234375 C 181.128906 197.074219 180.988281 196.925781 180.839844 196.785156 C 179.082031 195.160156 177.003906 195.117188 175.527344 196.800781 C 174.542969 197.925781 174.246094 199.210938 174.410156 200.421875 Z M 107.9375 200.421875 C 107.917969 201.054688 108.121094 201.652344 108.488281 202.121094 C 108.613281 202.355469 108.75 202.582031 108.902344 202.796875 C 109.007812 203.074219 109.140625 203.34375 109.300781 203.597656 C 109.941406 204.628906 110.953125 205.308594 111.996094 205.5 C 113.132812 205.871094 114.027344 205.558594 114.652344 205.171875 C 115.128906 204.875 115.558594 204.367188 115.847656 203.71875 C 116.148438 203.382812 116.410156 202.972656 116.625 202.46875 C 117.488281 200.433594 116.589844 198.378906 114.792969 197.234375 C 114.660156 197.074219 114.511719 196.925781 114.363281 196.785156 C 112.609375 195.160156 110.53125 195.117188 109.054688 196.800781 C 108.066406 197.925781 107.769531 199.210938 107.9375 200.421875 Z M 152.515625 200.421875 C 152.496094 201.054688 152.703125 201.652344 153.070312 202.121094 C 153.191406 202.355469 153.328125 202.582031 153.480469 202.796875 C 153.589844 203.074219 153.722656 203.34375 153.878906 203.597656 C 154.523438 204.628906 155.53125 205.308594 156.574219 205.5 C 157.714844 205.871094 158.605469 205.558594 159.238281 205.171875 C 159.710938 204.875 160.140625 204.367188 160.429688 203.71875 C 160.726562 203.382812 160.996094 202.972656 161.207031 202.46875 C 162.070312 200.433594 161.167969 198.378906 159.371094 197.234375 C 159.238281 197.074219 159.09375 196.925781 158.945312 196.785156 C 157.1875 195.160156 155.109375 195.117188 153.632812 196.800781 C 152.648438 197.925781 152.351562 199.210938 152.515625 200.421875 Z M 18.777344 200.421875 C 18.75 201.054688 18.960938 201.652344 19.328125 202.121094 C 19.449219 202.355469 19.589844 202.582031 19.742188 202.796875 C 19.84375 203.074219 19.980469 203.34375 20.140625 203.597656 C 20.777344 204.628906 21.789062 205.308594 22.835938 205.5 C 23.96875 205.871094 24.867188 205.558594 25.492188 205.171875 C 25.964844 204.875 26.394531 204.367188 26.6875 203.71875 C 26.984375 203.382812 27.25 202.972656 27.464844 202.46875 C 28.328125 200.433594 27.429688 198.378906 25.632812 197.234375 C 25.492188 197.074219 25.347656 196.925781 25.203125 196.785156 C 23.449219 195.160156 21.367188 195.117188 19.894531 196.800781 C 18.902344 197.925781 18.609375 199.210938 18.777344 200.421875 Z M 40.671875 200.421875 C 40.644531 201.054688 40.855469 201.652344 41.222656 202.121094 C 41.339844 202.355469 41.480469 202.582031 41.636719 202.796875 C 41.738281 203.074219 41.875 203.34375 42.035156 203.597656 C 42.671875 204.628906 43.683594 205.308594 44.726562 205.5 C 45.863281 205.871094 46.757812 205.558594 47.386719 205.171875 C 47.859375 204.875 48.289062 204.367188 48.582031 203.71875 C 48.878906 203.382812 49.144531 202.972656 49.359375 202.46875 C 50.222656 200.433594 49.324219 198.378906 47.527344 197.234375 C 47.386719 197.074219 47.242188 196.925781 47.097656 196.785156 C 45.339844 195.160156 43.261719 195.117188 41.78125 196.800781 C 40.796875 197.925781 40.503906 199.210938 40.671875 200.421875 Z M 85.25 200.421875 C 85.230469 201.054688 85.4375 201.652344 85.800781 202.121094 C 85.921875 202.355469 86.0625 202.582031 86.214844 202.796875 C 86.324219 203.074219 86.457031 203.34375 86.613281 203.597656 C 87.253906 204.628906 88.261719 205.308594 89.308594 205.5 C 90.445312 205.871094 91.339844 205.558594 91.96875 205.171875 C 92.4375 204.875 92.871094 204.367188 93.164062 203.71875 C 93.457031 203.382812 93.722656 202.972656 93.941406 202.46875 C 94.804688 200.433594 93.902344 198.378906 92.105469 197.234375 C 91.96875 197.074219 91.828125 196.925781 91.679688 196.785156 C 89.921875 195.160156 87.839844 195.117188 86.367188 196.800781 C 85.378906 197.925781 85.082031 199.210938 85.25 200.421875 Z M 218.996094 200.421875 C 218.96875 201.054688 219.175781 201.652344 219.546875 202.121094 C 219.667969 202.355469 219.804688 202.582031 219.957031 202.796875 C 220.0625 203.074219 220.195312 203.34375 220.355469 203.597656 C 220.996094 204.628906 222.007812 205.308594 223.050781 205.5 C 224.1875 205.871094 225.085938 205.558594 225.710938 205.171875 C 226.183594 204.875 226.617188 204.367188 226.902344 203.71875 C 227.203125 203.382812 227.46875 202.972656 227.679688 202.46875 C 228.542969 200.433594 227.644531 198.378906 225.847656 197.234375 C 225.710938 197.074219 225.566406 196.925781 225.417969 196.785156 C 223.664062 195.160156 221.585938 195.117188 220.109375 196.800781 C 219.121094 197.925781 218.824219 199.210938 218.996094 200.421875 Z M 129.832031 200.421875 C 129.808594 201.054688 130.015625 201.652344 130.382812 202.121094 C 130.507812 202.355469 130.644531 202.582031 130.796875 202.796875 C 130.902344 203.074219 131.035156 203.34375 131.195312 203.597656 C 131.835938 204.628906 132.84375 205.308594 133.890625 205.5 C 135.023438 205.871094 135.921875 205.558594 136.546875 205.171875 C 137.019531 204.875 137.449219 204.367188 137.742188 203.71875 C 138.042969 203.382812 138.304688 202.972656 138.519531 202.46875 C 139.382812 200.433594 138.484375 198.378906 136.6875 197.234375 C 136.546875 197.074219 136.40625 196.925781 136.257812 196.785156 C 134.503906 195.160156 132.425781 195.117188 130.949219 196.800781 C 129.957031 197.925781 129.664062 199.210938 129.832031 200.421875 Z M 197.101562 200.421875 C 197.078125 201.054688 197.28125 201.652344 197.652344 202.121094 C 197.773438 202.355469 197.910156 202.582031 198.0625 202.796875 C 198.167969 203.074219 198.300781 203.34375 198.464844 203.597656 C 199.101562 204.628906 200.113281 205.308594 201.160156 205.5 C 202.296875 205.871094 203.191406 205.558594 203.816406 205.171875 C 204.289062 204.875 204.722656 204.367188 205.007812 203.71875 C 205.308594 203.382812 205.574219 202.972656 205.785156 202.46875 C 206.648438 200.433594 205.75 198.378906 203.953125 197.234375 C 203.820312 197.074219 203.675781 196.925781 203.527344 196.785156 C 201.769531 195.160156 199.691406 195.117188 198.214844 196.800781 C 197.230469 197.925781 196.929688 199.210938 197.101562 200.421875 Z M 63.355469 179.285156 C 63.335938 179.917969 63.542969 180.511719 63.90625 180.980469 C 64.027344 181.214844 64.167969 181.441406 64.320312 181.65625 C 64.429688 181.933594 64.5625 182.203125 64.71875 182.457031 C 65.363281 183.488281 66.367188 184.164062 67.414062 184.359375 C 68.550781 184.734375 69.445312 184.421875 70.074219 184.03125 C 70.542969 183.738281 70.976562 183.226562 71.269531 182.578125 C 71.5625 182.242188 71.828125 181.832031 72.046875 181.328125 C 72.910156 179.296875 72.007812 177.238281 70.210938 176.097656 C 70.074219 175.933594 69.933594 175.785156 69.785156 175.648438 C 68.027344 174.019531 65.949219 173.980469 64.472656 175.660156 C 63.488281 176.785156 63.191406 178.070312 63.355469 179.285156 Z M 107.9375 179.285156 C 107.917969 179.917969 108.121094 180.511719 108.488281 180.980469 C 108.613281 181.214844 108.75 181.441406 108.902344 181.65625 C 109.007812 181.933594 109.140625 182.203125 109.300781 182.457031 C 109.941406 183.488281 110.953125 184.164062 111.996094 184.359375 C 113.132812 184.734375 114.027344 184.421875 114.652344 184.03125 C 115.128906 183.738281 115.558594 183.226562 115.847656 182.578125 C 116.148438 182.242188 116.410156 181.832031 116.625 181.328125 C 117.488281 179.296875 116.589844 177.238281 114.792969 176.097656 C 114.660156 175.933594 114.511719 175.785156 114.363281 175.648438 C 112.609375 174.019531 110.53125 173.980469 109.054688 175.660156 C 108.066406 176.785156 107.769531 178.070312 107.9375 179.285156 Z M 152.515625 179.285156 C 152.496094 179.917969 152.703125 180.511719 153.070312 180.980469 C 153.191406 181.214844 153.328125 181.441406 153.480469 181.65625 C 153.589844 181.933594 153.722656 182.203125 153.878906 182.457031 C 154.523438 183.488281 155.53125 184.164062 156.574219 184.359375 C 157.714844 184.734375 158.605469 184.421875 159.238281 184.03125 C 159.710938 183.738281 160.140625 183.226562 160.429688 182.578125 C 160.726562 182.242188 160.996094 181.832031 161.207031 181.328125 C 162.070312 179.296875 161.167969 177.238281 159.371094 176.097656 C 159.238281 175.933594 159.09375 175.785156 158.945312 175.648438 C 157.1875 174.019531 155.109375 173.980469 153.632812 175.660156 C 152.648438 176.785156 152.351562 178.070312 152.515625 179.285156 Z M 18.777344 179.285156 C 18.75 179.917969 18.960938 180.511719 19.328125 180.980469 C 19.449219 181.214844 19.589844 181.441406 19.742188 181.65625 C 19.84375 181.933594 19.980469 182.203125 20.140625 182.457031 C 20.777344 183.488281 21.789062 184.164062 22.835938 184.359375 C 23.96875 184.734375 24.867188 184.421875 25.492188 184.03125 C 25.964844 183.738281 26.394531 183.226562 26.6875 182.578125 C 26.984375 182.242188 27.25 181.832031 27.464844 181.328125 C 28.328125 179.296875 27.429688 177.238281 25.632812 176.097656 C 25.492188 175.933594 25.347656 175.785156 25.203125 175.648438 C 23.449219 174.019531 21.367188 173.980469 19.894531 175.660156 C 18.902344 176.785156 18.609375 178.070312 18.777344 179.285156 Z M 174.410156 179.285156 C 174.390625 179.917969 174.597656 180.511719 174.960938 180.980469 C 175.085938 181.214844 175.222656 181.441406 175.375 181.65625 C 175.484375 181.933594 175.617188 182.203125 175.773438 182.457031 C 176.417969 183.488281 177.425781 184.164062 178.46875 184.359375 C 179.605469 184.734375 180.5 184.421875 181.128906 184.03125 C 181.597656 183.738281 182.035156 183.226562 182.320312 182.578125 C 182.621094 182.242188 182.882812 181.832031 183.101562 181.328125 C 183.964844 179.296875 183.0625 177.238281 181.265625 176.097656 C 181.128906 175.933594 180.988281 175.785156 180.839844 175.648438 C 179.082031 174.019531 177.003906 173.980469 175.527344 175.660156 C 174.542969 176.785156 174.246094 178.070312 174.410156 179.285156 Z M 85.25 179.285156 C 85.230469 179.917969 85.4375 180.511719 85.800781 180.980469 C 85.921875 181.214844 86.0625 181.441406 86.214844 181.65625 C 86.324219 181.933594 86.457031 182.203125 86.613281 182.457031 C 87.253906 183.488281 88.261719 184.164062 89.308594 184.359375 C 90.445312 184.734375 91.339844 184.421875 91.96875 184.03125 C 92.4375 183.738281 92.871094 183.226562 93.164062 182.578125 C 93.457031 182.242188 93.722656 181.832031 93.941406 181.328125 C 94.804688 179.296875 93.902344 177.238281 92.105469 176.097656 C 91.96875 175.933594 91.828125 175.785156 91.679688 175.648438 C 89.921875 174.019531 87.839844 173.980469 86.367188 175.660156 C 85.378906 176.785156 85.082031 178.070312 85.25 179.285156 Z M 40.671875 179.285156 C 40.644531 179.917969 40.855469 180.511719 41.222656 180.980469 C 41.339844 181.214844 41.480469 181.441406 41.636719 181.65625 C 41.738281 181.933594 41.875 182.203125 42.035156 182.457031 C 42.671875 183.488281 43.683594 184.164062 44.726562 184.359375 C 45.863281 184.734375 46.757812 184.421875 47.386719 184.03125 C 47.859375 183.738281 48.289062 183.226562 48.582031 182.578125 C 48.878906 182.242188 49.144531 181.832031 49.359375 181.328125 C 50.222656 179.296875 49.324219 177.238281 47.527344 176.097656 C 47.386719 175.933594 47.242188 175.785156 47.097656 175.648438 C 45.339844 174.019531 43.261719 173.980469 41.78125 175.660156 C 40.796875 176.785156 40.503906 178.070312 40.671875 179.285156 Z M 218.996094 179.285156 C 218.96875 179.917969 219.175781 180.511719 219.546875 180.980469 C 219.667969 181.214844 219.804688 181.441406 219.957031 181.65625 C 220.0625 181.933594 220.195312 182.203125 220.355469 182.457031 C 220.996094 183.488281 222.007812 184.164062 223.050781 184.359375 C 224.1875 184.734375 225.085938 184.421875 225.710938 184.03125 C 226.183594 183.738281 226.617188 183.226562 226.902344 182.578125 C 227.203125 182.242188 227.46875 181.832031 227.679688 181.328125 C 228.542969 179.296875 227.644531 177.238281 225.847656 176.097656 C 225.710938 175.933594 225.566406 175.785156 225.417969 175.648438 C 223.664062 174.019531 221.585938 173.980469 220.109375 175.660156 C 219.121094 176.785156 218.824219 178.070312 218.996094 179.285156 Z M 129.832031 179.285156 C 129.808594 179.917969 130.015625 180.511719 130.382812 180.980469 C 130.507812 181.214844 130.644531 181.441406 130.796875 181.65625 C 130.902344 181.933594 131.035156 182.203125 131.195312 182.457031 C 131.835938 183.488281 132.84375 184.164062 133.890625 184.359375 C 135.023438 184.734375 135.921875 184.421875 136.546875 184.03125 C 137.019531 183.738281 137.449219 183.226562 137.742188 182.578125 C 138.042969 182.242188 138.304688 181.832031 138.519531 181.328125 C 139.382812 179.296875 138.484375 177.238281 136.6875 176.097656 C 136.546875 175.933594 136.40625 175.785156 136.257812 175.648438 C 134.503906 174.019531 132.425781 173.980469 130.949219 175.660156 C 129.957031 176.785156 129.664062 178.070312 129.832031 179.285156 Z M 197.101562 179.285156 C 197.078125 179.917969 197.28125 180.511719 197.652344 180.980469 C 197.773438 181.214844 197.910156 181.441406 198.0625 181.65625 C 198.167969 181.933594 198.300781 182.203125 198.464844 182.457031 C 199.101562 183.488281 200.113281 184.164062 201.160156 184.359375 C 202.296875 184.734375 203.191406 184.421875 203.816406 184.03125 C 204.289062 183.738281 204.722656 183.226562 205.007812 182.578125 C 205.308594 182.242188 205.574219 181.832031 205.785156 181.328125 C 206.648438 179.296875 205.75 177.238281 203.953125 176.097656 C 203.820312 175.933594 203.675781 175.785156 203.527344 175.648438 C 201.769531 174.019531 199.691406 173.980469 198.214844 175.660156 C 197.230469 176.785156 196.929688 178.070312 197.101562 179.285156 Z M 63.355469 158.144531 C 63.335938 158.777344 63.542969 159.371094 63.90625 159.839844 C 64.027344 160.078125 64.167969 160.300781 64.320312 160.515625 C 64.429688 160.792969 64.5625 161.0625 64.71875 161.320312 C 65.363281 162.347656 66.367188 163.027344 67.414062 163.21875 C 68.550781 163.59375 69.445312 163.285156 70.074219 162.890625 C 70.542969 162.597656 70.976562 162.089844 71.269531 161.4375 C 71.5625 161.105469 71.828125 160.695312 72.046875 160.191406 C 72.910156 158.15625 72.007812 156.097656 70.210938 154.957031 C 70.074219 154.796875 69.933594 154.644531 69.785156 154.507812 C 68.027344 152.882812 65.949219 152.839844 64.472656 154.523438 C 63.488281 155.644531 63.191406 156.929688 63.355469 158.144531 Z M 107.9375 158.144531 C 107.917969 158.777344 108.121094 159.371094 108.488281 159.839844 C 108.613281 160.078125 108.75 160.300781 108.902344 160.515625 C 109.007812 160.792969 109.140625 161.0625 109.300781 161.320312 C 109.941406 162.347656 110.953125 163.027344 111.996094 163.21875 C 113.132812 163.59375 114.027344 163.285156 114.652344 162.890625 C 115.128906 162.597656 115.558594 162.089844 115.847656 161.4375 C 116.148438 161.105469 116.410156 160.695312 116.625 160.191406 C 117.488281 158.15625 116.589844 156.097656 114.792969 154.957031 C 114.660156 154.796875 114.511719 154.644531 114.363281 154.507812 C 112.609375 152.882812 110.53125 152.839844 109.054688 154.523438 C 108.066406 155.644531 107.769531 156.929688 107.9375 158.144531 Z M 18.777344 158.144531 C 18.75 158.777344 18.960938 159.371094 19.328125 159.839844 C 19.449219 160.078125 19.589844 160.300781 19.742188 160.515625 C 19.84375 160.792969 19.980469 161.0625 20.140625 161.320312 C 20.777344 162.347656 21.789062 163.027344 22.835938 163.21875 C 23.96875 163.59375 24.867188 163.285156 25.492188 162.890625 C 25.964844 162.597656 26.394531 162.089844 26.6875 161.4375 C 26.984375 161.105469 27.25 160.695312 27.464844 160.191406 C 28.328125 158.15625 27.429688 156.097656 25.632812 154.957031 C 25.492188 154.796875 25.347656 154.644531 25.203125 154.507812 C 23.449219 152.882812 21.367188 152.839844 19.894531 154.523438 C 18.902344 155.644531 18.609375 156.929688 18.777344 158.144531 Z M 174.410156 158.144531 C 174.390625 158.777344 174.597656 159.371094 174.960938 159.839844 C 175.085938 160.078125 175.222656 160.300781 175.375 160.515625 C 175.484375 160.792969 175.617188 161.0625 175.773438 161.320312 C 176.417969 162.347656 177.425781 163.027344 178.46875 163.21875 C 179.605469 163.59375 180.5 163.285156 181.128906 162.890625 C 181.597656 162.597656 182.035156 162.089844 182.320312 161.4375 C 182.621094 161.105469 182.882812 160.695312 183.101562 160.191406 C 183.964844 158.15625 183.0625 156.097656 181.265625 154.957031 C 181.128906 154.796875 180.988281 154.644531 180.839844 154.507812 C 179.082031 152.882812 177.003906 152.839844 175.527344 154.523438 C 174.542969 155.644531 174.246094 156.929688 174.410156 158.144531 Z M 85.25 158.144531 C 85.230469 158.777344 85.4375 159.371094 85.800781 159.839844 C 85.921875 160.078125 86.0625 160.300781 86.214844 160.515625 C 86.324219 160.792969 86.457031 161.0625 86.613281 161.320312 C 87.253906 162.347656 88.261719 163.027344 89.308594 163.21875 C 90.445312 163.59375 91.339844 163.285156 91.96875 162.890625 C 92.4375 162.597656 92.871094 162.089844 93.164062 161.4375 C 93.457031 161.105469 93.722656 160.695312 93.941406 160.191406 C 94.804688 158.15625 93.902344 156.097656 92.105469 154.957031 C 91.96875 154.796875 91.828125 154.644531 91.679688 154.507812 C 89.921875 152.882812 87.839844 152.839844 86.367188 154.523438 C 85.378906 155.644531 85.082031 156.929688 85.25 158.144531 Z M 40.671875 158.144531 C 40.644531 158.777344 40.855469 159.371094 41.222656 159.839844 C 41.339844 160.078125 41.480469 160.300781 41.636719 160.515625 C 41.738281 160.792969 41.875 161.0625 42.035156 161.320312 C 42.671875 162.347656 43.683594 163.027344 44.726562 163.21875 C 45.863281 163.59375 46.757812 163.285156 47.386719 162.890625 C 47.859375 162.597656 48.289062 162.089844 48.582031 161.4375 C 48.878906 161.105469 49.144531 160.695312 49.359375 160.191406 C 50.222656 158.15625 49.324219 156.097656 47.527344 154.957031 C 47.386719 154.796875 47.242188 154.644531 47.097656 154.507812 C 45.339844 152.882812 43.261719 152.839844 41.78125 154.523438 C 40.796875 155.644531 40.503906 156.929688 40.671875 158.144531 Z M 218.996094 158.144531 C 218.96875 158.777344 219.175781 159.371094 219.546875 159.839844 C 219.667969 160.078125 219.804688 160.300781 219.957031 160.515625 C 220.0625 160.792969 220.195312 161.0625 220.355469 161.320312 C 220.996094 162.347656 222.007812 163.027344 223.050781 163.21875 C 224.1875 163.59375 225.085938 163.285156 225.710938 162.890625 C 226.183594 162.597656 226.617188 162.089844 226.902344 161.4375 C 227.203125 161.105469 227.46875 160.695312 227.679688 160.191406 C 228.542969 158.15625 227.644531 156.097656 225.847656 154.957031 C 225.710938 154.796875 225.566406 154.644531 225.417969 154.507812 C 223.664062 152.882812 221.585938 152.839844 220.109375 154.523438 C 219.121094 155.644531 218.824219 156.929688 218.996094 158.144531 Z M 129.832031 158.144531 C 129.808594 158.777344 130.015625 159.371094 130.382812 159.839844 C 130.507812 160.078125 130.644531 160.300781 130.796875 160.515625 C 130.902344 160.792969 131.035156 161.0625 131.195312 161.320312 C 131.835938 162.347656 132.84375 163.027344 133.890625 163.21875 C 135.023438 163.59375 135.921875 163.285156 136.546875 162.890625 C 137.019531 162.597656 137.449219 162.089844 137.742188 161.4375 C 138.042969 161.105469 138.304688 160.695312 138.519531 160.191406 C 139.382812 158.15625 138.484375 156.097656 136.6875 154.957031 C 136.546875 154.796875 136.40625 154.644531 136.257812 154.507812 C 134.503906 152.882812 132.425781 152.839844 130.949219 154.523438 C 129.957031 155.644531 129.664062 156.929688 129.832031 158.144531 Z M 197.101562 158.144531 C 197.078125 158.777344 197.28125 159.371094 197.652344 159.839844 C 197.773438 160.078125 197.910156 160.300781 198.0625 160.515625 C 198.167969 160.792969 198.300781 161.0625 198.464844 161.320312 C 199.101562 162.347656 200.113281 163.027344 201.160156 163.21875 C 202.296875 163.59375 203.191406 163.285156 203.816406 162.890625 C 204.289062 162.597656 204.722656 162.089844 205.007812 161.4375 C 205.308594 161.105469 205.574219 160.695312 205.785156 160.191406 C 206.648438 158.15625 205.75 156.097656 203.953125 154.957031 C 203.820312 154.796875 203.675781 154.644531 203.527344 154.507812 C 201.769531 152.882812 199.691406 152.839844 198.214844 154.523438 C 197.230469 155.644531 196.929688 156.929688 197.101562 158.144531 Z M 152.515625 158.144531 C 152.496094 158.777344 152.703125 159.371094 153.070312 159.839844 C 153.191406 160.078125 153.328125 160.300781 153.480469 160.515625 C 153.589844 160.792969 153.722656 161.0625 153.878906 161.320312 C 154.523438 162.347656 155.53125 163.027344 156.574219 163.21875 C 157.714844 163.59375 158.605469 163.285156 159.238281 162.890625 C 159.710938 162.597656 160.140625 162.089844 160.429688 161.4375 C 160.726562 161.105469 160.996094 160.695312 161.207031 160.191406 C 162.070312 158.15625 161.167969 156.097656 159.371094 154.957031 C 159.238281 154.796875 159.09375 154.644531 158.945312 154.507812 C 157.1875 152.882812 155.109375 152.839844 153.632812 154.523438 C 152.648438 155.644531 152.351562 156.929688 152.515625 158.144531 Z M 18.777344 137.003906 C 18.75 137.636719 18.960938 138.234375 19.328125 138.703125 C 19.449219 138.9375 19.589844 139.164062 19.742188 139.378906 C 19.84375 139.65625 19.980469 139.925781 20.140625 140.179688 C 20.777344 141.207031 21.789062 141.886719 22.835938 142.078125 C 23.96875 142.457031 24.867188 142.144531 25.492188 141.753906 C 25.964844 141.457031 26.394531 140.949219 26.6875 140.300781 C 26.984375 139.964844 27.25 139.554688 27.464844 139.050781 C 28.328125 137.015625 27.429688 134.960938 25.632812 133.816406 C 25.492188 133.65625 25.347656 133.507812 25.203125 133.371094 C 23.449219 131.742188 21.367188 131.703125 19.894531 133.382812 C 18.902344 134.507812 18.609375 135.792969 18.777344 137.003906 Z M 63.355469 137.003906 C 63.335938 137.636719 63.542969 138.234375 63.90625 138.703125 C 64.027344 138.9375 64.167969 139.164062 64.320312 139.378906 C 64.429688 139.65625 64.5625 139.925781 64.71875 140.179688 C 65.363281 141.207031 66.367188 141.886719 67.414062 142.078125 C 68.550781 142.457031 69.445312 142.144531 70.074219 141.753906 C 70.542969 141.457031 70.976562 140.949219 71.269531 140.300781 C 71.5625 139.964844 71.828125 139.554688 72.046875 139.050781 C 72.910156 137.015625 72.007812 134.960938 70.210938 133.816406 C 70.074219 133.65625 69.933594 133.507812 69.785156 133.371094 C 68.027344 131.742188 65.949219 131.703125 64.472656 133.382812 C 63.488281 134.507812 63.191406 135.792969 63.355469 137.003906 Z M 152.515625 137.003906 C 152.496094 137.636719 152.703125 138.234375 153.070312 138.703125 C 153.191406 138.9375 153.328125 139.164062 153.480469 139.378906 C 153.589844 139.65625 153.722656 139.925781 153.878906 140.179688 C 154.523438 141.207031 155.53125 141.886719 156.574219 142.078125 C 157.714844 142.457031 158.605469 142.144531 159.238281 141.753906 C 159.710938 141.457031 160.140625 140.949219 160.429688 140.300781 C 160.726562 139.964844 160.996094 139.554688 161.207031 139.050781 C 162.070312 137.015625 161.167969 134.960938 159.371094 133.816406 C 159.238281 133.65625 159.09375 133.507812 158.945312 133.371094 C 157.1875 131.742188 155.109375 131.703125 153.632812 133.382812 C 152.648438 134.507812 152.351562 135.792969 152.515625 137.003906 Z M 107.9375 137.003906 C 107.917969 137.636719 108.121094 138.234375 108.488281 138.703125 C 108.613281 138.9375 108.75 139.164062 108.902344 139.378906 C 109.007812 139.65625 109.140625 139.925781 109.300781 140.179688 C 109.941406 141.207031 110.953125 141.886719 111.996094 142.078125 C 113.132812 142.457031 114.027344 142.144531 114.652344 141.753906 C 115.128906 141.457031 115.558594 140.949219 115.847656 140.300781 C 116.148438 139.964844 116.410156 139.554688 116.625 139.050781 C 117.488281 137.015625 116.589844 134.960938 114.792969 133.816406 C 114.660156 133.65625 114.511719 133.507812 114.363281 133.371094 C 112.609375 131.742188 110.53125 131.703125 109.054688 133.382812 C 108.066406 134.507812 107.769531 135.792969 107.9375 137.003906 Z M 174.410156 137.003906 C 174.390625 137.636719 174.597656 138.234375 174.960938 138.703125 C 175.085938 138.9375 175.222656 139.164062 175.375 139.378906 C 175.484375 139.65625 175.617188 139.925781 175.773438 140.179688 C 176.417969 141.207031 177.425781 141.886719 178.46875 142.078125 C 179.605469 142.457031 180.5 142.144531 181.128906 141.753906 C 181.597656 141.457031 182.035156 140.949219 182.320312 140.300781 C 182.621094 139.964844 182.882812 139.554688 183.101562 139.050781 C 183.964844 137.015625 183.0625 134.960938 181.265625 133.816406 C 181.128906 133.65625 180.988281 133.507812 180.839844 133.371094 C 179.082031 131.742188 177.003906 131.703125 175.527344 133.382812 C 174.542969 134.507812 174.246094 135.792969 174.410156 137.003906 Z M 40.671875 137.003906 C 40.644531 137.636719 40.855469 138.234375 41.222656 138.703125 C 41.339844 138.9375 41.480469 139.164062 41.636719 139.378906 C 41.738281 139.65625 41.875 139.925781 42.035156 140.179688 C 42.671875 141.207031 43.683594 141.886719 44.726562 142.078125 C 45.863281 142.457031 46.757812 142.144531 47.386719 141.753906 C 47.859375 141.457031 48.289062 140.949219 48.582031 140.300781 C 48.878906 139.964844 49.144531 139.554688 49.359375 139.050781 C 50.222656 137.015625 49.324219 134.960938 47.527344 133.816406 C 47.386719 133.65625 47.242188 133.507812 47.097656 133.371094 C 45.339844 131.742188 43.261719 131.703125 41.78125 133.382812 C 40.796875 134.507812 40.503906 135.792969 40.671875 137.003906 Z M 197.101562 137.003906 C 197.078125 137.636719 197.28125 138.234375 197.652344 138.703125 C 197.773438 138.9375 197.910156 139.164062 198.0625 139.378906 C 198.167969 139.65625 198.300781 139.925781 198.464844 140.179688 C 199.101562 141.207031 200.113281 141.886719 201.160156 142.078125 C 202.296875 142.457031 203.191406 142.144531 203.816406 141.753906 C 204.289062 141.457031 204.722656 140.949219 205.007812 140.300781 C 205.308594 139.964844 205.574219 139.554688 205.785156 139.050781 C 206.648438 137.015625 205.75 134.960938 203.953125 133.816406 C 203.820312 133.65625 203.675781 133.507812 203.527344 133.371094 C 201.769531 131.742188 199.691406 131.703125 198.214844 133.382812 C 197.230469 134.507812 196.929688 135.792969 197.101562 137.003906 Z M 85.25 137.003906 C 85.230469 137.636719 85.4375 138.234375 85.800781 138.703125 C 85.921875 138.9375 86.0625 139.164062 86.214844 139.378906 C 86.324219 139.65625 86.457031 139.925781 86.613281 140.179688 C 87.253906 141.207031 88.261719 141.886719 89.308594 142.078125 C 90.445312 142.457031 91.339844 142.144531 91.96875 141.753906 C 92.4375 141.457031 92.871094 140.949219 93.164062 140.300781 C 93.457031 139.964844 93.722656 139.554688 93.941406 139.050781 C 94.804688 137.015625 93.902344 134.960938 92.105469 133.816406 C 91.96875 133.65625 91.828125 133.507812 91.679688 133.371094 C 89.921875 131.742188 87.839844 131.703125 86.367188 133.382812 C 85.378906 134.507812 85.082031 135.792969 85.25 137.003906 Z M 218.996094 137.003906 C 218.96875 137.636719 219.175781 138.234375 219.546875 138.703125 C 219.667969 138.9375 219.804688 139.164062 219.957031 139.378906 C 220.0625 139.65625 220.195312 139.925781 220.355469 140.179688 C 220.996094 141.207031 222.007812 141.886719 223.050781 142.078125 C 224.1875 142.457031 225.085938 142.144531 225.710938 141.753906 C 226.183594 141.457031 226.617188 140.949219 226.902344 140.300781 C 227.203125 139.964844 227.46875 139.554688 227.679688 139.050781 C 228.542969 137.015625 227.644531 134.960938 225.847656 133.816406 C 225.710938 133.65625 225.566406 133.507812 225.417969 133.371094 C 223.664062 131.742188 221.585938 131.703125 220.109375 133.382812 C 219.121094 134.507812 218.824219 135.792969 218.996094 137.003906 Z M 129.832031 137.003906 C 129.808594 137.636719 130.015625 138.234375 130.382812 138.703125 C 130.507812 138.9375 130.644531 139.164062 130.796875 139.378906 C 130.902344 139.65625 131.035156 139.925781 131.195312 140.179688 C 131.835938 141.207031 132.84375 141.886719 133.890625 142.078125 C 135.023438 142.457031 135.921875 142.144531 136.546875 141.753906 C 137.019531 141.457031 137.449219 140.949219 137.742188 140.300781 C 138.042969 139.964844 138.304688 139.554688 138.519531 139.050781 C 139.382812 137.015625 138.484375 134.960938 136.6875 133.816406 C 136.546875 133.65625 136.40625 133.507812 136.257812 133.371094 C 134.503906 131.742188 132.425781 131.703125 130.949219 133.382812 C 129.957031 134.507812 129.664062 135.792969 129.832031 137.003906 Z M 107.9375 115.867188 C 107.917969 116.5 108.121094 117.09375 108.488281 117.5625 C 108.613281 117.796875 108.75 118.023438 108.902344 118.238281 C 109.007812 118.515625 109.140625 118.785156 109.300781 119.039062 C 109.941406 120.070312 110.953125 120.75 111.996094 120.941406 C 113.132812 121.316406 114.027344 121.003906 114.652344 120.613281 C 115.128906 120.320312 115.558594 119.808594 115.847656 119.160156 C 116.148438 118.824219 116.410156 118.414062 116.625 117.910156 C 117.488281 115.875 116.589844 113.820312 114.792969 112.679688 C 114.660156 112.515625 114.511719 112.367188 114.363281 112.230469 C 112.609375 110.605469 110.53125 110.5625 109.054688 112.242188 C 108.066406 113.367188 107.769531 114.652344 107.9375 115.867188 Z M 63.355469 115.867188 C 63.335938 116.5 63.542969 117.09375 63.90625 117.5625 C 64.027344 117.796875 64.167969 118.023438 64.320312 118.238281 C 64.429688 118.515625 64.5625 118.785156 64.71875 119.039062 C 65.363281 120.070312 66.367188 120.75 67.414062 120.941406 C 68.550781 121.316406 69.445312 121.003906 70.074219 120.613281 C 70.542969 120.320312 70.976562 119.808594 71.269531 119.160156 C 71.5625 118.824219 71.828125 118.414062 72.046875 117.910156 C 72.910156 115.875 72.007812 113.820312 70.210938 112.679688 C 70.074219 112.515625 69.933594 112.367188 69.785156 112.230469 C 68.027344 110.605469 65.949219 110.5625 64.472656 112.242188 C 63.488281 113.367188 63.191406 114.652344 63.355469 115.867188 Z M 174.410156 115.867188 C 174.390625 116.5 174.597656 117.09375 174.960938 117.5625 C 175.085938 117.796875 175.222656 118.023438 175.375 118.238281 C 175.484375 118.515625 175.617188 118.785156 175.773438 119.039062 C 176.417969 120.070312 177.425781 120.75 178.46875 120.941406 C 179.605469 121.316406 180.5 121.003906 181.128906 120.613281 C 181.597656 120.320312 182.035156 119.808594 182.320312 119.160156 C 182.621094 118.824219 182.882812 118.414062 183.101562 117.910156 C 183.964844 115.875 183.0625 113.820312 181.265625 112.679688 C 181.128906 112.515625 180.988281 112.367188 180.839844 112.230469 C 179.082031 110.605469 177.003906 110.5625 175.527344 112.242188 C 174.542969 113.367188 174.246094 114.652344 174.410156 115.867188 Z M 18.777344 115.867188 C 18.75 116.5 18.960938 117.09375 19.328125 117.5625 C 19.449219 117.796875 19.589844 118.023438 19.742188 118.238281 C 19.84375 118.515625 19.980469 118.785156 20.140625 119.039062 C 20.777344 120.070312 21.789062 120.75 22.835938 120.941406 C 23.96875 121.316406 24.867188 121.003906 25.492188 120.613281 C 25.964844 120.320312 26.394531 119.808594 26.6875 119.160156 C 26.984375 118.824219 27.25 118.414062 27.464844 117.910156 C 28.328125 115.875 27.429688 113.820312 25.632812 112.679688 C 25.492188 112.515625 25.347656 112.367188 25.203125 112.230469 C 23.449219 110.605469 21.367188 110.5625 19.894531 112.242188 C 18.902344 113.367188 18.609375 114.652344 18.777344 115.867188 Z M 152.515625 115.867188 C 152.496094 116.5 152.703125 117.09375 153.070312 117.5625 C 153.191406 117.796875 153.328125 118.023438 153.480469 118.238281 C 153.589844 118.515625 153.722656 118.785156 153.878906 119.039062 C 154.523438 120.070312 155.53125 120.75 156.574219 120.941406 C 157.714844 121.316406 158.605469 121.003906 159.238281 120.613281 C 159.710938 120.320312 160.140625 119.808594 160.429688 119.160156 C 160.726562 118.824219 160.996094 118.414062 161.207031 117.910156 C 162.070312 115.875 161.167969 113.820312 159.371094 112.679688 C 159.238281 112.515625 159.09375 112.367188 158.945312 112.230469 C 157.1875 110.605469 155.109375 110.5625 153.632812 112.242188 C 152.648438 113.367188 152.351562 114.652344 152.515625 115.867188 Z M 197.101562 115.867188 C 197.078125 116.5 197.28125 117.09375 197.652344 117.5625 C 197.773438 117.796875 197.910156 118.023438 198.0625 118.238281 C 198.167969 118.515625 198.300781 118.785156 198.464844 119.039062 C 199.101562 120.070312 200.113281 120.75 201.160156 120.941406 C 202.296875 121.316406 203.191406 121.003906 203.816406 120.613281 C 204.289062 120.320312 204.722656 119.808594 205.007812 119.160156 C 205.308594 118.824219 205.574219 118.414062 205.785156 117.910156 C 206.648438 115.875 205.75 113.820312 203.953125 112.679688 C 203.820312 112.515625 203.675781 112.367188 203.527344 112.230469 C 201.769531 110.605469 199.691406 110.5625 198.214844 112.242188 C 197.230469 113.367188 196.929688 114.652344 197.101562 115.867188 Z M 40.671875 115.867188 C 40.644531 116.5 40.855469 117.09375 41.222656 117.5625 C 41.339844 117.796875 41.480469 118.023438 41.636719 118.238281 C 41.738281 118.515625 41.875 118.785156 42.035156 119.039062 C 42.671875 120.070312 43.683594 120.75 44.726562 120.941406 C 45.863281 121.316406 46.757812 121.003906 47.386719 120.613281 C 47.859375 120.320312 48.289062 119.808594 48.582031 119.160156 C 48.878906 118.824219 49.144531 118.414062 49.359375 117.910156 C 50.222656 115.875 49.324219 113.820312 47.527344 112.679688 C 47.386719 112.515625 47.242188 112.367188 47.097656 112.230469 C 45.339844 110.605469 43.261719 110.5625 41.78125 112.242188 C 40.796875 113.367188 40.503906 114.652344 40.671875 115.867188 Z M 218.996094 115.867188 C 218.96875 116.5 219.175781 117.09375 219.546875 117.5625 C 219.667969 117.796875 219.804688 118.023438 219.957031 118.238281 C 220.0625 118.515625 220.195312 118.785156 220.355469 119.039062 C 220.996094 120.070312 222.007812 120.75 223.050781 120.941406 C 224.1875 121.316406 225.085938 121.003906 225.710938 120.613281 C 226.183594 120.320312 226.617188 119.808594 226.902344 119.160156 C 227.203125 118.824219 227.46875 118.414062 227.679688 117.910156 C 228.542969 115.875 227.644531 113.820312 225.847656 112.679688 C 225.710938 112.515625 225.566406 112.367188 225.417969 112.230469 C 223.664062 110.605469 221.585938 110.5625 220.109375 112.242188 C 219.121094 113.367188 218.824219 114.652344 218.996094 115.867188 Z M 129.832031 115.867188 C 129.808594 116.5 130.015625 117.09375 130.382812 117.5625 C 130.507812 117.796875 130.644531 118.023438 130.796875 118.238281 C 130.902344 118.515625 131.035156 118.785156 131.195312 119.039062 C 131.835938 120.070312 132.84375 120.75 133.890625 120.941406 C 135.023438 121.316406 135.921875 121.003906 136.546875 120.613281 C 137.019531 120.320312 137.449219 119.808594 137.742188 119.160156 C 138.042969 118.824219 138.304688 118.414062 138.519531 117.910156 C 139.382812 115.875 138.484375 113.820312 136.6875 112.679688 C 136.546875 112.515625 136.40625 112.367188 136.257812 112.230469 C 134.503906 110.605469 132.425781 110.5625 130.949219 112.242188 C 129.957031 113.367188 129.664062 114.652344 129.832031 115.867188 Z M 85.25 115.867188 C 85.230469 116.5 85.4375 117.09375 85.800781 117.5625 C 85.921875 117.796875 86.0625 118.023438 86.214844 118.238281 C 86.324219 118.515625 86.457031 118.785156 86.613281 119.039062 C 87.253906 120.070312 88.261719 120.75 89.308594 120.941406 C 90.445312 121.316406 91.339844 121.003906 91.96875 120.613281 C 92.4375 120.320312 92.871094 119.808594 93.164062 119.160156 C 93.457031 118.824219 93.722656 118.414062 93.941406 117.910156 C 94.804688 115.875 93.902344 113.820312 92.105469 112.679688 C 91.96875 112.515625 91.828125 112.367188 91.679688 112.230469 C 89.921875 110.605469 87.839844 110.5625 86.367188 112.242188 C 85.378906 113.367188 85.082031 114.652344 85.25 115.867188 Z M 18.777344 94.726562 C 18.75 95.359375 18.960938 95.953125 19.328125 96.425781 C 19.449219 96.660156 19.589844 96.882812 19.742188 97.097656 C 19.84375 97.375 19.980469 97.644531 20.140625 97.902344 C 20.777344 98.929688 21.789062 99.609375 22.835938 99.800781 C 23.96875 100.175781 24.867188 99.867188 25.492188 99.472656 C 25.964844 99.179688 26.394531 98.671875 26.6875 98.019531 C 26.984375 97.6875 27.25 97.277344 27.464844 96.773438 C 28.328125 94.738281 27.429688 92.683594 25.632812 91.539062 C 25.492188 91.378906 25.347656 91.226562 25.203125 91.089844 C 23.449219 89.464844 21.367188 89.421875 19.894531 91.105469 C 18.902344 92.226562 18.609375 93.511719 18.777344 94.726562 Z M 63.355469 94.726562 C 63.335938 95.359375 63.542969 95.953125 63.90625 96.425781 C 64.027344 96.660156 64.167969 96.882812 64.320312 97.097656 C 64.429688 97.375 64.5625 97.644531 64.71875 97.902344 C 65.363281 98.929688 66.367188 99.609375 67.414062 99.800781 C 68.550781 100.175781 69.445312 99.867188 70.074219 99.472656 C 70.542969 99.179688 70.976562 98.671875 71.269531 98.019531 C 71.5625 97.6875 71.828125 97.277344 72.046875 96.773438 C 72.910156 94.738281 72.007812 92.683594 70.210938 91.539062 C 70.074219 91.378906 69.933594 91.226562 69.785156 91.089844 C 68.027344 89.464844 65.949219 89.421875 64.472656 91.105469 C 63.488281 92.226562 63.191406 93.511719 63.355469 94.726562 Z M 174.410156 94.726562 C 174.390625 95.359375 174.597656 95.953125 174.960938 96.425781 C 175.085938 96.660156 175.222656 96.882812 175.375 97.097656 C 175.484375 97.375 175.617188 97.644531 175.773438 97.902344 C 176.417969 98.929688 177.425781 99.609375 178.46875 99.800781 C 179.605469 100.175781 180.5 99.867188 181.128906 99.472656 C 181.597656 99.179688 182.035156 98.671875 182.320312 98.019531 C 182.621094 97.6875 182.882812 97.277344 183.101562 96.773438 C 183.964844 94.738281 183.0625 92.683594 181.265625 91.539062 C 181.128906 91.378906 180.988281 91.226562 180.839844 91.089844 C 179.082031 89.464844 177.003906 89.421875 175.527344 91.105469 C 174.542969 92.226562 174.246094 93.511719 174.410156 94.726562 Z M 107.9375 94.726562 C 107.917969 95.359375 108.121094 95.953125 108.488281 96.425781 C 108.613281 96.660156 108.75 96.882812 108.902344 97.097656 C 109.007812 97.375 109.140625 97.644531 109.300781 97.902344 C 109.941406 98.929688 110.953125 99.609375 111.996094 99.800781 C 113.132812 100.175781 114.027344 99.867188 114.652344 99.472656 C 115.128906 99.179688 115.558594 98.671875 115.847656 98.019531 C 116.148438 97.6875 116.410156 97.277344 116.625 96.773438 C 117.488281 94.738281 116.589844 92.683594 114.792969 91.539062 C 114.660156 91.378906 114.511719 91.226562 114.363281 91.089844 C 112.609375 89.464844 110.53125 89.421875 109.054688 91.105469 C 108.066406 92.226562 107.769531 93.511719 107.9375 94.726562 Z M 152.515625 94.726562 C 152.496094 95.359375 152.703125 95.953125 153.070312 96.425781 C 153.191406 96.660156 153.328125 96.882812 153.480469 97.097656 C 153.589844 97.375 153.722656 97.644531 153.878906 97.902344 C 154.523438 98.929688 155.53125 99.609375 156.574219 99.800781 C 157.714844 100.175781 158.605469 99.867188 159.238281 99.472656 C 159.710938 99.179688 160.140625 98.671875 160.429688 98.019531 C 160.726562 97.6875 160.996094 97.277344 161.207031 96.773438 C 162.070312 94.738281 161.167969 92.683594 159.371094 91.539062 C 159.238281 91.378906 159.09375 91.226562 158.945312 91.089844 C 157.1875 89.464844 155.109375 89.421875 153.632812 91.105469 C 152.648438 92.226562 152.351562 93.511719 152.515625 94.726562 Z M 85.25 94.726562 C 85.230469 95.359375 85.4375 95.953125 85.800781 96.425781 C 85.921875 96.660156 86.0625 96.882812 86.214844 97.097656 C 86.324219 97.375 86.457031 97.644531 86.613281 97.902344 C 87.253906 98.929688 88.261719 99.609375 89.308594 99.800781 C 90.445312 100.175781 91.339844 99.867188 91.96875 99.472656 C 92.4375 99.179688 92.871094 98.671875 93.164062 98.019531 C 93.457031 97.6875 93.722656 97.277344 93.941406 96.773438 C 94.804688 94.738281 93.902344 92.683594 92.105469 91.539062 C 91.96875 91.378906 91.828125 91.226562 91.679688 91.089844 C 89.921875 89.464844 87.839844 89.421875 86.367188 91.105469 C 85.378906 92.226562 85.082031 93.511719 85.25 94.726562 Z M 40.671875 94.726562 C 40.644531 95.359375 40.855469 95.953125 41.222656 96.425781 C 41.339844 96.660156 41.480469 96.882812 41.636719 97.097656 C 41.738281 97.375 41.875 97.644531 42.035156 97.902344 C 42.671875 98.929688 43.683594 99.609375 44.726562 99.800781 C 45.863281 100.175781 46.757812 99.867188 47.386719 99.472656 C 47.859375 99.179688 48.289062 98.671875 48.582031 98.019531 C 48.878906 97.6875 49.144531 97.277344 49.359375 96.773438 C 50.222656 94.738281 49.324219 92.683594 47.527344 91.539062 C 47.386719 91.378906 47.242188 91.226562 47.097656 91.089844 C 45.339844 89.464844 43.261719 89.421875 41.78125 91.105469 C 40.796875 92.226562 40.503906 93.511719 40.671875 94.726562 Z M 218.996094 94.726562 C 218.96875 95.359375 219.175781 95.953125 219.546875 96.425781 C 219.667969 96.660156 219.804688 96.882812 219.957031 97.097656 C 220.0625 97.375 220.195312 97.644531 220.355469 97.902344 C 220.996094 98.929688 222.007812 99.609375 223.050781 99.800781 C 224.1875 100.175781 225.085938 99.867188 225.710938 99.472656 C 226.183594 99.179688 226.617188 98.671875 226.902344 98.019531 C 227.203125 97.6875 227.46875 97.277344 227.679688 96.773438 C 228.542969 94.738281 227.644531 92.683594 225.847656 91.539062 C 225.710938 91.378906 225.566406 91.226562 225.417969 91.089844 C 223.664062 89.464844 221.585938 89.421875 220.109375 91.105469 C 219.121094 92.226562 218.824219 93.511719 218.996094 94.726562 Z M 129.832031 94.726562 C 129.808594 95.359375 130.015625 95.953125 130.382812 96.425781 C 130.507812 96.660156 130.644531 96.882812 130.796875 97.097656 C 130.902344 97.375 131.035156 97.644531 131.195312 97.902344 C 131.835938 98.929688 132.84375 99.609375 133.890625 99.800781 C 135.023438 100.175781 135.921875 99.867188 136.546875 99.472656 C 137.019531 99.179688 137.449219 98.671875 137.742188 98.019531 C 138.042969 97.6875 138.304688 97.277344 138.519531 96.773438 C 139.382812 94.738281 138.484375 92.683594 136.6875 91.539062 C 136.546875 91.378906 136.40625 91.226562 136.257812 91.089844 C 134.503906 89.464844 132.425781 89.421875 130.949219 91.105469 C 129.957031 92.226562 129.664062 93.511719 129.832031 94.726562 Z M 197.101562 94.726562 C 197.078125 95.359375 197.28125 95.953125 197.652344 96.425781 C 197.773438 96.660156 197.910156 96.882812 198.0625 97.097656 C 198.167969 97.375 198.300781 97.644531 198.464844 97.902344 C 199.101562 98.929688 200.113281 99.609375 201.160156 99.800781 C 202.296875 100.175781 203.191406 99.867188 203.816406 99.472656 C 204.289062 99.179688 204.722656 98.671875 205.007812 98.019531 C 205.308594 97.6875 205.574219 97.277344 205.785156 96.773438 C 206.648438 94.738281 205.75 92.683594 203.953125 91.539062 C 203.820312 91.378906 203.675781 91.226562 203.527344 91.089844 C 201.769531 89.464844 199.691406 89.421875 198.214844 91.105469 C 197.230469 92.226562 196.929688 93.511719 197.101562 94.726562 Z M 107.9375 73.589844 C 107.917969 74.21875 108.121094 74.816406 108.488281 75.285156 C 108.613281 75.519531 108.75 75.746094 108.902344 75.960938 C 109.007812 76.238281 109.140625 76.507812 109.300781 76.761719 C 109.941406 77.789062 110.953125 78.46875 111.996094 78.660156 C 113.132812 79.039062 114.027344 78.726562 114.652344 78.335938 C 115.128906 78.042969 115.558594 77.53125 115.847656 76.882812 C 116.148438 76.546875 116.410156 76.136719 116.625 75.632812 C 117.488281 73.597656 116.589844 71.542969 114.792969 70.398438 C 114.660156 70.238281 114.511719 70.089844 114.363281 69.953125 C 112.609375 68.324219 110.53125 68.28125 109.054688 69.964844 C 108.066406 71.089844 107.769531 72.375 107.9375 73.589844 Z M 152.515625 73.589844 C 152.496094 74.21875 152.703125 74.816406 153.070312 75.285156 C 153.191406 75.519531 153.328125 75.746094 153.480469 75.960938 C 153.589844 76.238281 153.722656 76.507812 153.878906 76.761719 C 154.523438 77.789062 155.53125 78.46875 156.574219 78.660156 C 157.714844 79.039062 158.605469 78.726562 159.238281 78.335938 C 159.710938 78.042969 160.140625 77.53125 160.429688 76.882812 C 160.726562 76.546875 160.996094 76.136719 161.207031 75.632812 C 162.070312 73.597656 161.167969 71.542969 159.371094 70.398438 C 159.238281 70.238281 159.09375 70.089844 158.945312 69.953125 C 157.1875 68.324219 155.109375 68.28125 153.632812 69.964844 C 152.648438 71.089844 152.351562 72.375 152.515625 73.589844 Z M 18.777344 73.589844 C 18.75 74.21875 18.960938 74.816406 19.328125 75.285156 C 19.449219 75.519531 19.589844 75.746094 19.742188 75.960938 C 19.84375 76.238281 19.980469 76.507812 20.140625 76.761719 C 20.777344 77.789062 21.789062 78.46875 22.835938 78.660156 C 23.96875 79.039062 24.867188 78.726562 25.492188 78.335938 C 25.964844 78.042969 26.394531 77.53125 26.6875 76.882812 C 26.984375 76.546875 27.25 76.136719 27.464844 75.632812 C 28.328125 73.597656 27.429688 71.542969 25.632812 70.398438 C 25.492188 70.238281 25.347656 70.089844 25.203125 69.953125 C 23.449219 68.324219 21.367188 68.28125 19.894531 69.964844 C 18.902344 71.089844 18.609375 72.375 18.777344 73.589844 Z M 63.355469 73.589844 C 63.335938 74.21875 63.542969 74.816406 63.90625 75.285156 C 64.027344 75.519531 64.167969 75.746094 64.320312 75.960938 C 64.429688 76.238281 64.5625 76.507812 64.71875 76.761719 C 65.363281 77.789062 66.367188 78.46875 67.414062 78.660156 C 68.550781 79.039062 69.445312 78.726562 70.074219 78.335938 C 70.542969 78.042969 70.976562 77.53125 71.269531 76.882812 C 71.5625 76.546875 71.828125 76.136719 72.046875 75.632812 C 72.910156 73.597656 72.007812 71.542969 70.210938 70.398438 C 70.074219 70.238281 69.933594 70.089844 69.785156 69.953125 C 68.027344 68.324219 65.949219 68.28125 64.472656 69.964844 C 63.488281 71.089844 63.191406 72.375 63.355469 73.589844 Z M 174.410156 73.589844 C 174.390625 74.21875 174.597656 74.816406 174.960938 75.285156 C 175.085938 75.519531 175.222656 75.746094 175.375 75.960938 C 175.484375 76.238281 175.617188 76.507812 175.773438 76.761719 C 176.417969 77.789062 177.425781 78.46875 178.46875 78.660156 C 179.605469 79.039062 180.5 78.726562 181.128906 78.335938 C 181.597656 78.042969 182.035156 77.53125 182.320312 76.882812 C 182.621094 76.546875 182.882812 76.136719 183.101562 75.632812 C 183.964844 73.597656 183.0625 71.542969 181.265625 70.398438 C 181.128906 70.238281 180.988281 70.089844 180.839844 69.953125 C 179.082031 68.324219 177.003906 68.28125 175.527344 69.964844 C 174.542969 71.089844 174.246094 72.375 174.410156 73.589844 Z M 40.671875 73.589844 C 40.644531 74.21875 40.855469 74.816406 41.222656 75.285156 C 41.339844 75.519531 41.480469 75.746094 41.636719 75.960938 C 41.738281 76.238281 41.875 76.507812 42.035156 76.761719 C 42.671875 77.789062 43.683594 78.46875 44.726562 78.660156 C 45.863281 79.039062 46.757812 78.726562 47.386719 78.335938 C 47.859375 78.042969 48.289062 77.53125 48.582031 76.882812 C 48.878906 76.546875 49.144531 76.136719 49.359375 75.632812 C 50.222656 73.597656 49.324219 71.542969 47.527344 70.398438 C 47.386719 70.238281 47.242188 70.089844 47.097656 69.953125 C 45.339844 68.324219 43.261719 68.28125 41.78125 69.964844 C 40.796875 71.089844 40.503906 72.375 40.671875 73.589844 Z M 197.101562 73.589844 C 197.078125 74.21875 197.28125 74.816406 197.652344 75.285156 C 197.773438 75.519531 197.910156 75.746094 198.0625 75.960938 C 198.167969 76.238281 198.300781 76.507812 198.464844 76.761719 C 199.101562 77.789062 200.113281 78.46875 201.160156 78.660156 C 202.296875 79.039062 203.191406 78.726562 203.816406 78.335938 C 204.289062 78.042969 204.722656 77.53125 205.007812 76.882812 C 205.308594 76.546875 205.574219 76.136719 205.785156 75.632812 C 206.648438 73.597656 205.75 71.542969 203.953125 70.398438 C 203.820312 70.238281 203.675781 70.089844 203.527344 69.953125 C 201.769531 68.324219 199.691406 68.28125 198.214844 69.964844 C 197.230469 71.089844 196.929688 72.375 197.101562 73.589844 Z M 85.25 73.589844 C 85.230469 74.21875 85.4375 74.816406 85.800781 75.285156 C 85.921875 75.519531 86.0625 75.746094 86.214844 75.960938 C 86.324219 76.238281 86.457031 76.507812 86.613281 76.761719 C 87.253906 77.789062 88.261719 78.46875 89.308594 78.660156 C 90.445312 79.039062 91.339844 78.726562 91.96875 78.335938 C 92.4375 78.042969 92.871094 77.53125 93.164062 76.882812 C 93.457031 76.546875 93.722656 76.136719 93.941406 75.632812 C 94.804688 73.597656 93.902344 71.542969 92.105469 70.398438 C 91.96875 70.238281 91.828125 70.089844 91.679688 69.953125 C 89.921875 68.324219 87.839844 68.28125 86.367188 69.964844 C 85.378906 71.089844 85.082031 72.375 85.25 73.589844 Z M 218.996094 73.589844 C 218.96875 74.21875 219.175781 74.816406 219.546875 75.285156 C 219.667969 75.519531 219.804688 75.746094 219.957031 75.960938 C 220.0625 76.238281 220.195312 76.507812 220.355469 76.761719 C 220.996094 77.789062 222.007812 78.46875 223.050781 78.660156 C 224.1875 79.039062 225.085938 78.726562 225.710938 78.335938 C 226.183594 78.042969 226.617188 77.53125 226.902344 76.882812 C 227.203125 76.546875 227.46875 76.136719 227.679688 75.632812 C 228.542969 73.597656 227.644531 71.542969 225.847656 70.398438 C 225.710938 70.238281 225.566406 70.089844 225.417969 69.953125 C 223.664062 68.324219 221.585938 68.28125 220.109375 69.964844 C 219.121094 71.089844 218.824219 72.375 218.996094 73.589844 Z M 129.832031 73.589844 C 129.808594 74.21875 130.015625 74.816406 130.382812 75.285156 C 130.507812 75.519531 130.644531 75.746094 130.796875 75.960938 C 130.902344 76.238281 131.035156 76.507812 131.195312 76.761719 C 131.835938 77.789062 132.84375 78.46875 133.890625 78.660156 C 135.023438 79.039062 135.921875 78.726562 136.546875 78.335938 C 137.019531 78.042969 137.449219 77.53125 137.742188 76.882812 C 138.042969 76.546875 138.304688 76.136719 138.519531 75.632812 C 139.382812 73.597656 138.484375 71.542969 136.6875 70.398438 C 136.546875 70.238281 136.40625 70.089844 136.257812 69.953125 C 134.503906 68.324219 132.425781 68.28125 130.949219 69.964844 C 129.957031 71.089844 129.664062 72.375 129.832031 73.589844 Z M 107.9375 52.449219 C 107.917969 53.082031 108.121094 53.675781 108.488281 54.144531 C 108.613281 54.378906 108.75 54.605469 108.902344 54.820312 C 109.007812 55.097656 109.140625 55.367188 109.300781 55.621094 C 109.941406 56.652344 110.953125 57.332031 111.996094 57.523438 C 113.132812 57.898438 114.027344 57.585938 114.652344 57.195312 C 115.128906 56.902344 115.558594 56.390625 115.847656 55.742188 C 116.148438 55.410156 116.410156 54.996094 116.625 54.492188 C 117.488281 52.460938 116.589844 50.402344 114.792969 49.261719 C 114.660156 49.097656 114.511719 48.949219 114.363281 48.8125 C 112.609375 47.1875 110.53125 47.144531 109.054688 48.824219 C 108.066406 49.949219 107.769531 51.234375 107.9375 52.449219 Z M 174.410156 52.449219 C 174.390625 53.082031 174.597656 53.675781 174.960938 54.144531 C 175.085938 54.378906 175.222656 54.605469 175.375 54.820312 C 175.484375 55.097656 175.617188 55.367188 175.773438 55.621094 C 176.417969 56.652344 177.425781 57.332031 178.46875 57.523438 C 179.605469 57.898438 180.5 57.585938 181.128906 57.195312 C 181.597656 56.902344 182.035156 56.390625 182.320312 55.742188 C 182.621094 55.410156 182.882812 54.996094 183.101562 54.492188 C 183.964844 52.460938 183.0625 50.402344 181.265625 49.261719 C 181.128906 49.097656 180.988281 48.949219 180.839844 48.8125 C 179.082031 47.1875 177.003906 47.144531 175.527344 48.824219 C 174.542969 49.949219 174.246094 51.234375 174.410156 52.449219 Z M 63.355469 52.449219 C 63.335938 53.082031 63.542969 53.675781 63.90625 54.144531 C 64.027344 54.378906 64.167969 54.605469 64.320312 54.820312 C 64.429688 55.097656 64.5625 55.367188 64.71875 55.621094 C 65.363281 56.652344 66.367188 57.332031 67.414062 57.523438 C 68.550781 57.898438 69.445312 57.585938 70.074219 57.195312 C 70.542969 56.902344 70.976562 56.390625 71.269531 55.742188 C 71.5625 55.410156 71.828125 54.996094 72.046875 54.492188 C 72.910156 52.460938 72.007812 50.402344 70.210938 49.261719 C 70.074219 49.097656 69.933594 48.949219 69.785156 48.8125 C 68.027344 47.1875 65.949219 47.144531 64.472656 48.824219 C 63.488281 49.949219 63.191406 51.234375 63.355469 52.449219 Z M 152.515625 52.449219 C 152.496094 53.082031 152.703125 53.675781 153.070312 54.144531 C 153.191406 54.378906 153.328125 54.605469 153.480469 54.820312 C 153.589844 55.097656 153.722656 55.367188 153.878906 55.621094 C 154.523438 56.652344 155.53125 57.332031 156.574219 57.523438 C 157.714844 57.898438 158.605469 57.585938 159.238281 57.195312 C 159.710938 56.902344 160.140625 56.390625 160.429688 55.742188 C 160.726562 55.410156 160.996094 54.996094 161.207031 54.492188 C 162.070312 52.460938 161.167969 50.402344 159.371094 49.261719 C 159.238281 49.097656 159.09375 48.949219 158.945312 48.8125 C 157.1875 47.1875 155.109375 47.144531 153.632812 48.824219 C 152.648438 49.949219 152.351562 51.234375 152.515625 52.449219 Z M 18.777344 52.449219 C 18.75 53.082031 18.960938 53.675781 19.328125 54.144531 C 19.449219 54.378906 19.589844 54.605469 19.742188 54.820312 C 19.84375 55.097656 19.980469 55.367188 20.140625 55.621094 C 20.777344 56.652344 21.789062 57.332031 22.835938 57.523438 C 23.96875 57.898438 24.867188 57.585938 25.492188 57.195312 C 25.964844 56.902344 26.394531 56.390625 26.6875 55.742188 C 26.984375 55.410156 27.25 54.996094 27.464844 54.492188 C 28.328125 52.460938 27.429688 50.402344 25.632812 49.261719 C 25.492188 49.097656 25.347656 48.949219 25.203125 48.8125 C 23.449219 47.1875 21.367188 47.144531 19.894531 48.824219 C 18.902344 49.949219 18.609375 51.234375 18.777344 52.449219 Z M 40.671875 52.449219 C 40.644531 53.082031 40.855469 53.675781 41.222656 54.144531 C 41.339844 54.378906 41.480469 54.605469 41.636719 54.820312 C 41.738281 55.097656 41.875 55.367188 42.035156 55.621094 C 42.671875 56.652344 43.683594 57.332031 44.726562 57.523438 C 45.863281 57.898438 46.757812 57.585938 47.386719 57.195312 C 47.859375 56.902344 48.289062 56.390625 48.582031 55.742188 C 48.878906 55.410156 49.144531 54.996094 49.359375 54.492188 C 50.222656 52.460938 49.324219 50.402344 47.527344 49.261719 C 47.386719 49.097656 47.242188 48.949219 47.097656 48.8125 C 45.339844 47.1875 43.261719 47.144531 41.78125 48.824219 C 40.796875 49.949219 40.503906 51.234375 40.671875 52.449219 Z M 197.101562 52.449219 C 197.078125 53.082031 197.28125 53.675781 197.652344 54.144531 C 197.773438 54.378906 197.910156 54.605469 198.0625 54.820312 C 198.167969 55.097656 198.300781 55.367188 198.464844 55.621094 C 199.101562 56.652344 200.113281 57.332031 201.160156 57.523438 C 202.296875 57.898438 203.191406 57.585938 203.816406 57.195312 C 204.289062 56.902344 204.722656 56.390625 205.007812 55.742188 C 205.308594 55.410156 205.574219 54.996094 205.785156 54.492188 C 206.648438 52.460938 205.75 50.402344 203.953125 49.261719 C 203.820312 49.097656 203.675781 48.949219 203.527344 48.8125 C 201.769531 47.1875 199.691406 47.144531 198.214844 48.824219 C 197.230469 49.949219 196.929688 51.234375 197.101562 52.449219 Z M 129.832031 52.449219 C 129.808594 53.082031 130.015625 53.675781 130.382812 54.144531 C 130.507812 54.378906 130.644531 54.605469 130.796875 54.820312 C 130.902344 55.097656 131.035156 55.367188 131.195312 55.621094 C 131.835938 56.652344 132.84375 57.332031 133.890625 57.523438 C 135.023438 57.898438 135.921875 57.585938 136.546875 57.195312 C 137.019531 56.902344 137.449219 56.390625 137.742188 55.742188 C 138.042969 55.410156 138.304688 54.996094 138.519531 54.492188 C 139.382812 52.460938 138.484375 50.402344 136.6875 49.261719 C 136.546875 49.097656 136.40625 48.949219 136.257812 48.8125 C 134.503906 47.1875 132.425781 47.144531 130.949219 48.824219 C 129.957031 49.949219 129.664062 51.234375 129.832031 52.449219 Z M 85.25 52.449219 C 85.230469 53.082031 85.4375 53.675781 85.800781 54.144531 C 85.921875 54.378906 86.0625 54.605469 86.214844 54.820312 C 86.324219 55.097656 86.457031 55.367188 86.613281 55.621094 C 87.253906 56.652344 88.261719 57.332031 89.308594 57.523438 C 90.445312 57.898438 91.339844 57.585938 91.96875 57.195312 C 92.4375 56.902344 92.871094 56.390625 93.164062 55.742188 C 93.457031 55.410156 93.722656 54.996094 93.941406 54.492188 C 94.804688 52.460938 93.902344 50.402344 92.105469 49.261719 C 91.96875 49.097656 91.828125 48.949219 91.679688 48.8125 C 89.921875 47.1875 87.839844 47.144531 86.367188 48.824219 C 85.378906 49.949219 85.082031 51.234375 85.25 52.449219 Z M 218.996094 52.449219 C 218.96875 53.082031 219.175781 53.675781 219.546875 54.144531 C 219.667969 54.378906 219.804688 54.605469 219.957031 54.820312 C 220.0625 55.097656 220.195312 55.367188 220.355469 55.621094 C 220.996094 56.652344 222.007812 57.332031 223.050781 57.523438 C 224.1875 57.898438 225.085938 57.585938 225.710938 57.195312 C 226.183594 56.902344 226.617188 56.390625 226.902344 55.742188 C 227.203125 55.410156 227.46875 54.996094 227.679688 54.492188 C 228.542969 52.460938 227.644531 50.402344 225.847656 49.261719 C 225.710938 49.097656 225.566406 48.949219 225.417969 48.8125 C 223.664062 47.1875 221.585938 47.144531 220.109375 48.824219 C 219.121094 49.949219 218.824219 51.234375 218.996094 52.449219 Z M 107.9375 31.308594 C 107.917969 31.941406 108.121094 32.535156 108.488281 33.003906 C 108.613281 33.242188 108.75 33.46875 108.902344 33.679688 C 109.007812 33.960938 109.140625 34.226562 109.300781 34.484375 C 109.941406 35.511719 110.953125 36.191406 111.996094 36.382812 C 113.132812 36.761719 114.027344 36.449219 114.652344 36.054688 C 115.128906 35.761719 115.558594 35.253906 115.847656 34.601562 C 116.148438 34.269531 116.410156 33.859375 116.625 33.355469 C 117.488281 31.320312 116.589844 29.261719 114.792969 28.121094 C 114.660156 27.960938 114.511719 27.808594 114.363281 27.671875 C 112.609375 26.046875 110.53125 26.003906 109.054688 27.6875 C 108.066406 28.808594 107.769531 30.09375 107.9375 31.308594 Z M 18.777344 31.308594 C 18.75 31.941406 18.960938 32.535156 19.328125 33.003906 C 19.449219 33.242188 19.589844 33.46875 19.742188 33.679688 C 19.84375 33.960938 19.980469 34.226562 20.140625 34.484375 C 20.777344 35.511719 21.789062 36.191406 22.835938 36.382812 C 23.96875 36.761719 24.867188 36.449219 25.492188 36.054688 C 25.964844 35.761719 26.394531 35.253906 26.6875 34.601562 C 26.984375 34.269531 27.25 33.859375 27.464844 33.355469 C 28.328125 31.320312 27.429688 29.261719 25.632812 28.121094 C 25.492188 27.960938 25.347656 27.808594 25.203125 27.671875 C 23.449219 26.046875 21.367188 26.003906 19.894531 27.6875 C 18.902344 28.808594 18.609375 30.09375 18.777344 31.308594 Z M 63.355469 31.308594 C 63.335938 31.941406 63.542969 32.535156 63.90625 33.003906 C 64.027344 33.242188 64.167969 33.46875 64.320312 33.679688 C 64.429688 33.960938 64.5625 34.226562 64.71875 34.484375 C 65.363281 35.511719 66.367188 36.191406 67.414062 36.382812 C 68.550781 36.761719 69.445312 36.449219 70.074219 36.054688 C 70.542969 35.761719 70.976562 35.253906 71.269531 34.601562 C 71.5625 34.269531 71.828125 33.859375 72.046875 33.355469 C 72.910156 31.320312 72.007812 29.261719 70.210938 28.121094 C 70.074219 27.960938 69.933594 27.808594 69.785156 27.671875 C 68.027344 26.046875 65.949219 26.003906 64.472656 27.6875 C 63.488281 28.808594 63.191406 30.09375 63.355469 31.308594 Z M 152.515625 31.308594 C 152.496094 31.941406 152.703125 32.535156 153.070312 33.003906 C 153.191406 33.242188 153.328125 33.46875 153.480469 33.679688 C 153.589844 33.960938 153.722656 34.226562 153.878906 34.484375 C 154.523438 35.511719 155.53125 36.191406 156.574219 36.382812 C 157.714844 36.761719 158.605469 36.449219 159.238281 36.054688 C 159.710938 35.761719 160.140625 35.253906 160.429688 34.601562 C 160.726562 34.269531 160.996094 33.859375 161.207031 33.355469 C 162.070312 31.320312 161.167969 29.261719 159.371094 28.121094 C 159.238281 27.960938 159.09375 27.808594 158.945312 27.671875 C 157.1875 26.046875 155.109375 26.003906 153.632812 27.6875 C 152.648438 28.808594 152.351562 30.09375 152.515625 31.308594 Z M 174.410156 31.308594 C 174.390625 31.941406 174.597656 32.535156 174.960938 33.003906 C 175.085938 33.242188 175.222656 33.46875 175.375 33.679688 C 175.484375 33.960938 175.617188 34.226562 175.773438 34.484375 C 176.417969 35.511719 177.425781 36.191406 178.46875 36.382812 C 179.605469 36.761719 180.5 36.449219 181.128906 36.054688 C 181.597656 35.761719 182.035156 35.253906 182.320312 34.601562 C 182.621094 34.269531 182.882812 33.859375 183.101562 33.355469 C 183.964844 31.320312 183.0625 29.261719 181.265625 28.121094 C 181.128906 27.960938 180.988281 27.808594 180.839844 27.671875 C 179.082031 26.046875 177.003906 26.003906 175.527344 27.6875 C 174.542969 28.808594 174.246094 30.09375 174.410156 31.308594 Z M 40.671875 31.308594 C 40.644531 31.941406 40.855469 32.535156 41.222656 33.003906 C 41.339844 33.242188 41.480469 33.46875 41.636719 33.679688 C 41.738281 33.960938 41.875 34.226562 42.035156 34.484375 C 42.671875 35.511719 43.683594 36.191406 44.726562 36.382812 C 45.863281 36.761719 46.757812 36.449219 47.386719 36.054688 C 47.859375 35.761719 48.289062 35.253906 48.582031 34.601562 C 48.878906 34.269531 49.144531 33.859375 49.359375 33.355469 C 50.222656 31.320312 49.324219 29.261719 47.527344 28.121094 C 47.386719 27.960938 47.242188 27.808594 47.097656 27.671875 C 45.339844 26.046875 43.261719 26.003906 41.78125 27.6875 C 40.796875 28.808594 40.503906 30.09375 40.671875 31.308594 Z M 218.996094 31.308594 C 218.96875 31.941406 219.175781 32.535156 219.546875 33.003906 C 219.667969 33.242188 219.804688 33.46875 219.957031 33.679688 C 220.0625 33.960938 220.195312 34.226562 220.355469 34.484375 C 220.996094 35.511719 222.007812 36.191406 223.050781 36.382812 C 224.1875 36.761719 225.085938 36.449219 225.710938 36.054688 C 226.183594 35.761719 226.617188 35.253906 226.902344 34.601562 C 227.203125 34.269531 227.46875 33.859375 227.679688 33.355469 C 228.542969 31.320312 227.644531 29.261719 225.847656 28.121094 C 225.710938 27.960938 225.566406 27.808594 225.417969 27.671875 C 223.664062 26.046875 221.585938 26.003906 220.109375 27.6875 C 219.121094 28.808594 218.824219 30.09375 218.996094 31.308594 Z M 129.832031 31.308594 C 129.808594 31.941406 130.015625 32.535156 130.382812 33.003906 C 130.507812 33.242188 130.644531 33.46875 130.796875 33.679688 C 130.902344 33.960938 131.035156 34.226562 131.195312 34.484375 C 131.835938 35.511719 132.84375 36.191406 133.890625 36.382812 C 135.023438 36.761719 135.921875 36.449219 136.546875 36.054688 C 137.019531 35.761719 137.449219 35.253906 137.742188 34.601562 C 138.042969 34.269531 138.304688 33.859375 138.519531 33.355469 C 139.382812 31.320312 138.484375 29.261719 136.6875 28.121094 C 136.546875 27.960938 136.40625 27.808594 136.257812 27.671875 C 134.503906 26.046875 132.425781 26.003906 130.949219 27.6875 C 129.957031 28.808594 129.664062 30.09375 129.832031 31.308594 Z M 197.101562 31.308594 C 197.078125 31.941406 197.28125 32.535156 197.652344 33.003906 C 197.773438 33.242188 197.910156 33.46875 198.0625 33.679688 C 198.167969 33.960938 198.300781 34.226562 198.464844 34.484375 C 199.101562 35.511719 200.113281 36.191406 201.160156 36.382812 C 202.296875 36.761719 203.191406 36.449219 203.816406 36.054688 C 204.289062 35.761719 204.722656 35.253906 205.007812 34.601562 C 205.308594 34.269531 205.574219 33.859375 205.785156 33.355469 C 206.648438 31.320312 205.75 29.261719 203.953125 28.121094 C 203.820312 27.960938 203.675781 27.808594 203.527344 27.671875 C 201.769531 26.046875 199.691406 26.003906 198.214844 27.6875 C 197.230469 28.808594 196.929688 30.09375 197.101562 31.308594 Z M 85.25 31.308594 C 85.230469 31.941406 85.4375 32.535156 85.800781 33.003906 C 85.921875 33.242188 86.0625 33.46875 86.214844 33.679688 C 86.324219 33.960938 86.457031 34.226562 86.613281 34.484375 C 87.253906 35.511719 88.261719 36.191406 89.308594 36.382812 C 90.445312 36.761719 91.339844 36.449219 91.96875 36.054688 C 92.4375 35.761719 92.871094 35.253906 93.164062 34.601562 C 93.457031 34.269531 93.722656 33.859375 93.941406 33.355469 C 94.804688 31.320312 93.902344 29.261719 92.105469 28.121094 C 91.96875 27.960938 91.828125 27.808594 91.679688 27.671875 C 89.921875 26.046875 87.839844 26.003906 86.367188 27.6875 C 85.378906 28.808594 85.082031 30.09375 85.25 31.308594 Z M 63.355469 10.171875 C 63.335938 10.800781 63.542969 11.398438 63.90625 11.867188 C 64.027344 12.101562 64.167969 12.328125 64.320312 12.542969 C 64.429688 12.820312 64.5625 13.089844 64.71875 13.34375 C 65.363281 14.371094 66.367188 15.050781 67.414062 15.242188 C 68.550781 15.621094 69.445312 15.308594 70.074219 14.917969 C 70.542969 14.625 70.976562 14.113281 71.269531 13.464844 C 71.5625 13.128906 71.828125 12.71875 72.046875 12.214844 C 72.910156 10.179688 72.007812 8.125 70.210938 6.980469 C 70.074219 6.820312 69.933594 6.671875 69.785156 6.535156 C 68.027344 4.90625 65.949219 4.867188 64.472656 6.546875 C 63.488281 7.671875 63.191406 8.957031 63.355469 10.171875 Z M 174.410156 10.171875 C 174.390625 10.800781 174.597656 11.398438 174.960938 11.867188 C 175.085938 12.101562 175.222656 12.328125 175.375 12.542969 C 175.484375 12.820312 175.617188 13.089844 175.773438 13.34375 C 176.417969 14.371094 177.425781 15.050781 178.46875 15.242188 C 179.605469 15.621094 180.5 15.308594 181.128906 14.917969 C 181.597656 14.625 182.035156 14.113281 182.320312 13.464844 C 182.621094 13.128906 182.882812 12.71875 183.101562 12.214844 C 183.964844 10.179688 183.0625 8.125 181.265625 6.980469 C 181.128906 6.820312 180.988281 6.671875 180.839844 6.535156 C 179.082031 4.90625 177.003906 4.867188 175.527344 6.546875 C 174.542969 7.671875 174.246094 8.957031 174.410156 10.171875 Z M 107.9375 10.171875 C 107.917969 10.800781 108.121094 11.398438 108.488281 11.867188 C 108.613281 12.101562 108.75 12.328125 108.902344 12.542969 C 109.007812 12.820312 109.140625 13.089844 109.300781 13.34375 C 109.941406 14.371094 110.953125 15.050781 111.996094 15.242188 C 113.132812 15.621094 114.027344 15.308594 114.652344 14.917969 C 115.128906 14.625 115.558594 14.113281 115.847656 13.464844 C 116.148438 13.128906 116.410156 12.71875 116.625 12.214844 C 117.488281 10.179688 116.589844 8.125 114.792969 6.980469 C 114.660156 6.820312 114.511719 6.671875 114.363281 6.535156 C 112.609375 4.90625 110.53125 4.867188 109.054688 6.546875 C 108.066406 7.671875 107.769531 8.957031 107.9375 10.171875 Z M 152.515625 10.171875 C 152.496094 10.800781 152.703125 11.398438 153.070312 11.867188 C 153.191406 12.101562 153.328125 12.328125 153.480469 12.542969 C 153.589844 12.820312 153.722656 13.089844 153.878906 13.34375 C 154.523438 14.371094 155.53125 15.050781 156.574219 15.242188 C 157.714844 15.621094 158.605469 15.308594 159.238281 14.917969 C 159.710938 14.625 160.140625 14.113281 160.429688 13.464844 C 160.726562 13.128906 160.996094 12.71875 161.207031 12.214844 C 162.070312 10.179688 161.167969 8.125 159.371094 6.980469 C 159.238281 6.820312 159.09375 6.671875 158.945312 6.535156 C 157.1875 4.90625 155.109375 4.867188 153.632812 6.546875 C 152.648438 7.671875 152.351562 8.957031 152.515625 10.171875 Z M 18.777344 10.171875 C 18.75 10.800781 18.960938 11.398438 19.328125 11.867188 C 19.449219 12.101562 19.589844 12.328125 19.742188 12.542969 C 19.84375 12.820312 19.980469 13.089844 20.140625 13.34375 C 20.777344 14.371094 21.789062 15.050781 22.835938 15.242188 C 23.96875 15.621094 24.867188 15.308594 25.492188 14.917969 C 25.964844 14.625 26.394531 14.113281 26.6875 13.464844 C 26.984375 13.128906 27.25 12.71875 27.464844 12.214844 C 28.328125 10.179688 27.429688 8.125 25.632812 6.980469 C 25.492188 6.820312 25.347656 6.671875 25.203125 6.535156 C 23.449219 4.90625 21.367188 4.867188 19.894531 6.546875 C 18.902344 7.671875 18.609375 8.957031 18.777344 10.171875 Z M 85.25 10.171875 C 85.230469 10.800781 85.4375 11.398438 85.800781 11.867188 C 85.921875 12.101562 86.0625 12.328125 86.214844 12.542969 C 86.324219 12.820312 86.457031 13.089844 86.613281 13.34375 C 87.253906 14.371094 88.261719 15.050781 89.308594 15.242188 C 90.445312 15.621094 91.339844 15.308594 91.96875 14.917969 C 92.4375 14.625 92.871094 14.113281 93.164062 13.464844 C 93.457031 13.128906 93.722656 12.71875 93.941406 12.214844 C 94.804688 10.179688 93.902344 8.125 92.105469 6.980469 C 91.96875 6.820312 91.828125 6.671875 91.679688 6.535156 C 89.921875 4.90625 87.839844 4.867188 86.367188 6.546875 C 85.378906 7.671875 85.082031 8.957031 85.25 10.171875 Z M 40.671875 10.171875 C 40.644531 10.800781 40.855469 11.398438 41.222656 11.867188 C 41.339844 12.101562 41.480469 12.328125 41.636719 12.542969 C 41.738281 12.820312 41.875 13.089844 42.035156 13.34375 C 42.671875 14.371094 43.683594 15.050781 44.726562 15.242188 C 45.863281 15.621094 46.757812 15.308594 47.386719 14.917969 C 47.859375 14.625 48.289062 14.113281 48.582031 13.464844 C 48.878906 13.128906 49.144531 12.71875 49.359375 12.214844 C 50.222656 10.179688 49.324219 8.125 47.527344 6.980469 C 47.386719 6.820312 47.242188 6.671875 47.097656 6.535156 C 45.339844 4.90625 43.261719 4.867188 41.78125 6.546875 C 40.796875 7.671875 40.503906 8.957031 40.671875 10.171875 Z M 218.996094 10.171875 C 218.96875 10.800781 219.175781 11.398438 219.546875 11.867188 C 219.667969 12.101562 219.804688 12.328125 219.957031 12.542969 C 220.0625 12.820312 220.195312 13.089844 220.355469 13.34375 C 220.996094 14.371094 222.007812 15.050781 223.050781 15.242188 C 224.1875 15.621094 225.085938 15.308594 225.710938 14.917969 C 226.183594 14.625 226.617188 14.113281 226.902344 13.464844 C 227.203125 13.128906 227.46875 12.71875 227.679688 12.214844 C 228.542969 10.179688 227.644531 8.125 225.847656 6.980469 C 225.710938 6.820312 225.566406 6.671875 225.417969 6.535156 C 223.664062 4.90625 221.585938 4.867188 220.109375 6.546875 C 219.121094 7.671875 218.824219 8.957031 218.996094 10.171875 Z M 129.832031 10.171875 C 129.808594 10.800781 130.015625 11.398438 130.382812 11.867188 C 130.507812 12.101562 130.644531 12.328125 130.796875 12.542969 C 130.902344 12.820312 131.035156 13.089844 131.195312 13.34375 C 131.835938 14.371094 132.84375 15.050781 133.890625 15.242188 C 135.023438 15.621094 135.921875 15.308594 136.546875 14.917969 C 137.019531 14.625 137.449219 14.113281 137.742188 13.464844 C 138.042969 13.128906 138.304688 12.71875 138.519531 12.214844 C 139.382812 10.179688 138.484375 8.125 136.6875 6.980469 C 136.546875 6.820312 136.40625 6.671875 136.257812 6.535156 C 134.503906 4.90625 132.425781 4.867188 130.949219 6.546875 C 129.957031 7.671875 129.664062 8.957031 129.832031 10.171875 Z M 197.101562 10.171875 C 197.078125 10.800781 197.28125 11.398438 197.652344 11.867188 C 197.773438 12.101562 197.910156 12.328125 198.0625 12.542969 C 198.167969 12.820312 198.300781 13.089844 198.464844 13.34375 C 199.101562 14.371094 200.113281 15.050781 201.160156 15.242188 C 202.296875 15.621094 203.191406 15.308594 203.816406 14.917969 C 204.289062 14.625 204.722656 14.113281 205.007812 13.464844 C 205.308594 13.128906 205.574219 12.71875 205.785156 12.214844 C 206.648438 10.179688 205.75 8.125 203.953125 6.980469 C 203.820312 6.820312 203.675781 6.671875 203.527344 6.535156 C 201.769531 4.90625 199.691406 4.867188 198.214844 6.546875 C 197.230469 7.671875 196.929688 8.957031 197.101562 10.171875 Z M 197.101562 10.171875" fill-rule="evenodd"/></g></svg>