<svg xmlns="http://www.w3.org/2000/svg" width="375" viewBox="0 0 375 375" height="375" version="1.0"><defs><clipPath id="a"><path d="M 74 125.3125 L 301 125.3125 L 301 249.8125 L 74 249.8125 Z M 74 125.3125"/></clipPath></defs><g clip-path="url(#a)"><path fill="#4285F4" d="M 87.597656 125.875 C 82.945312 125.875 76.6875 128.96875 75.121094 133.585938 C 73.558594 138.207031 75.121094 142.824219 78.25 147.484375 C 112.59375 196.800781 178.144531 246.160156 178.144531 246.160156 C 178.144531 246.160156 181.273438 249.253906 187.453125 249.253906 C 193.75 249.253906 196.839844 246.160156 196.839844 246.160156 C 196.839844 246.160156 262.394531 196.800781 296.734375 147.484375 C 299.863281 142.824219 301.429688 138.207031 299.863281 133.585938 C 298.300781 128.96875 292.039062 125.875 287.386719 125.875 Z M 87.597656 125.875"/></g></svg>