<svg xmlns="http://www.w3.org/2000/svg" width="375" viewBox="0 0 375 375" height="375" version="1.0"><defs><clipPath id="a"><path d="M 50.046875 37.5 L 325.296875 37.5 L 325.296875 337.5 L 50.046875 337.5 Z M 50.046875 37.5"/></clipPath><clipPath id="b"><path d="M 59.953125 48.3125 L 314.953125 48.3125 L 314.953125 326.5625 L 59.953125 326.5625 Z M 59.953125 48.3125"/></clipPath><clipPath id="c"><path d="M 66.683594 55.65625 L 308.183594 55.65625 L 308.183594 319.65625 L 66.683594 319.65625 Z M 66.683594 55.65625"/></clipPath><clipPath id="d"><path d="M 39.742188 26.253906 L 335.242188 26.253906 L 335.242188 348.753906 L 39.742188 348.753906 Z M 39.742188 26.253906"/></clipPath><clipPath id="e"><path d="M 30.535156 20.011719 L 337.285156 20.011719 L 337.285156 355.261719 L 30.535156 355.261719 Z M 30.535156 20.011719"/></clipPath></defs><g clip-path="url(#a)"><path fill="#4285F4" d="M 322.140625 113.351562 L 190.773438 38.378906 C 188.847656 37.28125 186.496094 37.28125 184.566406 38.378906 L 53.199219 113.351562 C 51.246094 114.464844 50.046875 116.539062 50.046875 118.773438 L 50.046875 256.222656 C 50.046875 258.460938 51.246094 260.535156 53.199219 261.648438 L 184.566406 336.621094 C 185.53125 337.167969 186.59375 337.445312 187.671875 337.445312 C 188.746094 337.445312 189.808594 337.167969 190.773438 336.621094 L 322.140625 261.648438 C 324.09375 260.535156 325.296875 258.460938 325.296875 256.222656 L 325.296875 118.773438 C 325.296875 116.539062 324.09375 114.464844 322.140625 113.351562 Z M 312.785156 252.601562 L 187.671875 324 L 62.558594 252.601562 L 62.558594 122.398438 L 187.671875 51 L 312.785156 122.398438 Z M 312.785156 252.601562"/></g><g clip-path="url(#b)"><path fill="#4285F4" d="M 312.03125 118.664062 L 190.328125 49.125 C 188.542969 48.105469 186.363281 48.105469 184.578125 49.125 L 62.875 118.664062 C 61.066406 119.695312 59.953125 121.621094 59.953125 123.695312 L 59.953125 251.179688 C 59.953125 253.253906 61.066406 255.179688 62.875 256.210938 L 184.578125 325.75 C 185.472656 326.257812 186.457031 326.515625 187.453125 326.515625 C 188.449219 326.515625 189.4375 326.257812 190.328125 325.75 L 312.03125 256.210938 C 313.839844 255.179688 314.953125 253.253906 314.953125 251.179688 L 314.953125 123.695312 C 314.953125 121.621094 313.839844 119.695312 312.03125 118.664062 Z M 303.363281 247.820312 L 187.453125 314.042969 L 71.542969 247.820312 L 71.542969 127.054688 L 187.453125 60.832031 L 303.363281 127.054688 Z M 303.363281 247.820312"/></g><g clip-path="url(#c)"><path fill="#4285F4" d="M 305.417969 122.40625 L 190.15625 56.425781 C 188.464844 55.460938 186.402344 55.460938 184.710938 56.425781 L 69.449219 122.40625 C 67.738281 123.382812 66.683594 125.210938 66.683594 127.179688 L 66.683594 248.136719 C 66.683594 250.105469 67.738281 251.929688 69.449219 252.910156 L 184.710938 318.886719 C 185.558594 319.371094 186.492188 319.613281 187.433594 319.613281 C 188.378906 319.613281 189.3125 319.371094 190.15625 318.886719 L 305.417969 252.910156 C 307.128906 251.929688 308.183594 250.105469 308.183594 248.136719 L 308.183594 127.179688 C 308.183594 125.210938 307.128906 123.382812 305.417969 122.40625 Z M 297.207031 244.949219 L 187.433594 307.78125 L 77.660156 244.949219 L 77.660156 130.367188 L 187.433594 67.535156 L 297.207031 130.367188 Z M 297.207031 244.949219"/></g><path fill="#4285F4" d="M 197.316406 182.671875 L 197.316406 187.324219 L 187.503906 187.324219 L 197.316406 182.671875"/><path fill="#4285F4" d="M 187.5 187.335938 L 197.320312 187.335938 L 197.320312 310.34375 L 187.5 310.34375 L 187.5 187.335938"/><path fill="#4285F4" d="M 197.316406 183.191406 L 197.316406 187.839844 L 187.503906 187.839844 L 197.316406 183.191406"/><path fill="#4285F4" d="M 279.785156 142.410156 L 279.785156 147.0625 L 269.96875 147.0625 L 279.785156 142.410156"/><path fill="#4285F4" d="M 269.96875 147.074219 L 279.789062 147.074219 L 279.789062 270.082031 L 269.96875 270.082031 L 269.96875 147.074219"/><path fill="#4285F4" d="M 279.785156 142.929688 L 279.785156 147.578125 L 269.96875 147.578125 L 279.785156 142.929688"/><path fill="#4285F4" d="M 225.039062 169.183594 L 225.039062 173.832031 L 215.226562 173.832031 L 225.039062 169.183594"/><path fill="#4285F4" d="M 215.222656 173.84375 L 225.042969 173.84375 L 225.042969 296.851562 L 215.222656 296.851562 L 215.222656 173.84375"/><path fill="#4285F4" d="M 225.039062 169.699219 L 225.039062 174.351562 L 215.226562 174.351562 L 225.039062 169.699219"/><path fill="#4285F4" d="M 252.742188 155.878906 L 252.742188 160.53125 L 242.929688 160.53125 L 252.742188 155.878906"/><path fill="#4285F4" d="M 242.929688 160.542969 L 252.75 160.542969 L 252.75 283.550781 L 242.929688 283.550781 L 242.929688 160.542969"/><path fill="#4285F4" d="M 252.742188 156.398438 L 252.742188 161.050781 L 242.929688 161.050781 L 252.742188 156.398438"/><g clip-path="url(#d)"><path fill="#4285F4" d="M 331.855469 107.792969 L 190.820312 27.195312 C 188.753906 26.015625 186.226562 26.015625 184.160156 27.195312 L 43.125 107.792969 C 41.03125 108.988281 39.742188 111.21875 39.742188 113.625 L 39.742188 261.386719 C 39.742188 263.789062 41.03125 266.019531 43.125 267.214844 L 184.160156 347.8125 C 185.195312 348.402344 186.335938 348.699219 187.492188 348.699219 C 188.644531 348.699219 189.789062 348.402344 190.820312 347.8125 L 331.855469 267.214844 C 333.953125 266.019531 335.242188 263.789062 335.242188 261.386719 L 335.242188 113.625 C 335.242188 111.21875 333.953125 108.988281 331.855469 107.792969 Z M 321.808594 257.488281 L 187.492188 334.246094 L 53.171875 257.488281 L 53.171875 117.519531 L 187.492188 40.765625 L 321.808594 117.519531 Z M 321.808594 257.488281"/></g><g clip-path="url(#e)"><path fill="#4285F4" d="M 333.773438 104.769531 L 187.367188 20.984375 C 185.222656 19.753906 182.601562 19.753906 180.453125 20.984375 L 34.050781 104.769531 C 31.875 106.011719 30.535156 108.332031 30.535156 110.832031 L 30.535156 264.441406 C 30.535156 266.9375 31.875 269.257812 34.050781 270.5 L 180.453125 354.285156 C 181.527344 354.902344 182.710938 355.207031 183.910156 355.207031 C 185.109375 355.207031 186.296875 354.902344 187.367188 354.285156 L 333.773438 270.5 C 335.949219 269.257812 337.285156 266.9375 337.285156 264.441406 L 337.285156 110.832031 C 337.285156 108.332031 335.949219 106.011719 333.773438 104.769531 Z M 323.34375 260.390625 L 183.910156 340.183594 L 44.480469 260.390625 L 44.480469 114.878906 L 183.910156 35.085938 L 323.34375 114.878906 Z M 323.34375 260.390625"/></g></svg>