<svg xmlns="http://www.w3.org/2000/svg" width="375" viewBox="0 0 375 375" height="375" version="1.0"><defs><clipPath id="a"><path d="M 89 37.5 L 286 37.5 L 286 293 L 89 293 Z M 89 37.5"/></clipPath><clipPath id="b"><path d="M 59.046875 257 L 316.296875 257 L 316.296875 337.5 L 59.046875 337.5 Z M 59.046875 257"/></clipPath></defs><g clip-path="url(#a)"><path fill="#FFF" d="M 183.375 290.835938 C 184.617188 291.886719 186.148438 292.414062 187.683594 292.414062 C 189.214844 292.414062 190.746094 291.886719 191.992188 290.835938 C 195.828125 287.601562 285.949219 210.710938 285.949219 135.632812 C 285.945312 81.519531 241.867188 37.5 187.683594 37.5 C 133.5 37.5 89.417969 81.519531 89.417969 135.632812 C 89.417969 210.710938 179.539062 287.601562 183.375 290.835938 Z M 187.683594 50.832031 C 234.503906 50.832031 272.597656 88.875 272.597656 135.632812 C 272.597656 195.652344 205.523438 260.613281 187.683594 276.832031 C 169.839844 260.613281 102.769531 195.648438 102.769531 135.632812 C 102.769531 88.875 140.859375 50.832031 187.683594 50.832031 Z M 187.683594 50.832031"/></g><path fill="#FFF" d="M 236.082031 133.433594 C 236.082031 106.785156 214.367188 85.101562 187.683594 85.101562 C 160.996094 85.101562 139.285156 106.785156 139.285156 133.433594 C 139.285156 160.085938 160.996094 181.765625 187.683594 181.765625 C 214.367188 181.765625 236.082031 160.085938 236.082031 133.433594 Z M 152.636719 133.433594 C 152.636719 114.132812 168.355469 98.433594 187.683594 98.433594 C 207.007812 98.433594 222.730469 114.132812 222.730469 133.433594 C 222.730469 152.734375 207.007812 168.433594 187.683594 168.433594 C 168.355469 168.433594 152.636719 152.734375 152.636719 133.433594 Z M 152.636719 133.433594"/><g clip-path="url(#b)"><path fill="#FFF" d="M 241.792969 257.347656 C 238.136719 256.816406 234.765625 259.382812 234.261719 263.035156 C 233.753906 266.679688 236.300781 270.046875 239.953125 270.554688 C 285.859375 276.925781 302.96875 289.316406 302.96875 295.628906 C 302.96875 307.265625 258.0625 324.167969 187.699219 324.167969 C 117.3125 324.167969 72.398438 307.265625 72.398438 295.628906 C 72.398438 289.335938 89.515625 276.964844 135.449219 270.554688 C 139.101562 270.046875 141.648438 266.675781 141.136719 263.03125 C 140.625 259.382812 137.253906 256.808594 133.601562 257.351562 C 111.183594 260.472656 59.046875 270.46875 59.046875 295.628906 C 59.046875 323.117188 123.765625 337.5 187.699219 337.5 C 251.617188 337.5 316.320312 323.117188 316.320312 295.628906 C 316.320312 270.417969 264.199219 260.457031 241.792969 257.347656 Z M 241.792969 257.347656"/></g><path fill="#FFF" d="M 187.488281 90.414062 C 163.671875 90.414062 144.363281 109.722656 144.363281 133.539062 C 144.363281 157.355469 163.671875 176.664062 187.488281 176.664062 C 211.304688 176.664062 230.613281 157.355469 230.613281 133.539062 C 230.613281 109.722656 211.304688 90.414062 187.488281 90.414062"/></svg>