<svg xmlns="http://www.w3.org/2000/svg" width="375" viewBox="0 0 375 375" height="375" version="1.0"><defs><clipPath id="a"><path d="M 42 52 L 324 52 L 324 334.3125 L 42 334.3125 Z M 42 52"/></clipPath></defs><path fill="#FFF" d="M 214.789062 86.128906 C 211.203125 85.878906 208.101562 88.570312 207.847656 92.148438 C 207.59375 95.726562 210.289062 98.835938 213.871094 99.089844 C 231.070312 100.304688 246.246094 107.042969 257.769531 118.5625 C 269.289062 130.085938 276.023438 145.265625 277.242188 162.46875 C 277.484375 165.890625 280.335938 168.5 283.714844 168.5 C 283.867188 168.5 284.023438 168.496094 284.179688 168.484375 C 287.757812 168.230469 290.453125 165.125 290.199219 161.542969 C 288.757812 141.179688 280.71875 123.140625 266.953125 109.375 C 253.191406 95.613281 235.152344 87.574219 214.789062 86.128906 Z M 214.789062 86.128906"/><g clip-path="url(#a)"><path fill="#FFF" d="M 72.378906 212.449219 C 83.320312 231 96.785156 248.320312 112.402344 263.9375 C 128.015625 279.554688 145.339844 293.023438 163.875 303.957031 C 189.597656 319.210938 217.761719 329.464844 245.328125 333.617188 C 248.378906 334.078125 251.449219 334.300781 254.515625 334.300781 C 271.539062 334.300781 288.378906 327.332031 300.921875 314.789062 L 312.882812 302.828125 C 320.019531 295.691406 323.949219 286.203125 323.949219 276.109375 C 323.949219 266.015625 320.019531 256.527344 312.882812 249.390625 L 286.644531 223.148438 C 271.917969 208.417969 247.941406 208.417969 233.210938 223.148438 L 221.601562 234.761719 C 216.21875 240.148438 207.695312 240.820312 201.335938 236.371094 C 189.546875 228.125 178.320312 218.699219 167.980469 208.355469 C 157.636719 198.007812 148.210938 186.785156 139.964844 174.992188 C 135.519531 168.628906 136.191406 160.105469 141.578125 154.726562 L 153.1875 143.113281 C 167.917969 128.378906 167.917969 104.40625 153.1875 89.675781 L 126.953125 63.433594 C 119.816406 56.296875 110.328125 52.367188 100.234375 52.367188 C 90.140625 52.367188 80.652344 56.296875 73.519531 63.433594 L 61.558594 75.394531 C 46.753906 90.195312 39.71875 110.980469 42.730469 130.996094 C 46.882812 158.570312 57.136719 186.738281 72.378906 212.449219 Z M 70.738281 84.585938 L 78.097656 77.226562 L 87.949219 87.078125 C 89.214844 88.347656 90.878906 88.980469 92.539062 88.980469 C 94.203125 88.980469 95.867188 88.347656 97.132812 87.078125 C 99.667969 84.542969 99.667969 80.429688 97.132812 77.894531 L 87.902344 68.664062 C 91.617188 66.523438 95.832031 65.363281 100.230469 65.363281 C 106.855469 65.363281 113.078125 67.941406 117.761719 72.625 L 144 98.863281 C 152.078125 106.945312 153.378906 119.253906 147.953125 128.722656 L 109.667969 90.429688 C 107.132812 87.894531 103.015625 87.894531 100.484375 90.429688 C 97.949219 92.96875 97.949219 97.078125 100.484375 99.613281 L 139.398438 138.53125 L 132.390625 145.539062 C 122.546875 155.386719 121.253906 170.90625 129.320312 182.4375 C 138 194.851562 147.917969 206.660156 158.792969 217.542969 L 163.386719 212.949219 L 158.796875 217.542969 C 169.675781 228.421875 181.484375 238.339844 193.890625 247.019531 C 205.425781 255.082031 220.945312 253.796875 230.789062 243.949219 L 237.796875 236.941406 L 277 276.148438 C 278.269531 277.417969 279.929688 278.050781 281.59375 278.050781 C 283.253906 278.050781 284.917969 277.417969 286.183594 276.148438 C 288.71875 273.613281 288.71875 269.5 286.183594 266.964844 L 247.609375 228.382812 C 257.078125 222.957031 269.382812 224.257812 277.460938 232.335938 L 303.699219 258.578125 C 308.382812 263.261719 310.960938 269.488281 310.960938 276.113281 C 310.960938 280.515625 309.796875 284.730469 307.660156 288.445312 L 298.523438 279.304688 C 295.992188 276.769531 291.875 276.769531 289.339844 279.304688 C 286.804688 281.84375 286.804688 285.953125 289.339844 288.488281 L 299.097656 298.25 L 291.742188 305.605469 C 279.839844 317.507812 263.207031 323.167969 247.261719 320.777344 C 221.335938 316.871094 194.796875 307.191406 170.488281 292.78125 C 152.878906 282.394531 136.429688 269.601562 121.582031 254.757812 C 106.742188 239.914062 93.949219 223.457031 83.558594 205.839844 C 69.15625 181.546875 59.476562 154.996094 55.570312 129.070312 C 53.171875 113.113281 58.839844 96.488281 70.738281 84.585938 Z M 70.738281 84.585938"/></g><path fill="#FFF" d="M 327.476562 170.195312 C 327.558594 170.199219 327.640625 170.199219 327.722656 170.199219 C 331.195312 170.199219 334.078125 167.449219 334.207031 163.949219 C 335.394531 132.195312 322.640625 100.542969 299.210938 77.113281 C 275.78125 53.679688 244.128906 40.925781 212.386719 42.109375 C 208.800781 42.246094 206.003906 45.261719 206.136719 48.84375 C 206.273438 52.429688 209.296875 55.246094 212.867188 55.089844 C 241.039062 54.023438 269.144531 65.410156 290.027344 86.292969 C 310.910156 107.179688 322.285156 135.304688 321.226562 163.460938 C 321.09375 167.046875 323.890625 170.058594 327.476562 170.195312 Z M 327.476562 170.195312"/></svg>