<svg xmlns="http://www.w3.org/2000/svg" width="375" viewBox="0 0 375 375" height="375" version="1.0"><defs><clipPath id="a"><path d="M 38 66 L 337 66 L 337 322.675781 L 38 322.675781 Z M 38 66"/></clipPath></defs><g clip-path="url(#a)"><path fill="#FFF" d="M 48.925781 322.675781 C 48.535156 322.675781 48.148438 322.65625 47.761719 322.613281 C 47.375 322.570312 46.992188 322.507812 46.609375 322.421875 C 46.230469 322.335938 45.855469 322.230469 45.488281 322.105469 C 45.121094 321.980469 44.761719 321.835938 44.410156 321.667969 C 44.054688 321.503906 43.714844 321.320312 43.382812 321.117188 C 43.050781 320.914062 42.730469 320.695312 42.421875 320.457031 C 42.113281 320.21875 41.820312 319.964844 41.539062 319.695312 C 41.257812 319.425781 40.992188 319.140625 40.746094 318.839844 C 40.496094 318.542969 40.261719 318.230469 40.046875 317.90625 C 39.832031 317.582031 39.636719 317.246094 39.457031 316.898438 C 39.277344 316.554688 39.121094 316.199219 38.980469 315.835938 C 38.839844 315.472656 38.722656 315.101562 38.621094 314.726562 C 38.523438 314.347656 38.445312 313.96875 38.386719 313.582031 C 38.328125 313.195312 38.292969 312.808594 38.277344 312.421875 C 38.261719 312.03125 38.269531 311.640625 38.296875 311.253906 C 38.324219 310.863281 38.371094 310.480469 38.441406 310.09375 L 59.40625 194.585938 L 38.441406 79.078125 C 38.269531 78.128906 38.226562 77.175781 38.3125 76.21875 C 38.398438 75.261719 38.609375 74.332031 38.945312 73.429688 C 39.28125 72.527344 39.730469 71.6875 40.292969 70.910156 C 40.859375 70.128906 41.515625 69.4375 42.265625 68.835938 C 43.015625 68.234375 43.832031 67.746094 44.710938 67.363281 C 45.59375 66.984375 46.511719 66.726562 47.464844 66.59375 C 48.414062 66.460938 49.367188 66.460938 50.320312 66.585938 C 51.273438 66.710938 52.191406 66.960938 53.078125 67.335938 L 330.230469 184.75 C 331.191406 185.160156 332.078125 185.699219 332.882812 186.371094 C 333.6875 187.039062 334.382812 187.8125 334.960938 188.6875 C 335.539062 189.558594 335.976562 190.5 336.28125 191.503906 C 336.582031 192.507812 336.734375 193.535156 336.734375 194.582031 C 336.734375 195.628906 336.582031 196.65625 336.28125 197.660156 C 335.976562 198.664062 335.539062 199.605469 334.960938 200.476562 C 334.382812 201.351562 333.6875 202.125 332.882812 202.792969 C 332.078125 203.464844 331.191406 204.003906 330.230469 204.410156 L 53.078125 321.828125 C 51.75 322.390625 50.367188 322.675781 48.925781 322.675781 Z M 62.945312 94.703125 L 80.726562 192.679688 C 80.96875 193.949219 80.96875 195.222656 80.726562 196.492188 L 62.945312 294.46875 L 298.71875 194.585938 Z M 62.945312 94.703125"/></g><path fill="#FFF" d="M 208.820312 205.261719 L 70.242188 205.261719 C 69.542969 205.261719 68.851562 205.191406 68.164062 205.054688 C 67.476562 204.917969 66.8125 204.714844 66.164062 204.449219 C 65.515625 204.179688 64.902344 203.851562 64.320312 203.460938 C 63.738281 203.070312 63.199219 202.628906 62.707031 202.132812 C 62.210938 201.636719 61.769531 201.097656 61.378906 200.515625 C 60.992188 199.933594 60.664062 199.320312 60.394531 198.671875 C 60.128906 198.023438 59.925781 197.355469 59.789062 196.667969 C 59.652344 195.980469 59.582031 195.285156 59.582031 194.585938 C 59.582031 193.886719 59.652344 193.191406 59.789062 192.503906 C 59.925781 191.816406 60.128906 191.148438 60.394531 190.5 C 60.664062 189.855469 60.992188 189.238281 61.378906 188.65625 C 61.769531 188.074219 62.210938 187.535156 62.707031 187.039062 C 63.199219 186.542969 63.738281 186.101562 64.320312 185.710938 C 64.902344 185.320312 65.515625 184.992188 66.164062 184.722656 C 66.8125 184.457031 67.476562 184.253906 68.164062 184.117188 C 68.851562 183.980469 69.542969 183.910156 70.242188 183.910156 L 208.820312 183.910156 C 209.519531 183.910156 210.210938 183.980469 210.898438 184.117188 C 211.585938 184.253906 212.253906 184.457031 212.898438 184.722656 C 213.546875 184.992188 214.160156 185.320312 214.742188 185.710938 C 215.324219 186.101562 215.863281 186.542969 216.355469 187.039062 C 216.851562 187.535156 217.292969 188.074219 217.683594 188.65625 C 218.070312 189.238281 218.398438 189.855469 218.667969 190.5 C 218.933594 191.148438 219.136719 191.816406 219.273438 192.503906 C 219.410156 193.191406 219.480469 193.886719 219.480469 194.585938 C 219.480469 195.285156 219.410156 195.980469 219.273438 196.667969 C 219.136719 197.355469 218.933594 198.023438 218.667969 198.671875 C 218.398438 199.320312 218.070312 199.933594 217.683594 200.515625 C 217.292969 201.097656 216.851562 201.636719 216.355469 202.132812 C 215.863281 202.628906 215.324219 203.070312 214.742188 203.460938 C 214.160156 203.851562 213.546875 204.179688 212.898438 204.449219 C 212.253906 204.714844 211.585938 204.917969 210.898438 205.054688 C 210.210938 205.191406 209.519531 205.261719 208.820312 205.261719 Z M 208.820312 205.261719"/></svg>